<svg width="80" height="80" viewBox="0 0 80 80" fill="none" xmlns="http://www.w3.org/2000/svg">
<g clip-path="url(#clip0)">
<path d="M49.0498 28.8951L41.0423 36.3451L33.6123 21.3576L37.4573 12.7376C38.4573 10.9876 40.0173 11.0076 40.9923 12.7376L49.0498 28.8951Z" fill="#808080"/>
<path d="M33.6122 21.3574L41.0422 36.3449L11.1172 64.1824L33.6122 21.3574Z" fill="#868686"/>
<path d="M57.8072 17.5075C59.2372 16.1325 60.7172 16.6025 61.0947 18.55L68.8847 63.8125L43.0647 79.3125C42.1647 79.8125 39.7647 80.0275 39.7647 80.0275C39.7647 80.0275 37.5797 79.7675 36.7472 79.2775L11.1172 64.1825L57.8072 17.5075Z" fill="#939393"/>
<path d="M33.6126 21.3573L11.1201 64.1823L21.1376 1.59483C21.5076 -0.355172 22.6176 -0.542672 23.6076 1.17733L33.6126 21.3573Z" fill="#808080"/>
</g>
<defs>
<clipPath id="clip0">
<rect width="80" height="80" fill="white"/>
</clipPath>
</defs>
</svg>
