<svg width="80" height="80" viewBox="0 0 80 80" fill="none" xmlns="http://www.w3.org/2000/svg">
<path d="M22.4002 3.2002C11.8154 3.2002 3.2002 11.8154 3.2002 22.4002V57.6002C3.2002 68.1849 11.8154 76.8002 22.4002 76.8002H57.6002C68.1849 76.8002 76.8002 68.1849 76.8002 57.6002V22.4002C76.8002 11.8154 68.1849 3.2002 57.6002 3.2002H22.4002ZM22.4002 6.4002H57.6002C66.4555 6.4002 73.6002 13.5449 73.6002 22.4002V57.6002C73.6002 66.4555 66.4555 73.6002 57.6002 73.6002H22.4002C13.5449 73.6002 6.4002 66.4555 6.4002 57.6002V22.4002C6.4002 13.5449 13.5449 6.4002 22.4002 6.4002ZM18.6002 28.9002C17.4754 28.9002 16.6502 29.6958 16.6502 30.7502C16.6502 31.7902 17.4754 32.6002 18.6002 32.6002C19.725 32.6002 20.5502 31.7902 20.5502 30.7502C20.5502 29.6958 19.725 28.9002 18.6002 28.9002ZM35.2502 29.8002C29.4278 29.8002 25.8002 33.8966 25.8002 40.4502C25.8002 46.9894 29.3574 51.1002 35.2502 51.1002C41.1286 51.1002 44.7002 46.975 44.7002 40.4502C44.7002 33.911 41.0998 29.8018 35.2502 29.8002ZM55.9502 29.8002C51.5214 29.8002 48.5502 32.2358 48.5502 35.8502C48.5502 38.831 50.2298 40.5926 53.9002 41.4502L56.5002 42.1002C59.1866 42.7322 60.4002 43.653 60.4002 45.2002C60.4002 47.0002 58.5314 48.3002 56.0002 48.3002C53.2866 48.3002 51.4174 47.0766 51.1502 45.1502H48.0002C48.2258 48.779 51.251 51.1002 55.7502 51.1002C60.5598 51.1002 63.6002 48.6818 63.6002 44.8002C63.6002 41.749 61.8634 40.0698 57.7002 39.1002L55.4502 38.5502C52.807 37.931 51.7502 37.0982 51.7502 35.6502C51.7502 33.8214 53.4106 32.6002 55.9002 32.6002C58.2634 32.6002 59.9042 33.7798 60.2002 35.6502H63.2502C63.0678 32.2326 60.0702 29.8002 55.9502 29.8002ZM35.2502 32.7502C39.1046 32.7502 41.5002 35.7398 41.5002 40.4502C41.5002 45.1318 39.103 48.1502 35.2502 48.1502C31.3558 48.1502 29.0002 45.1334 29.0002 40.4502C29.0002 35.7398 31.4246 32.7518 35.2502 32.7502ZM17.1002 35.3002V50.6002H20.1002V35.3002H17.1002Z" fill="black"/>
</svg>
