<svg width="80" height="77" viewBox="0 0 80 77" fill="none" xmlns="http://www.w3.org/2000/svg">
<path d="M5.21406 48.9825C1.11459 27.24 11.9488 6.27064 36.8152 3.48109C33.3861 -0.174077 28.7016 -0.201543 26.5462 0.243089C22.7406 1.45298 22.8601 3.90962 18.5434 7.08287C14.2519 9.528 12.0966 7.65549 8.97048 10.1903C5.85102 12.7062 8.0277 18.4817 6.7194 19.6046C5.42069 21.8502 1.39212 23.8507 0.65879 26.6871C0.0527292 30.3145 2.30381 32.9056 2.21723 36.0149C2.47697 38.606 -0.36857 40.0711 0.0402616 42.1711C1.26485 45.6019 3.6252 47.6668 4.73792 48.6186C4.99309 48.798 5.26259 49.2399 5.21406 48.9825Z" fill="#7C7C7C"/>
<path d="M49.4606 18.8849C48.5522 18.8849 47.8156 18.1501 47.8156 17.2438C47.8156 16.3376 48.5522 15.6028 49.4606 15.6028C50.369 15.6028 51.1056 16.3376 51.1056 17.2438C51.1056 18.1501 50.369 18.8849 49.4606 18.8849ZM6.17345 51.354C2.23389 32.4575 14.4246 16.6681 38.032 24.4414C51.8843 32.5254 69.3099 31.999 70.0956 26.7734C72.0351 20.5088 61.2644 7.59927 45.1605 4.23085C13.2125 -1.98778 -4.011 32.4575 6.17345 51.354Z" fill="url(#paint0_radial)"/>
<path d="M58.5806 53.4614C63.3245 53.9741 67.8275 52.8383 72.0005 49.4452C65.6961 56.4602 57.8132 59.9872 48.7683 60.9469C53.0869 64.6095 57.2516 66.2593 61.2359 65.5532C50.165 68.6007 40.8898 65.2462 29.6068 54.0373C29.016 57.0548 32.2107 61.756 35.5035 64.757C16.398 56.4942 14.723 30.7546 38.0202 24.4231C13.8699 12.8482 0.214296 35.3382 6.92351 53.7709C13.488 67.9678 30.9811 78.897 50.1536 76.4935C59.4663 75.3556 73.3729 68.9505 79.0541 53.7709C75.0501 57.3552 67.8929 60.477 64.6991 60.7165C75.5087 55.3274 81.344 46.17 79.7062 33.6541C77.467 38.9719 74.5127 43.0559 70.8173 45.8609C78.6672 33.6541 77.3202 27.3448 71.51 20.4106C75.6658 31.8115 70.2899 44.4648 58.5806 53.4614Z" fill="url(#paint1_radial)"/>
<path d="M53.0336 66.596C52.2134 66.4432 54.8929 67.6788 49.7124 66.3107C44.532 64.9426 39.2572 63.6243 29.6072 54.0376C29.0163 57.055 32.211 61.7563 35.5038 64.7573C44.3927 70.9415 38.3476 68.0491 51.8914 72.7199C52.9782 70.5618 53.0336 68.6441 53.0336 66.596Z" fill="url(#paint2_linear)"/>
<path d="M35.8132 18.0348C35.8132 18.0348 36.9907 16.301 37.4491 15.5191C38.0108 14.5609 38.8734 12.8143 38.8734 12.8143C38.8734 12.8143 29.8095 9.86433 27.5852 9.50439C20.6706 11.2949 20.6454 14.1848 24.5112 18.6081C24.9414 19.1005 35.8132 18.0348 35.8132 18.0348Z" fill="url(#paint3_linear)"/>
<defs>
<radialGradient id="paint0_radial" cx="0" cy="0" r="1" gradientUnits="userSpaceOnUse" gradientTransform="translate(56.0771 21.6055) scale(60.2801 43.0164)">
<stop stop-color="#7C7C7C"/>
<stop offset="1" stop-color="#474747"/>
</radialGradient>
<radialGradient id="paint1_radial" cx="0" cy="0" r="1" gradientUnits="userSpaceOnUse" gradientTransform="translate(56.608 22.892) scale(61.1002 46.1076)">
<stop stop-color="#474747"/>
<stop offset="0.291746" stop-color="#474747"/>
<stop offset="1" stop-color="#7C7C7C"/>
</radialGradient>
<linearGradient id="paint2_linear" x1="33.8218" y1="54.0376" x2="44.5834" y2="72.1801" gradientUnits="userSpaceOnUse">
<stop stop-color="#7B7B7B"/>
<stop offset="0.669713" stop-color="#727272"/>
<stop offset="0.827148" stop-color="#6B6B6B" stop-opacity="0.2"/>
<stop offset="1" stop-color="#606060" stop-opacity="0"/>
</linearGradient>
<linearGradient id="paint3_linear" x1="32.9241" y1="16.1119" x2="31.3626" y2="13.1141" gradientUnits="userSpaceOnUse">
<stop stop-color="#595959" stop-opacity="0.15134"/>
<stop offset="0.400351" stop-color="#7B7B7B" stop-opacity="0.4"/>
<stop offset="0.648996" stop-color="#7B7B7B" stop-opacity="0.891668"/>
<stop offset="1" stop-color="#7B7B7B"/>
</linearGradient>
</defs>
</svg>
