<svg width="80" height="80" viewBox="0 0 80 80" fill="none" xmlns="http://www.w3.org/2000/svg">
<g clip-path="url(#clip0)">
<path d="M49.31 5C84.48 28.47 73.075 54.26 73.075 54.26C73.075 54.26 83.065 65.315 79.05 75C79.05 75 74.905 68.235 68.025 68.235C61.375 68.235 57.44 75 44.015 75C14.155 75 0 50.53 0 50.53C26.91 67.93 45.295 55.6 45.295 55.6C33.145 48.71 7.375 15.715 7.375 15.715C29.84 34.47 39.535 39.395 39.535 39.395C33.705 34.715 17.46 11.78 17.46 11.78C30.46 24.675 56.3 42.655 56.3 42.655C63.71 22.785 49.31 5 49.31 5Z" fill="black"/>
</g>
<defs>
<clipPath id="clip0">
<rect width="80" height="80" fill="white"/>
</clipPath>
</defs>
</svg>
