<svg width="128" height="60" viewBox="0 0 128 60" fill="none" xmlns="http://www.w3.org/2000/svg">
<path d="M77.2562 0.674194C77.6621 -0.224533 78.9383 -0.224532 79.3443 0.674196L80.8968 4.11174C81.0116 4.3659 81.2152 4.56946 81.4693 4.68424L84.9069 6.2368C85.8056 6.64271 85.8056 7.91897 84.9069 8.32487L81.4693 9.87743C81.2152 9.99222 81.0116 10.1958 80.8968 10.4499L79.3443 13.8875C78.9383 14.7862 77.6621 14.7862 77.2562 13.8875L75.7036 10.4499C75.5888 10.1958 75.3853 9.99222 75.1311 9.87743L71.6936 8.32487C70.7948 7.91897 70.7948 6.64271 71.6936 6.2368L75.1311 4.68425C75.3853 4.56946 75.5888 4.3659 75.7036 4.11174L77.2562 0.674194Z" fill="#E8C81D"/>
<path d="M88.0412 17.1595L99.8342 26.9699L88.007 36.8486L85.6484 34.114L94.3992 27.0383L85.5801 19.9625L88.0412 17.1595Z" fill="white"/>
<path fill-rule="evenodd" clip-rule="evenodd" d="M99.8674 7.28034L111.66 17.0907L102.611 24.6494L99.8264 22.3332L106.225 17.1591L97.4062 10.0833L99.8674 7.28034Z" fill="white"/>
<path d="M68.5584 17.1595L56.7654 26.9699L68.5926 36.8486L70.9512 34.114L62.2005 27.0383L71.0195 19.9625L68.5584 17.1595Z" fill="white"/>
<path fill-rule="evenodd" clip-rule="evenodd" d="M56.7304 7.28034L44.9375 17.0907L53.987 24.6494L56.7714 22.3332L50.3725 17.1591L59.1916 10.0833L56.7304 7.28034Z" fill="white"/>
<path d="M9.5369 55.8981C10.3345 55.8981 11.0751 55.7386 11.7588 55.4196C12.4652 55.1005 13.1375 54.5992 13.7755 53.9155L16.5785 56.821C15.667 57.8237 14.5731 58.6099 13.297 59.1796C12.0208 59.7265 10.6991 60 9.33181 60C8.03288 60 6.80231 59.7607 5.6401 59.2822C4.50069 58.8036 3.5094 58.1541 2.66623 57.3338C1.84585 56.5134 1.19639 55.5449 0.717831 54.4283C0.239277 53.2888 0 52.0697 0 50.7707C0 49.4718 0.239277 48.264 0.717831 47.1474C1.19639 46.008 1.84585 45.0281 2.66623 44.2077C3.5094 43.3645 4.50069 42.7037 5.6401 42.2251C6.80231 41.7466 8.03288 41.5073 9.33181 41.5073C10.7447 41.5073 12.1006 41.7921 13.3995 42.3619C14.6985 42.9088 15.8037 43.6836 16.7152 44.6863L13.8439 47.7285C13.2058 47.0221 12.5222 46.4865 11.7929 46.1219C11.0637 45.7573 10.2775 45.575 9.43436 45.575C8.08985 45.575 6.95043 46.0763 6.01611 47.079C5.10458 48.0817 4.64881 49.3123 4.64881 50.7707C4.64881 52.2292 5.11597 53.4484 6.05029 54.4283C7.0074 55.4082 8.1696 55.8981 9.5369 55.8981Z" fill="white"/>
<path d="M17.1836 50.7707C17.1836 49.4718 17.4229 48.264 17.9014 47.1474C18.4028 46.008 19.075 45.0281 19.9182 44.2077C20.7841 43.3645 21.7982 42.7037 22.9604 42.2251C24.1226 41.7466 25.3646 41.5073 26.6863 41.5073C28.008 41.5073 29.25 41.7466 30.4122 42.2251C31.5744 42.7037 32.5771 43.3645 33.4203 44.2077C34.2862 45.0281 34.9585 46.008 35.437 47.1474C35.9384 48.264 36.189 49.4718 36.189 50.7707C36.189 52.0697 35.9384 53.2888 35.437 54.4283C34.9585 55.5449 34.2862 56.5134 33.4203 57.3338C32.5771 58.1541 31.5744 58.8036 30.4122 59.2822C29.25 59.7607 28.008 60 26.6863 60C25.3646 60 24.1226 59.7607 22.9604 59.2822C21.7982 58.8036 20.7841 58.1541 19.9182 57.3338C19.075 56.5134 18.4028 55.5449 17.9014 54.4283C17.4229 53.2888 17.1836 52.0697 17.1836 50.7707ZM26.6863 55.9323C28.0536 55.9323 29.2158 55.4309 30.1729 54.4283C31.13 53.4256 31.6086 52.2064 31.6086 50.7707C31.6086 49.3123 31.13 48.0817 30.1729 47.079C29.2158 46.0763 28.0536 45.575 26.6863 45.575C25.319 45.575 24.1568 46.0763 23.1997 47.079C22.2426 48.0817 21.764 49.3123 21.764 50.7707C21.764 52.2064 22.2426 53.4256 23.1997 54.4283C24.1568 55.4309 25.319 55.9323 26.6863 55.9323Z" fill="white"/>
<path d="M52.1564 59.6572V58.1874C51.45 58.7571 50.6638 59.19 49.7978 59.4863C48.9319 59.7598 48.0317 59.8965 47.0974 59.8965C45.8441 59.8965 44.6591 59.6572 43.5424 59.1787C42.4486 58.7001 41.4915 58.0506 40.6711 57.2303C39.8507 56.4099 39.2013 55.4414 38.7227 54.3247C38.2669 53.2081 38.0391 52.0117 38.0391 50.7356C38.0391 49.4594 38.2783 48.2631 38.7569 47.1464C39.2354 46.0298 39.8849 45.0613 40.7053 44.2409C41.5257 43.4205 42.4942 42.7825 43.6108 42.3267C44.7502 41.8482 45.958 41.6089 47.2341 41.6089C48.1001 41.6089 48.9433 41.7342 49.7636 41.9849C50.6068 42.2128 51.3816 42.5546 52.0881 43.0104V35.7295L56.771 34.704V59.6572H52.1564ZM42.6537 50.7356C42.6537 52.1713 43.155 53.3904 44.1577 54.3931C45.1604 55.3958 46.391 55.8971 47.8494 55.8971C48.7154 55.8971 49.5016 55.749 50.208 55.4528C50.9372 55.1565 51.5639 54.7349 52.0881 54.188V47.249C51.5867 46.7248 50.96 46.3147 50.208 46.0184C49.4788 45.7222 48.6926 45.574 47.8494 45.574C46.3682 45.574 45.1262 46.0754 44.1235 47.0781C43.1436 48.058 42.6537 49.2771 42.6537 50.7356Z" fill="white"/>
<path d="M76.0785 57.4363C74.9847 58.3251 73.8566 58.9745 72.6944 59.3847C71.555 59.7949 70.2789 60 68.866 60C67.5215 60 66.2567 59.7607 65.0718 59.2822C63.9095 58.8036 62.8955 58.1541 62.0295 57.3338C61.1864 56.5134 60.5141 55.5449 60.0128 54.4283C59.5342 53.2888 59.2949 52.0697 59.2949 50.7707C59.2949 49.4946 59.5228 48.2982 59.9786 47.1816C60.4571 46.0422 61.1066 45.0623 61.927 44.2419C62.7473 43.3987 63.7159 42.7379 64.8325 42.2593C65.9719 41.7808 67.1797 41.5415 68.4558 41.5415C69.7092 41.5415 70.8714 41.7921 71.9424 42.2935C73.0363 42.772 73.9706 43.4329 74.7454 44.2761C75.543 45.1192 76.1583 46.1333 76.5912 47.3183C77.047 48.4805 77.2749 49.7453 77.2749 51.1126V52.3431H64.0121C64.3311 53.4598 64.9464 54.3599 65.858 55.0435C66.7695 55.7272 67.8405 56.069 69.0711 56.069C69.8459 56.069 70.5751 55.9437 71.2588 55.693C71.9424 55.4423 72.5235 55.0891 73.0021 54.6334L76.0785 57.4363ZM68.3533 45.4041C67.2822 45.4041 66.3593 45.7345 65.5845 46.3954C64.8097 47.0335 64.2742 47.8994 63.9779 48.9933H72.6944C72.3982 47.945 71.8513 47.0904 71.0537 46.4296C70.2789 45.7459 69.3787 45.4041 68.3533 45.4041Z" fill="white"/>
<path d="M95.8988 57.4363C94.805 58.3251 93.677 58.9745 92.5148 59.3847C91.3753 59.7949 90.0992 60 88.6863 60C87.3418 60 86.0771 59.7607 84.8921 59.2822C83.7299 58.8036 82.7158 58.1541 81.8498 57.3338C81.0067 56.5134 80.3344 55.5449 79.8331 54.4283C79.3545 53.2888 79.1152 52.0697 79.1152 50.7707C79.1152 49.4946 79.3431 48.2982 79.7989 47.1816C80.2774 46.0422 80.9269 45.0623 81.7473 44.2419C82.5677 43.3987 83.5362 42.7379 84.6528 42.2593C85.7922 41.7808 87 41.5415 88.2761 41.5415C89.5295 41.5415 90.6917 41.7921 91.7627 42.2935C92.8566 42.772 93.7909 43.4329 94.5657 44.2761C95.3633 45.1192 95.9786 46.1333 96.4115 47.3183C96.8673 48.4805 97.0952 49.7453 97.0952 51.1126V52.3431H83.8324C84.1514 53.4598 84.7667 54.3599 85.6783 55.0435C86.5898 55.7272 87.6608 56.069 88.8914 56.069C89.6662 56.069 90.3954 55.9437 91.0791 55.693C91.7627 55.4423 92.3438 55.0891 92.8224 54.6334L95.8988 57.4363ZM88.1736 45.4041C87.1025 45.4041 86.1796 45.7345 85.4048 46.3954C84.63 47.0335 84.0945 47.8994 83.7982 48.9933H92.5148C92.2185 47.945 91.6716 47.0904 90.874 46.4296C90.0992 45.7459 89.1991 45.4041 88.1736 45.4041Z" fill="white"/>
<path d="M99.623 59.6582V41.8491H104.306V43.7975C104.876 43.0227 105.559 42.4416 106.357 42.0542C107.177 41.6441 108.078 41.439 109.057 41.439C109.513 41.4617 109.889 41.5073 110.185 41.5757C110.504 41.6213 110.778 41.7124 111.006 41.8491V45.951C110.664 45.7915 110.288 45.6776 109.878 45.6092C109.468 45.5181 109.046 45.4725 108.613 45.4725C107.702 45.4725 106.858 45.7004 106.084 46.1561C105.332 46.6119 104.739 47.2728 104.306 48.1387V59.6582H99.623Z" fill="white"/>
<path d="M111.896 57.5389L114.221 54.4283C115.269 55.1119 116.26 55.6246 117.195 55.9665C118.129 56.2855 119.063 56.445 119.998 56.445C121.046 56.445 121.878 56.2741 122.493 55.9323C123.131 55.5905 123.45 55.1347 123.45 54.565C123.45 54.1092 123.268 53.7446 122.903 53.4712C122.561 53.1977 122.003 53.004 121.228 52.89L117.81 52.3773C116.055 52.1039 114.711 51.5341 113.777 50.6682C112.865 49.8022 112.409 48.6514 112.409 47.2158C112.409 45.5066 113.081 44.1393 114.426 43.1139C115.77 42.0884 117.571 41.5757 119.827 41.5757C121.126 41.5757 122.39 41.7694 123.621 42.1568C124.852 42.5214 126.025 43.0683 127.142 43.7975L124.886 46.8056C123.906 46.2359 122.972 45.8143 122.083 45.5408C121.194 45.2446 120.294 45.0965 119.382 45.0965C118.539 45.0965 117.856 45.256 117.331 45.575C116.83 45.894 116.579 46.3156 116.579 46.8398C116.579 47.3183 116.762 47.6943 117.126 47.9678C117.514 48.2184 118.14 48.4008 119.006 48.5147L122.425 49.0274C124.157 49.2781 125.49 49.8478 126.424 50.7366C127.381 51.6253 127.86 52.7533 127.86 54.1206C127.86 54.9638 127.655 55.75 127.244 56.4792C126.857 57.1856 126.321 57.8009 125.638 58.3251C124.954 58.8492 124.134 59.2594 123.177 59.5556C122.22 59.8519 121.183 60 120.066 60C118.448 60 116.933 59.7949 115.52 59.3847C114.107 58.9517 112.899 58.3365 111.896 57.5389Z" fill="white"/>
</svg>
