<svg width="285" height="134" viewBox="0 0 285 134" fill="none" xmlns="http://www.w3.org/2000/svg">
<path d="M172.15 1.50198C173.054 -0.500652 175.898 -0.500648 176.803 1.50199L180.262 9.16187C180.518 9.72821 180.971 10.1818 181.538 10.4376L189.198 13.8971C191.2 14.8016 191.2 17.6455 189.198 18.55L181.538 22.0095C180.971 22.2653 180.518 22.7189 180.262 23.2852L176.803 30.9451C175.898 32.9478 173.054 32.9478 172.15 30.9451L168.69 23.2852C168.434 22.7189 167.981 22.2653 167.414 22.0095L159.755 18.55C157.752 17.6455 157.752 14.8016 159.755 13.8971L167.414 10.4376C167.981 10.1818 168.434 9.72821 168.69 9.16187L172.15 1.50198Z" fill="#E8C81D"/>
<path d="M196.183 38.2386L222.462 60.099L196.107 82.1118L190.852 76.0183L210.351 60.2513L190.699 44.4844L196.183 38.2386Z" fill="#1C1B17"/>
<path fill-rule="evenodd" clip-rule="evenodd" d="M222.538 16.2236L248.816 38.084L228.651 54.9271L222.446 49.7658L236.705 38.2364L217.053 22.4694L222.538 16.2236Z" fill="#1C1B17"/>
<path d="M152.768 38.2386L126.49 60.099L152.845 82.1118L158.1 76.0183L138.601 60.2513L158.253 44.4844L152.768 38.2386Z" fill="#1C1B17"/>
<path fill-rule="evenodd" clip-rule="evenodd" d="M126.414 16.2236L100.136 38.084L120.301 54.9271L126.505 49.7658L112.247 38.2364L131.898 22.4694L126.414 16.2236Z" fill="#1C1B17"/>
<path d="M21.2511 124.558C23.0283 124.558 24.6787 124.202 26.202 123.491C27.7762 122.78 29.2742 121.663 30.696 120.14L36.9418 126.614C34.9107 128.848 32.4733 130.6 29.6296 131.87C26.786 133.089 23.8408 133.698 20.7941 133.698C17.8997 133.698 15.1576 133.165 12.5678 132.098C10.0289 131.032 7.81999 129.585 5.94116 127.757C4.11311 125.929 2.66591 123.771 1.59954 121.282C0.533181 118.743 0 116.027 0 113.132C0 110.238 0.533181 107.547 1.59954 105.058C2.66591 102.52 4.11311 100.336 5.94116 98.5079C7.81999 96.6291 10.0289 95.1565 12.5678 94.0902C15.1576 93.0238 17.8997 92.4906 20.7941 92.4906C23.9424 92.4906 26.9637 93.1254 29.8581 94.3948C32.7526 95.6135 35.2154 97.34 37.2465 99.5743L30.8483 106.353C29.4265 104.779 27.9031 103.586 26.2782 102.773C24.6533 101.961 22.9014 101.555 21.0226 101.555C18.0266 101.555 15.4876 102.672 13.4057 104.906C11.3745 107.14 10.3589 109.882 10.3589 113.132C10.3589 116.382 11.3999 119.099 13.4819 121.282C15.6146 123.466 18.2043 124.558 21.2511 124.558Z" fill="#1C1B17"/>
<path d="M38.2897 113.132C38.2897 110.238 38.8229 107.547 39.8892 105.058C41.0064 102.52 42.5043 100.336 44.3832 98.5079C46.3128 96.6291 48.5725 95.1565 51.1622 94.0902C53.7519 93.0238 56.5194 92.4906 59.4646 92.4906C62.4098 92.4906 65.1772 93.0238 67.767 94.0902C70.3567 95.1565 72.591 96.6291 74.4698 98.5079C76.3994 100.336 77.8974 102.52 78.9638 105.058C80.0809 107.547 80.6395 110.238 80.6395 113.132C80.6395 116.027 80.0809 118.743 78.9638 121.282C77.8974 123.771 76.3994 125.929 74.4698 127.757C72.591 129.585 70.3567 131.032 67.767 132.098C65.1772 133.165 62.4098 133.698 59.4646 133.698C56.5194 133.698 53.7519 133.165 51.1622 132.098C48.5725 131.032 46.3128 129.585 44.3832 127.757C42.5043 125.929 41.0064 123.771 39.8892 121.282C38.8229 118.743 38.2897 116.027 38.2897 113.132ZM59.4646 124.634C62.5113 124.634 65.1011 123.517 67.2338 121.282C69.3665 119.048 70.4329 116.331 70.4329 113.132C70.4329 109.882 69.3665 107.14 67.2338 104.906C65.1011 102.672 62.5113 101.555 59.4646 101.555C56.4178 101.555 53.8281 102.672 51.6954 104.906C49.5626 107.14 48.4963 109.882 48.4963 113.132C48.4963 116.331 49.5626 119.048 51.6954 121.282C53.8281 123.517 56.4178 124.634 59.4646 124.634Z" fill="#1C1B17"/>
<path d="M116.219 132.936V129.661C114.645 130.931 112.893 131.895 110.964 132.556C109.034 133.165 107.028 133.47 104.946 133.47C102.153 133.47 99.513 132.936 97.0248 131.87C94.5874 130.804 92.4546 129.356 90.6266 127.528C88.7985 125.7 87.3513 123.542 86.285 121.054C85.2694 118.566 84.7616 115.9 84.7616 113.056C84.7616 110.213 85.2948 107.547 86.3611 105.059C87.4275 102.57 88.8747 100.412 90.7028 98.5843C92.5308 96.7562 94.6889 95.3344 97.1771 94.3188C99.7161 93.2524 102.407 92.7193 105.251 92.7193C107.181 92.7193 109.059 92.9986 110.887 93.5571C112.766 94.0649 114.493 94.8266 116.067 95.8422V79.6182L126.502 77.3332V132.936H116.219ZM95.0444 113.056C95.0444 116.255 96.1615 118.972 98.3958 121.206C100.63 123.441 103.372 124.558 106.622 124.558C108.552 124.558 110.304 124.228 111.878 123.568C113.503 122.907 114.899 121.968 116.067 120.749V105.287C114.95 104.119 113.553 103.205 111.878 102.545C110.253 101.885 108.501 101.555 106.622 101.555C103.321 101.555 100.554 102.672 98.3196 104.906C96.1361 107.09 95.0444 109.806 95.0444 113.056Z" fill="#1C1B17"/>
<path d="M169.525 127.985C167.088 129.966 164.574 131.413 161.984 132.327C159.445 133.241 156.602 133.698 153.453 133.698C150.457 133.698 147.639 133.165 144.999 132.098C142.409 131.032 140.149 129.585 138.22 127.757C136.341 125.929 134.843 123.771 133.726 121.283C132.659 118.744 132.126 116.027 132.126 113.132C132.126 110.289 132.634 107.623 133.649 105.135C134.716 102.596 136.163 100.412 137.991 98.5842C139.819 96.7054 141.977 95.2328 144.465 94.1665C147.004 93.1001 149.696 92.5669 152.539 92.5669C155.332 92.5669 157.922 93.1255 160.309 94.2426C162.746 95.309 164.828 96.7816 166.554 98.6604C168.332 100.539 169.703 102.799 170.667 105.439C171.683 108.029 172.191 110.847 172.191 113.894V116.636H142.637C143.348 119.124 144.719 121.13 146.751 122.654C148.782 124.177 151.168 124.939 153.91 124.939C155.637 124.939 157.262 124.659 158.785 124.101C160.309 123.542 161.603 122.755 162.67 121.74L169.525 127.985ZM152.311 101.174C149.924 101.174 147.868 101.91 146.141 103.383C144.415 104.805 143.221 106.734 142.561 109.172H161.984C161.324 106.836 160.105 104.932 158.328 103.459C156.602 101.936 154.596 101.174 152.311 101.174Z" fill="#1C1B17"/>
<path d="M213.691 127.985C211.254 129.966 208.74 131.413 206.15 132.327C203.611 133.241 200.768 133.698 197.619 133.698C194.623 133.698 191.805 133.165 189.165 132.098C186.575 131.032 184.315 129.585 182.386 127.757C180.507 125.929 179.009 123.771 177.892 121.283C176.825 118.744 176.292 116.027 176.292 113.132C176.292 110.289 176.8 107.623 177.815 105.135C178.882 102.596 180.329 100.412 182.157 98.5842C183.985 96.7054 186.143 95.2328 188.631 94.1665C191.17 93.1001 193.862 92.5669 196.705 92.5669C199.498 92.5669 202.088 93.1255 204.475 94.2426C206.912 95.309 208.994 96.7816 210.72 98.6604C212.498 100.539 213.869 102.799 214.833 105.439C215.849 108.029 216.357 110.847 216.357 113.894V116.636H186.803C187.514 119.124 188.885 121.13 190.917 122.654C192.948 124.177 195.334 124.939 198.076 124.939C199.803 124.939 201.428 124.659 202.951 124.101C204.475 123.542 205.769 122.755 206.836 121.74L213.691 127.985ZM196.477 101.174C194.09 101.174 192.034 101.91 190.307 103.383C188.581 104.805 187.387 106.734 186.727 109.172H206.15C205.49 106.836 204.271 104.932 202.494 103.459C200.768 101.936 198.762 101.174 196.477 101.174Z" fill="#1C1B17"/>
<path d="M221.989 132.936V93.2525H232.424V97.5941C233.693 95.8676 235.217 94.5727 236.994 93.7095C238.822 92.7954 240.828 92.3384 243.011 92.3384C244.027 92.3892 244.865 92.4908 245.525 92.6431C246.236 92.7447 246.845 92.9478 247.353 93.2525V102.393C246.591 102.037 245.753 101.783 244.839 101.631C243.925 101.428 242.986 101.326 242.021 101.326C239.99 101.326 238.111 101.834 236.384 102.85C234.709 103.865 233.388 105.338 232.424 107.268V132.936H221.989Z" fill="#1C1B17"/>
<path d="M249.34 128.214L254.519 121.283C256.855 122.806 259.064 123.948 261.146 124.71C263.228 125.421 265.31 125.776 267.392 125.776C269.727 125.776 271.581 125.396 272.952 124.634C274.374 123.872 275.085 122.857 275.085 121.587C275.085 120.572 274.678 119.759 273.866 119.15C273.104 118.54 271.86 118.109 270.134 117.855L262.517 116.712C258.607 116.103 255.611 114.834 253.529 112.904C251.498 110.974 250.482 108.41 250.482 105.211C250.482 101.402 251.98 98.3557 254.976 96.0707C257.972 93.7856 261.984 92.6431 267.011 92.6431C269.905 92.6431 272.723 93.0747 275.465 93.9379C278.208 94.7504 280.823 95.9691 283.311 97.594L278.284 104.297C276.1 103.027 274.018 102.088 272.038 101.479C270.057 100.819 268.052 100.488 266.021 100.488C264.142 100.488 262.618 100.844 261.45 101.555C260.333 102.266 259.775 103.205 259.775 104.373C259.775 105.439 260.181 106.277 260.993 106.887C261.857 107.445 263.253 107.851 265.183 108.105L272.8 109.248C276.659 109.806 279.629 111.076 281.711 113.056C283.844 115.037 284.91 117.55 284.91 120.597C284.91 122.476 284.453 124.228 283.539 125.853C282.676 127.427 281.483 128.798 279.959 129.966C278.436 131.134 276.608 132.048 274.475 132.708C272.343 133.368 270.032 133.698 267.544 133.698C263.939 133.698 260.562 133.241 257.414 132.327C254.265 131.362 251.574 129.991 249.34 128.214Z" fill="#1C1B17"/>
</svg>
