<svg width="200" height="165" viewBox="0 0 200 165" fill="none" xmlns="http://www.w3.org/2000/svg">
<path d="M184.678 1.19543C184.317 0.643957 183.453 0.89926 183.453 1.55542V16.6432V16.6981C185.375 17.6299 186.652 19.6482 186.484 21.9435C186.291 24.5936 184.124 26.7344 181.454 26.9221C178.269 27.1442 175.612 24.6498 175.612 21.5426C175.612 19.4159 176.85 17.5751 178.656 16.6981V16.6432V1.55542C178.656 0.89926 177.792 0.643957 177.431 1.19543L164.741 20.4716C163.645 22.1375 163.735 24.3077 164.96 25.8766L173.833 37.1653L177.199 37.1985H171.047C170.028 37.1985 169.203 38.0129 169.203 39.0176V42.0367C169.203 43.0413 170.028 43.8545 171.047 43.8545H191.062C192.081 43.8545 192.906 43.0413 192.906 42.0367V39.0176C192.906 38.0129 192.081 37.1985 191.062 37.1985H186.536L188.277 37.1653L197.149 25.8766C198.374 24.3077 198.465 22.1375 197.368 20.4716L184.678 1.19543Z" fill="#676767"/>
<path d="M173.768 81.2127C173.768 84.2803 176.283 86.7671 179.378 86.7671H182.731C185.826 86.7671 188.341 84.2803 188.341 81.2127V43.8756H173.768V81.2127Z" fill="#E8C81D"/>
<path d="M20.9216 122.51C22.6742 122.51 24.094 123.916 24.094 125.651C24.094 127.386 22.6742 128.793 20.9216 128.793C19.169 128.793 17.7478 127.386 17.7478 125.651C17.7478 123.916 19.169 122.51 20.9216 122.51ZM10.7825 138.924H31.4165V112.243H10.7825V138.924Z" fill="#E8C81D"/>
<path d="M10.7825 90.6903V112.243H32.1903V87.6751H13.8299C12.147 87.6751 10.7825 89.0257 10.7825 90.6903Z" fill="#676767"/>
<path d="M10.7825 160.476C10.7825 162.141 12.147 163.491 13.8299 163.491H32.1903V138.924H10.7825V160.476Z" fill="#676767"/>
<path d="M14.3392 88.5692C12.9167 88.5692 11.7599 89.7143 11.7599 91.121V160.18C11.7599 161.588 12.9167 162.733 14.3392 162.733H113.397C118.211 162.733 122.127 158.856 122.127 154.09V97.2116C122.127 92.4461 118.211 88.5692 113.397 88.5692H14.3392ZM113.397 164.52H14.3392C11.9211 164.52 9.95447 162.573 9.95447 160.18V91.121C9.95447 88.7287 11.9211 86.782 14.3392 86.782H113.397C119.206 86.782 123.933 91.4606 123.933 97.2116V154.09C123.933 159.841 119.206 164.52 113.397 164.52Z" fill="#1D243A"/>
<path d="M32.1903 163.817C31.6925 163.817 31.2876 163.417 31.2876 162.923V88.3716C31.2876 87.8775 31.6925 87.478 32.1903 87.478C32.6894 87.478 33.093 87.8775 33.093 88.3716V162.923C33.093 163.417 32.6894 163.817 32.1903 163.817Z" fill="#1D243A"/>
<path d="M17.8755 113.137H11.4273C10.9295 113.137 10.5245 112.737 10.5245 112.243C10.5245 111.749 10.9295 111.349 11.4273 111.349H17.8755C18.3745 111.349 18.7782 111.749 18.7782 112.243C18.7782 112.737 18.3745 113.137 17.8755 113.137Z" fill="#1D243A"/>
<path d="M17.8755 139.817H11.4273C10.9295 139.817 10.5245 139.418 10.5245 138.924C10.5245 138.43 10.9295 138.03 11.4273 138.03H17.8755C18.3745 138.03 18.7782 138.43 18.7782 138.924C18.7782 139.418 18.3745 139.817 17.8755 139.817Z" fill="#1D243A"/>
<path d="M20.9215 123.403C19.6693 123.403 18.6504 124.411 18.6504 125.651C18.6504 126.89 19.6693 127.899 20.9215 127.899C22.1737 127.899 23.1912 126.89 23.1912 125.651C23.1912 124.411 22.1737 123.403 20.9215 123.403ZM20.9215 129.686C18.6737 129.686 16.845 127.876 16.845 125.651C16.845 123.426 18.6737 121.616 20.9215 121.616C23.168 121.616 24.9967 123.426 24.9967 125.651C24.9967 127.876 23.168 129.686 20.9215 129.686Z" fill="#1D243A"/>
<path d="M33.1086 151.966H106.566C109.137 151.966 111.23 149.894 111.23 147.349V103.953C111.23 101.406 109.137 99.3357 106.566 99.3357H33.1086V151.966ZM106.566 153.753H32.2058C31.7068 153.753 31.3031 153.354 31.3031 152.86V98.4421C31.3031 97.9481 31.7068 97.5485 32.2058 97.5485H106.566C110.133 97.5485 113.036 100.421 113.036 103.953V147.349C113.036 150.88 110.133 153.753 106.566 153.753Z" fill="#1D243A"/>
<path d="M71.5239 111.222H46.3762C45.8785 111.222 45.4735 110.822 45.4735 110.328C45.4735 109.834 45.8785 109.435 46.3762 109.435H71.5239C72.023 109.435 72.4266 109.834 72.4266 110.328C72.4266 110.822 72.023 111.222 71.5239 111.222Z" fill="#1D243A"/>
<path d="M1.80548 126.649L9.95465 127.423V123.879L1.80548 124.653V126.649ZM10.8574 129.299C10.829 129.299 10.8006 129.298 10.7709 129.296L0.816297 128.351C0.353319 128.307 0 127.922 0 127.461V123.841C0 123.38 0.353319 122.994 0.816297 122.951L10.7709 122.006C11.025 121.982 11.2765 122.065 11.4648 122.234C11.6531 122.403 11.7601 122.643 11.7601 122.896V128.406C11.7601 128.658 11.6531 128.898 11.4648 129.067C11.2985 129.218 11.0805 129.299 10.8574 129.299Z" fill="#1D243A"/>
<path d="M31.1587 113.137H26.903C26.4052 113.137 26.0002 112.737 26.0002 112.243C26.0002 111.749 26.4052 111.349 26.903 111.349H31.1587C31.6578 111.349 32.0614 111.749 32.0614 112.243C32.0614 112.737 31.6578 113.137 31.1587 113.137Z" fill="#1D243A"/>
<path d="M31.4166 139.817H26.903C26.4052 139.817 26.0002 139.418 26.0002 138.924C26.0002 138.43 26.4052 138.03 26.903 138.03H31.4166C31.9157 138.03 32.3193 138.43 32.3193 138.924C32.3193 139.418 31.9157 139.817 31.4166 139.817Z" fill="#1D243A"/>
<path d="M90.0946 111.222H87.5153C87.0175 111.222 86.6125 110.822 86.6125 110.328C86.6125 109.834 87.0175 109.435 87.5153 109.435H90.0946C90.5937 109.435 90.9973 109.834 90.9973 110.328C90.9973 110.822 90.5937 111.222 90.0946 111.222Z" fill="#1D243A"/>
<path d="M90.0946 127.179H71.0081C70.5103 127.179 70.1053 126.78 70.1053 126.286C70.1053 125.792 70.5103 125.392 71.0081 125.392H90.0946C90.5937 125.392 90.9973 125.792 90.9973 126.286C90.9973 126.78 90.5937 127.179 90.0946 127.179Z" fill="#1D243A"/>
<path d="M63.5283 127.179H60.949C60.4512 127.179 60.0463 126.78 60.0463 126.286C60.0463 125.792 60.4512 125.392 60.949 125.392H63.5283C64.0274 125.392 64.431 125.792 64.431 126.286C64.431 126.78 64.0274 127.179 63.5283 127.179Z" fill="#1D243A"/>
<path d="M90.3525 143.137H70.1054C69.6076 143.137 69.2026 142.737 69.2026 142.243C69.2026 141.749 69.6076 141.349 70.1054 141.349H90.3525C90.8516 141.349 91.2552 141.749 91.2552 142.243C91.2552 142.737 90.8516 143.137 90.3525 143.137Z" fill="#1D243A"/>
<path d="M97.5744 143.137H95.6399C95.1421 143.137 94.7372 142.737 94.7372 142.243C94.7372 141.749 95.1421 141.349 95.6399 141.349H97.5744C98.0735 141.349 98.4772 141.749 98.4772 142.243C98.4772 142.737 98.0735 143.137 97.5744 143.137Z" fill="#1D243A"/>
<path d="M188.276 38.0605C188.083 38.0605 187.89 37.998 187.722 37.8716C187.322 37.5691 187.258 37.0074 187.567 36.618L196.44 25.328C197.433 24.0604 197.497 22.3051 196.62 20.9608L184.356 2.33951V16.1699C186.381 17.389 187.567 19.6217 187.387 22.0076C187.167 25.0995 184.64 27.5952 181.519 27.8135C179.726 27.9386 178.024 27.345 176.721 26.1425C175.445 24.9578 174.71 23.2804 174.71 21.543C174.71 19.3166 175.857 17.3061 177.753 16.1699V2.33951L165.489 20.9608C164.612 22.3051 164.676 24.0604 165.682 25.328L174.555 36.618C174.851 37.0074 174.787 37.5691 174.387 37.8716C174 38.1742 173.433 38.104 173.123 37.7146L164.251 26.4259C162.781 24.557 162.677 21.9681 163.98 19.9843L176.683 0.708046C177.057 0.125929 177.766 -0.131898 178.437 0.0659701C179.107 0.263839 179.559 0.862511 179.559 1.55697V16.6984C179.559 17.0392 179.365 17.3507 179.056 17.5013C177.482 18.2635 176.515 19.812 176.515 21.543C176.515 22.8055 177.031 23.9736 177.959 24.8352C178.888 25.6957 180.113 26.1208 181.39 26.0301C183.621 25.8744 185.426 24.0897 185.594 21.88C185.723 20.0328 184.73 18.3132 183.053 17.5013C182.744 17.3507 182.551 17.0392 182.551 16.6984V1.55697C182.551 0.862511 183.002 0.263839 183.673 0.0659701C184.343 -0.131898 185.052 0.125929 185.439 0.708046L198.129 19.9843C199.432 21.9681 199.329 24.557 197.858 26.4259L188.986 37.7146C188.805 37.9418 188.547 38.0605 188.276 38.0605Z" fill="#1D243A"/>
<path d="M191.062 44.7485H171.047C169.538 44.7485 168.3 43.532 168.3 42.0371V39.018C168.3 37.5218 169.538 36.3053 171.047 36.3053H177.199C177.689 36.3053 178.101 36.7048 178.101 37.1989C178.101 37.6929 177.689 38.0925 177.199 38.0925H171.047C170.531 38.0925 170.106 38.5073 170.106 39.018V42.0371C170.106 42.5464 170.531 42.9613 171.047 42.9613H191.062C191.578 42.9613 192.003 42.5464 192.003 42.0371V39.018C192.003 38.5073 191.578 38.0925 191.062 38.0925H186.535C186.045 38.0925 185.633 37.6929 185.633 37.1989C185.633 36.7048 186.045 36.3053 186.535 36.3053H191.062C192.571 36.3053 193.809 37.5218 193.809 39.018V42.0371C193.809 43.532 192.571 44.7485 191.062 44.7485Z" fill="#1D243A"/>
<path d="M182.731 87.6602H179.378C175.793 87.6602 172.865 84.7674 172.865 81.2122V43.875C172.865 43.3823 173.278 42.9814 173.768 42.9814C174.271 42.9814 174.671 43.3823 174.671 43.875V81.2122C174.671 83.7819 176.786 85.873 179.378 85.873H182.731C185.323 85.873 187.438 83.7819 187.438 81.2122V43.875C187.438 43.3823 187.838 42.9814 188.341 42.9814C188.844 42.9814 189.244 43.3823 189.244 43.875V81.2122C189.244 84.7674 186.316 87.6602 182.731 87.6602Z" fill="#1D243A"/>
<path d="M182.822 60.9253C182.319 60.9253 181.919 60.5257 181.919 60.0317V43.9469C181.919 43.4529 182.319 43.0533 182.822 43.0533C183.312 43.0533 183.724 43.4529 183.724 43.9469V60.0317C183.724 60.5257 183.312 60.9253 182.822 60.9253Z" fill="#1D243A"/>
<path d="M182.822 78.0312C182.319 78.0312 181.919 77.6317 181.919 77.1376V70.6271C181.919 70.133 182.319 69.7335 182.822 69.7335C183.312 69.7335 183.724 70.133 183.724 70.6271V77.1376C183.724 77.6317 183.312 78.0312 182.822 78.0312Z" fill="#1D243A"/>
<path d="M20.9705 83.9033C20.4727 83.9033 20.0677 83.5038 20.0677 83.0097V81.4778C20.0677 80.9838 20.4727 80.5842 20.9705 80.5842C21.4696 80.5842 21.8733 80.9838 21.8733 81.4778V83.0097C21.8733 83.5038 21.4696 83.9033 20.9705 83.9033Z" fill="#1D243A"/>
<path d="M20.9705 42.0316C20.4727 42.0316 20.0677 41.6321 20.0677 41.138V38.0743C20.0677 37.5802 20.4727 37.1807 20.9705 37.1807C21.4696 37.1807 21.8733 37.5802 21.8733 38.0743V41.138C21.8733 41.6321 21.4696 42.0316 20.9705 42.0316ZM20.9705 50.7123C20.4727 50.7123 20.0677 50.3128 20.0677 49.8187V46.755C20.0677 46.2609 20.4727 45.8614 20.9705 45.8614C21.4696 45.8614 21.8733 46.2609 21.8733 46.755V49.8187C21.8733 50.3128 21.4696 50.7123 20.9705 50.7123ZM20.9705 59.393C20.4727 59.393 20.0677 58.9935 20.0677 58.4994V55.4356C20.0677 54.9416 20.4727 54.542 20.9705 54.542C21.4696 54.542 21.8733 54.9416 21.8733 55.4356V58.4994C21.8733 58.9935 21.4696 59.393 20.9705 59.393ZM20.9705 68.0737C20.4727 68.0737 20.0677 67.6741 20.0677 67.1801V64.1163C20.0677 63.6223 20.4727 63.2227 20.9705 63.2227C21.4696 63.2227 21.8733 63.6223 21.8733 64.1163V67.1801C21.8733 67.6741 21.4696 68.0737 20.9705 68.0737ZM20.9705 76.7544C20.4727 76.7544 20.0677 76.3548 20.0677 75.8608V72.797C20.0677 72.303 20.4727 71.9034 20.9705 71.9034C21.4696 71.9034 21.8733 72.303 21.8733 72.797V75.8608C21.8733 76.3548 21.4696 76.7544 20.9705 76.7544Z" fill="#1D243A"/>
<path d="M20.9705 33.479C20.4727 33.479 20.0677 33.0794 20.0677 32.5854V30.9258C20.0677 30.4318 20.4727 30.0322 20.9705 30.0322H22.518C23.0171 30.0322 23.4208 30.4318 23.4208 30.9258C23.4208 31.4198 23.0171 31.8194 22.518 31.8194H21.8732V32.5854C21.8732 33.0794 21.4696 33.479 20.9705 33.479Z" fill="#1D243A"/>
<path d="M31.5455 31.8193H28.3214C27.8236 31.8193 27.4187 31.4197 27.4187 30.9257C27.4187 30.4316 27.8236 30.032 28.3214 30.032H31.5455C32.0446 30.032 32.4482 30.4316 32.4482 30.9257C32.4482 31.4197 32.0446 31.8193 31.5455 31.8193ZM40.5729 31.8193H37.3488C36.851 31.8193 36.4461 31.4197 36.4461 30.9257C36.4461 30.4316 36.851 30.032 37.3488 30.032H40.5729C41.072 30.032 41.4756 30.4316 41.4756 30.9257C41.4756 31.4197 41.072 31.8193 40.5729 31.8193ZM49.6003 31.8193H46.3762C45.8784 31.8193 45.4735 31.4197 45.4735 30.9257C45.4735 30.4316 45.8784 30.032 46.3762 30.032H49.6003C50.0994 30.032 50.503 30.4316 50.503 30.9257C50.503 31.4197 50.0994 31.8193 49.6003 31.8193ZM58.6277 31.8193H55.4036C54.9058 31.8193 54.5009 31.4197 54.5009 30.9257C54.5009 30.4316 54.9058 30.032 55.4036 30.032H58.6277C59.1268 30.032 59.5304 30.4316 59.5304 30.9257C59.5304 31.4197 59.1268 31.8193 58.6277 31.8193ZM67.6551 31.8193H64.431C63.9332 31.8193 63.5283 31.4197 63.5283 30.9257C63.5283 30.4316 63.9332 30.032 64.431 30.032H67.6551C68.1542 30.032 68.5578 30.4316 68.5578 30.9257C68.5578 31.4197 68.1542 31.8193 67.6551 31.8193ZM76.6825 31.8193H73.4584C72.9606 31.8193 72.5556 31.4197 72.5556 30.9257C72.5556 30.4316 72.9606 30.032 73.4584 30.032H76.6825C77.1815 30.032 77.5852 30.4316 77.5852 30.9257C77.5852 31.4197 77.1815 31.8193 76.6825 31.8193ZM85.7098 31.8193H82.4858C81.988 31.8193 81.583 31.4197 81.583 30.9257C81.583 30.4316 81.988 30.032 82.4858 30.032H85.7098C86.2089 30.032 86.6126 30.4316 86.6126 30.9257C86.6126 31.4197 86.2089 31.8193 85.7098 31.8193ZM94.7372 31.8193H91.5132C91.0154 31.8193 90.6104 31.4197 90.6104 30.9257C90.6104 30.4316 91.0154 30.032 91.5132 30.032H94.7372C95.2363 30.032 95.64 30.4316 95.64 30.9257C95.64 31.4197 95.2363 31.8193 94.7372 31.8193ZM103.765 31.8193H100.541C100.043 31.8193 99.6378 31.4197 99.6378 30.9257C99.6378 30.4316 100.043 30.032 100.541 30.032H103.765C104.264 30.032 104.667 30.4316 104.667 30.9257C104.667 31.4197 104.264 31.8193 103.765 31.8193ZM112.792 31.8193H109.568C109.07 31.8193 108.665 31.4197 108.665 30.9257C108.665 30.4316 109.07 30.032 109.568 30.032H112.792C113.291 30.032 113.695 30.4316 113.695 30.9257C113.695 31.4197 113.291 31.8193 112.792 31.8193ZM121.819 31.8193H118.595C118.098 31.8193 117.693 31.4197 117.693 30.9257C117.693 30.4316 118.098 30.032 118.595 30.032H121.819C122.318 30.032 122.722 30.4316 122.722 30.9257C122.722 31.4197 122.318 31.8193 121.819 31.8193ZM130.847 31.8193H127.623C127.125 31.8193 126.72 31.4197 126.72 30.9257C126.72 30.4316 127.125 30.032 127.623 30.032H130.847C131.346 30.032 131.75 30.4316 131.75 30.9257C131.75 31.4197 131.346 31.8193 130.847 31.8193ZM139.877 31.8193H136.65C136.152 31.8193 135.747 31.4197 135.747 30.9257C135.747 30.4316 136.152 30.032 136.65 30.032H139.877C140.367 30.032 140.78 30.4316 140.78 30.9257C140.78 31.4197 140.367 31.8193 139.877 31.8193Z" fill="#1D243A"/>
<path d="M146.067 33.479C145.564 33.479 145.164 33.0794 145.164 32.5854V31.8194H144.391C143.888 31.8194 143.488 31.4198 143.488 30.9258C143.488 30.4318 143.888 30.0322 144.391 30.0322H146.067C146.557 30.0322 146.97 30.4318 146.97 30.9258V32.5854C146.97 33.0794 146.557 33.479 146.067 33.479Z" fill="#1D243A"/>
<path d="M146.067 42.2869C145.564 42.2869 145.164 41.8873 145.164 41.3933V38.2018C145.164 37.7078 145.564 37.3082 146.067 37.3082C146.557 37.3082 146.97 37.7078 146.97 38.2018V41.3933C146.97 41.8873 146.557 42.2869 146.067 42.2869ZM146.067 51.0952C145.564 51.0952 145.164 50.6956 145.164 50.2016V47.0102C145.164 46.5161 145.564 46.1166 146.067 46.1166C146.557 46.1166 146.97 46.5161 146.97 47.0102V50.2016C146.97 50.6956 146.557 51.0952 146.067 51.0952ZM146.067 59.9036C145.564 59.9036 145.164 59.504 145.164 59.01V55.8185C145.164 55.3245 145.564 54.9249 146.067 54.9249C146.557 54.9249 146.97 55.3245 146.97 55.8185V59.01C146.97 59.504 146.557 59.9036 146.067 59.9036ZM146.067 68.7119C145.564 68.7119 145.164 68.3123 145.164 67.8183V64.6269C145.164 64.1328 145.564 63.7333 146.067 63.7333C146.557 63.7333 146.97 64.1328 146.97 64.6269V67.8183C146.97 68.3123 146.557 68.7119 146.067 68.7119ZM146.067 77.5203C145.564 77.5203 145.164 77.1207 145.164 76.6267V73.4352C145.164 72.9412 145.564 72.5416 146.067 72.5416C146.557 72.5416 146.97 72.9412 146.97 73.4352V76.6267C146.97 77.1207 146.557 77.5203 146.067 77.5203ZM146.067 86.3286C145.564 86.3286 145.164 85.929 145.164 85.435V82.2436C145.164 81.7495 145.564 81.35 146.067 81.35C146.557 81.35 146.97 81.7495 146.97 82.2436V85.435C146.97 85.929 146.557 86.3286 146.067 86.3286ZM146.067 95.137C145.564 95.137 145.164 94.7374 145.164 94.2434V91.0519C145.164 90.5579 145.564 90.1583 146.067 90.1583C146.557 90.1583 146.97 90.5579 146.97 91.0519V94.2434C146.97 94.7374 146.557 95.137 146.067 95.137ZM146.067 103.945C145.564 103.945 145.164 103.546 145.164 103.052V99.8603C145.164 99.3662 145.564 98.9667 146.067 98.9667C146.557 98.9667 146.97 99.3662 146.97 99.8603V103.052C146.97 103.546 146.557 103.945 146.067 103.945Z" fill="#1D243A"/>
<path d="M147.614 111.35H146.067C145.564 111.35 145.164 110.95 145.164 110.456V108.924C145.164 108.43 145.564 108.03 146.067 108.03C146.557 108.03 146.97 108.43 146.97 108.924V109.562H147.614C148.105 109.562 148.517 109.962 148.517 110.456C148.517 110.95 148.105 111.35 147.614 111.35Z" fill="#1D243A"/>
<path d="M156.384 111.35H153.289C152.786 111.35 152.386 110.95 152.386 110.456C152.386 109.962 152.786 109.562 153.289 109.562H156.384C156.874 109.562 157.287 109.962 157.287 110.456C157.287 110.95 156.874 111.35 156.384 111.35ZM165.024 111.35H161.929C161.426 111.35 161.027 110.95 161.027 110.456C161.027 109.962 161.426 109.562 161.929 109.562H165.024C165.514 109.562 165.927 109.962 165.927 110.456C165.927 110.95 165.514 111.35 165.024 111.35ZM173.665 111.35H170.57C170.067 111.35 169.667 110.95 169.667 110.456C169.667 109.962 170.067 109.562 170.57 109.562H173.665C174.155 109.562 174.568 109.962 174.568 110.456C174.568 110.95 174.155 111.35 173.665 111.35Z" fill="#1D243A"/>
<path d="M181.016 111.35H179.339C178.836 111.35 178.437 110.95 178.437 110.456C178.437 109.962 178.836 109.562 179.339 109.562H180.113V108.924C180.113 108.43 180.513 108.03 181.016 108.03C181.506 108.03 181.918 108.43 181.918 108.924V110.456C181.918 110.95 181.506 111.35 181.016 111.35Z" fill="#1D243A"/>
<path d="M181.016 103.308C180.513 103.308 180.113 102.908 180.113 102.414V98.8396C180.113 98.3456 180.513 97.946 181.016 97.946C181.506 97.946 181.919 98.3456 181.919 98.8396V102.414C181.919 102.908 181.506 103.308 181.016 103.308Z" fill="#1D243A"/>
<path d="M181.016 93.3496C180.513 93.3496 180.113 92.9501 180.113 92.456V90.7965C180.113 90.3025 180.513 89.903 181.016 89.903C181.506 89.903 181.919 90.3025 181.919 90.7965V92.456C181.919 92.9501 181.506 93.3496 181.016 93.3496Z" fill="#1D243A"/>
<path d="M112.018 69.6055C111.52 69.6055 111.115 69.2059 111.115 68.7119V62.9673C111.115 62.4733 111.52 62.0737 112.018 62.0737C112.517 62.0737 112.921 62.4733 112.921 62.9673V68.7119C112.921 69.2059 112.517 69.6055 112.018 69.6055Z" fill="#1D243A"/>
<path d="M114.984 66.7974H109.181C108.683 66.7974 108.278 66.3978 108.278 65.9038C108.278 65.4098 108.683 65.0102 109.181 65.0102H114.984C115.483 65.0102 115.887 65.4098 115.887 65.9038C115.887 66.3978 115.483 66.7974 114.984 66.7974Z" fill="#1D243A"/>
<path d="M152.257 142.753C151.754 142.753 151.354 142.354 151.354 141.86V136.115C151.354 135.621 151.754 135.222 152.257 135.222C152.747 135.222 153.16 135.621 153.16 136.115V141.86C153.16 142.354 152.747 142.753 152.257 142.753Z" fill="#1D243A"/>
<path d="M155.223 139.945H149.42C148.917 139.945 148.517 139.545 148.517 139.051C148.517 138.557 148.917 138.158 149.42 138.158H155.223C155.713 138.158 156.126 138.557 156.126 139.051C156.126 139.545 155.713 139.945 155.223 139.945Z" fill="#1D243A"/>
<path d="M84.2912 14.0752C83.7934 14.0752 83.3884 13.6756 83.3884 13.1816V7.43696C83.3884 6.94293 83.7934 6.54336 84.2912 6.54336C84.7903 6.54336 85.194 6.94293 85.194 7.43696V13.1816C85.194 13.6756 84.7903 14.0752 84.2912 14.0752Z" fill="#1D243A"/>
<path d="M87.2573 11.2666H81.4539C80.9561 11.2666 80.5511 10.867 80.5511 10.373C80.5511 9.87901 80.9561 9.47946 81.4539 9.47946H87.2573C87.7564 9.47946 88.16 9.87901 88.16 10.373C88.16 10.867 87.7564 11.2666 87.2573 11.2666Z" fill="#1D243A"/>
<path d="M56.2922 54.2278C56.2922 53.5232 56.8622 52.9513 57.5741 52.9513C58.2872 52.9513 58.8753 53.5232 58.8753 54.2278C58.8753 54.9338 58.2407 55.5044 57.5959 55.5044V55.5057C57.5959 55.5057 57.5959 55.5044 57.5959 55.5057C57.5959 55.5057 56.2922 54.9338 56.2922 54.2278ZM60.6549 56.6929C60.1301 56.2167 60.0939 55.4086 60.5762 54.8891C61.0573 54.3695 61.8724 54.335 62.3985 54.8112C62.9234 55.2874 62.9582 56.0954 62.4771 56.615C62.2231 56.8895 61.8749 57.0286 61.5267 57.0286C61.2146 57.0286 60.9025 56.9176 60.6549 56.6929ZM52.489 56.8614C51.9835 56.3661 51.9784 55.558 52.4788 55.0563C52.9791 54.5546 53.7954 54.5495 54.3023 55.0448C54.8091 55.5401 54.8142 56.3495 54.3138 56.8499C54.0611 57.1039 53.7284 57.2303 53.3957 57.2303C53.0681 57.2303 52.7405 57.1078 52.489 56.8614ZM62.1367 59.8409C62.1096 59.1362 62.6655 58.5554 63.3773 58.5286C64.0892 58.5031 64.6876 59.0392 64.7134 59.7426C64.7405 60.4473 64.1846 61.0524 63.4728 61.0524C63.456 61.0524 63.4406 61.0524 63.4238 61.0524C62.7338 61.0524 62.1625 60.5302 62.1367 59.8409ZM50.4154 60.1473C50.4076 59.4413 50.9776 58.8503 51.6895 58.8414C52.4013 58.8324 52.9856 59.4171 52.9946 60.123C53.0036 60.8277 52.4336 61.4353 51.7217 61.4353C51.7153 61.4353 51.7101 61.4353 51.705 61.4353C50.9996 61.4353 50.4244 60.8456 50.4154 60.1473ZM60.9567 64.9344C60.4383 64.4519 60.4125 63.6438 60.9 63.1293C61.3874 62.6162 62.2037 62.5919 62.7235 63.0745C63.2419 63.5583 63.2677 64.3714 62.779 64.8821H62.7802C62.5261 65.1374 62.1831 65.2817 61.8401 65.2817C61.5228 65.2817 61.2056 65.1655 60.9567 64.9344ZM52.6051 65.1297C52.0931 64.6408 52.0777 63.8327 52.5716 63.3247C53.0656 62.8166 53.8819 62.8025 54.3951 63.2915C54.9084 63.7804 54.9226 64.5885 54.4287 65.0966C54.1759 65.357 53.838 65.4872 53.5002 65.4872C53.1778 65.4872 52.8553 65.3685 52.6051 65.1297ZM56.425 65.8357C56.4069 65.131 56.9705 64.5591 57.6824 64.5425C58.3942 64.5246 58.9861 65.0595 59.0029 65.7655C59.021 66.4701 58.4574 67.0522 57.7455 67.0522C57.7339 67.0522 57.7236 67.0522 57.7133 67.0522C57.0156 67.0522 56.4418 66.5288 56.425 65.8357Z" fill="#1D243A"/>
<path d="M191.565 148.822C191.565 148.117 192.132 147.545 192.855 147.545C193.564 147.545 194.144 148.117 194.144 148.822C194.144 149.528 193.564 150.099 192.855 150.099C192.132 150.099 191.565 149.528 191.565 148.822ZM195.937 151.287C195.408 150.811 195.382 150.004 195.859 149.485C196.336 148.964 197.149 148.929 197.678 149.405C198.206 149.882 198.245 150.69 197.755 151.209C197.51 151.484 197.162 151.623 196.814 151.623C196.491 151.623 196.182 151.512 195.937 151.287ZM187.773 151.456C187.27 150.96 187.258 150.152 187.761 149.651C188.263 149.149 189.076 149.144 189.579 149.639C190.095 150.134 190.095 150.944 189.592 151.445C189.347 151.698 189.011 151.825 188.676 151.825C188.354 151.825 188.018 151.702 187.773 151.456ZM197.42 154.435C197.394 153.73 197.949 153.148 198.658 153.123C199.367 153.097 199.973 153.632 199.999 154.337C200.025 155.042 199.47 155.647 198.748 155.647C198.735 155.647 198.722 155.647 198.709 155.647C198.013 155.647 197.446 155.124 197.42 154.435ZM185.697 154.74C185.684 154.036 186.265 153.445 186.974 153.436C187.683 153.427 188.263 154.011 188.276 154.717C188.289 155.422 187.709 156.03 187 156.03H186.987C186.277 156.03 185.71 155.44 185.697 154.74ZM196.233 159.529C195.717 159.046 195.692 158.238 196.182 157.724C196.672 157.21 197.484 157.185 198 157.669C198.529 158.15 198.555 158.958 198.065 159.472C197.807 159.739 197.458 159.875 197.123 159.875C196.801 159.875 196.491 159.76 196.233 159.529ZM187.889 159.724C187.374 159.235 187.361 158.427 187.851 157.919C188.341 157.411 189.166 157.397 189.682 157.886C190.185 158.375 190.211 159.183 189.708 159.691C189.463 159.95 189.115 160.081 188.779 160.081C188.457 160.081 188.134 159.963 187.889 159.724ZM191.707 160.43C191.694 159.724 192.248 159.153 192.958 159.137C193.68 159.119 194.273 159.655 194.286 160.36C194.299 161.064 193.744 161.646 193.022 161.646C193.022 161.646 193.009 161.646 192.996 161.646C192.3 161.646 191.72 161.124 191.707 160.43Z" fill="#1D243A"/>
<path d="M9.59347 1.50566C9.59347 0.800992 10.1699 0.22909 10.8831 0.22909C11.595 0.22909 12.1727 0.800992 12.1727 1.50566C12.1727 2.2116 11.595 2.78223 10.8831 2.78223C10.1699 2.78223 9.59347 2.2116 9.59347 1.50566ZM13.9705 3.97073C13.4456 3.49457 13.4107 2.68777 13.8918 2.16693C14.3728 1.64737 15.1892 1.61293 15.7141 2.08909C16.239 2.56525 16.2737 3.37328 15.7927 3.89284C15.5386 4.1673 15.1905 4.30648 14.8423 4.30648C14.5302 4.30648 14.2181 4.19541 13.9705 3.97073ZM5.80579 4.13923C5.29896 3.64392 5.29382 2.83587 5.7942 2.33418C6.29458 1.83249 7.11089 1.82735 7.61772 2.32266C8.12454 2.81797 8.12968 3.62734 7.6293 4.12776C7.37653 4.38179 7.04387 4.50818 6.71115 4.50818C6.38358 4.50818 6.05597 4.3856 5.80579 4.13923ZM15.4522 7.11877C15.4251 6.4141 15.981 5.83198 16.6929 5.80644C17.4048 5.78091 18.0032 6.31704 18.029 7.02043C18.056 7.7251 17.5002 8.33021 16.7883 8.33021C16.7715 8.33021 16.7561 8.33021 16.7393 8.33021C16.0494 8.33021 15.478 7.80811 15.4522 7.11877ZM3.73079 7.42514C3.72305 6.72048 4.29303 6.12814 5.0049 6.1192C5.71678 6.11027 6.30102 6.69492 6.31005 7.40086C6.31908 8.10552 5.7491 8.71318 5.03594 8.71318C5.03078 8.71318 5.02558 8.71318 5.02042 8.71318C4.31628 8.71318 3.73982 8.1247 3.73079 7.42514ZM14.2722 12.2123C13.7538 11.7297 13.728 10.9216 14.2155 10.4072C14.703 9.89399 15.5193 9.86973 16.039 10.3523C16.5574 10.8374 16.5833 11.6493 16.0945 12.1599H16.0957C15.8417 12.4152 15.4986 12.5607 15.1556 12.5607C14.8384 12.5607 14.5211 12.4433 14.2722 12.2123ZM5.92054 12.4075C5.40856 11.9186 5.39316 11.1106 5.88709 10.6025C6.38102 10.0944 7.19734 10.0804 7.71061 10.5693C8.22388 11.0582 8.23809 11.8663 7.74416 12.3744C7.49139 12.6335 7.15351 12.765 6.81563 12.765C6.49322 12.765 6.17073 12.6463 5.92054 12.4075ZM9.74047 13.1135C9.72241 12.4088 10.286 11.837 10.9979 11.8191C11.7097 11.8025 12.3004 12.3399 12.3184 13.0433C12.3365 13.748 11.7729 14.3301 11.061 14.3301C11.0494 14.3301 11.0391 14.3301 11.0288 14.3301C10.3311 14.3301 9.75723 13.8067 9.74047 13.1135Z" fill="#1D243A"/>
</svg>
