<svg width="200" height="165" viewBox="0 0 200 165" fill="none" xmlns="http://www.w3.org/2000/svg">
<path d="M6.32671 160.399C5.23798 160.399 4.35618 159.517 4.35618 158.429C4.35618 157.34 5.23798 156.458 6.32671 156.458C7.41419 156.458 8.29724 157.34 8.29724 158.429C8.29724 159.517 7.41419 160.399 6.32671 160.399ZM17.6869 39.0804H3.56342C2.09463 39.0804 0.904297 40.2708 0.904297 41.7396V160.974C0.904297 162.442 2.09463 163.633 3.56342 163.633H17.6869C19.1557 163.633 20.346 162.442 20.346 160.974V41.7396C20.346 40.2708 19.1557 39.0804 17.6869 39.0804Z" fill="#E8C81D"/>
<path d="M92.6716 68.6431H107.509L100.091 58.7153L92.6716 68.6431Z" fill="#E8C81D"/>
<path d="M100.091 134.966L107.509 125.039H92.6716L100.091 134.966Z" fill="#E8C81D"/>
<path d="M58.339 47.1705C57.1612 47.1705 56.2067 46.216 56.2067 45.0382C56.2067 43.8604 57.1612 42.9059 58.339 42.9059C59.5168 42.9059 60.4714 43.8604 60.4714 45.0382C60.4714 46.216 59.5168 47.1705 58.339 47.1705ZM48.2921 47.1705C47.1143 47.1705 46.1598 46.216 46.1598 45.0382C46.1598 43.8604 47.1143 42.9059 48.2921 42.9059C49.4699 42.9059 50.4244 43.8604 50.4244 45.0382C50.4244 46.216 49.4699 47.1705 48.2921 47.1705ZM156.615 38.9548H44.6258C42.274 38.9548 40.415 40.8965 40.415 43.2483V50.6199H160.828V43.2483C160.828 40.8965 158.967 38.9548 156.615 38.9548Z" fill="#CCCCCC"/>
<path d="M133.07 8.92934C131.885 8.92934 130.924 7.96857 130.924 6.78325C130.924 5.59793 131.885 4.63712 133.07 4.63712C134.256 4.63712 135.216 5.59793 135.216 6.78325C135.216 7.96857 134.256 8.92934 133.07 8.92934ZM124.438 8.92934C123.253 8.92934 122.292 7.96857 122.292 6.78325C122.292 5.59793 123.253 4.63712 124.438 4.63712C125.623 4.63712 126.584 5.59793 126.584 6.78325C126.584 7.96857 125.623 8.92934 124.438 8.92934ZM194.833 0.824034H121.931C119.583 0.824034 117.68 2.78077 117.68 5.12757V13.1162H199.084V5.12757C199.084 2.78077 197.181 0.824034 194.833 0.824034Z" fill="#CCCCCC"/>
<path d="M44.731 39.8681C42.8094 39.8681 41.2453 41.4309 41.2453 43.3525V138.671C41.2453 140.592 42.8094 142.157 44.731 142.157H156.51C158.431 142.157 159.995 140.592 159.995 138.671V43.3525C159.995 41.4309 158.431 39.8681 156.51 39.8681H44.731ZM156.51 143.913H44.731C41.8411 143.913 39.4893 141.561 39.4893 138.671V43.3525C39.4893 40.4626 41.8411 38.1121 44.731 38.1121H156.51C159.399 38.1121 161.751 40.4626 161.751 43.3525V138.671C161.751 141.561 159.399 143.913 156.51 143.913Z" fill="#1D243A"/>
<path d="M51.1279 77.679C50.8055 77.679 50.5434 77.9412 50.5434 78.2635V115.419C50.5434 115.741 50.8055 116.003 51.1279 116.003H149.054C149.376 116.003 149.638 115.741 149.638 115.419V78.2635C149.638 77.9412 149.376 77.679 149.054 77.679H51.1279ZM149.054 117.759H51.1279C49.8372 117.759 48.7874 116.709 48.7874 115.419V78.2635C48.7874 76.9728 49.8372 75.923 51.1279 75.923H149.054C150.345 75.923 151.395 76.9728 151.395 78.2635V115.419C151.395 116.709 150.345 117.759 149.054 117.759Z" fill="#1D243A"/>
<path d="M160.201 51.498H41.4183C40.9341 51.498 40.5403 51.1054 40.5403 50.62C40.5403 50.1346 40.9341 49.742 41.4183 49.742H160.201C160.686 49.742 161.079 50.1346 161.079 50.62C161.079 51.1054 160.686 51.498 160.201 51.498Z" fill="#1D243A"/>
<path d="M66.0028 51.2471C65.5186 51.2471 65.1248 50.8545 65.1248 50.3691V39.7075C65.1248 39.2221 65.5186 38.8295 66.0028 38.8295C66.4882 38.8295 66.8808 39.2221 66.8808 39.7075V50.3691C66.8808 50.8545 66.4882 51.2471 66.0028 51.2471Z" fill="#1D243A"/>
<path d="M130.976 44.2229H69.6402C69.1561 44.2229 68.7622 43.8303 68.7622 43.3449C68.7622 42.8595 69.1561 42.4669 69.6402 42.4669H130.976C131.461 42.4669 131.854 42.8595 131.854 43.3449C131.854 43.8303 131.461 44.2229 130.976 44.2229Z" fill="#1D243A"/>
<path d="M81.807 47.8604H69.6402C69.1561 47.8604 68.7622 47.4678 68.7622 46.9823C68.7622 46.4969 69.1561 46.1043 69.6402 46.1043H81.807C82.2924 46.1043 82.685 46.4969 82.685 46.9823C82.685 47.4678 82.2924 47.8604 81.807 47.8604Z" fill="#1D243A"/>
<path d="M94.4253 67.765H105.757L100.091 60.1827L94.4253 67.765ZM107.509 69.521H92.6731C92.3407 69.521 92.0359 69.3328 91.8878 69.0356C91.7386 68.7396 91.7699 68.3833 91.9694 68.1174L99.3873 58.1909C99.5529 57.9688 99.8138 57.8372 100.091 57.8372C100.368 57.8372 100.629 57.9688 100.795 58.1909L108.213 68.1174C108.412 68.3833 108.443 68.7396 108.294 69.0356C108.145 69.3328 107.841 69.521 107.509 69.521Z" fill="#1D243A"/>
<path d="M94.4253 125.917L100.091 133.499L105.757 125.917H94.4253ZM100.091 135.844C99.8138 135.844 99.5529 135.713 99.3873 135.492L91.9694 125.564C91.7699 125.299 91.7386 124.942 91.8878 124.645C92.0359 124.349 92.3407 124.161 92.6731 124.161H107.509C107.841 124.161 108.145 124.349 108.294 124.645C108.443 124.942 108.412 125.299 108.213 125.564L100.795 135.492C100.629 135.713 100.368 135.844 100.091 135.844Z" fill="#1D243A"/>
<path d="M149.187 117.232C149.079 117.232 148.97 117.212 148.863 117.169L118.743 105.198C118.292 105.019 118.071 104.509 118.251 104.058C118.43 103.608 118.941 103.387 119.391 103.567L149.512 115.538C149.962 115.717 150.183 116.227 150.004 116.678C149.867 117.021 149.536 117.232 149.187 117.232Z" fill="#1D243A"/>
<path d="M82.2371 90.6235C82.1292 90.6235 82.0189 90.6035 81.9122 90.5608L50.67 78.1445C50.2197 77.9651 49.999 77.4546 50.1784 77.0043C50.3577 76.554 50.8682 76.3333 51.3185 76.5126L82.5607 88.929C83.0122 89.1083 83.2317 89.6188 83.0524 90.0704C82.9157 90.414 82.5858 90.6235 82.2371 90.6235Z" fill="#1D243A"/>
<path d="M50.9948 117.232C50.6449 117.232 50.3151 117.021 50.1784 116.678C49.999 116.227 50.2197 115.717 50.67 115.538L81.9122 103.121C82.3638 102.942 82.8743 103.161 83.0524 103.612C83.2317 104.063 83.0122 104.574 82.5607 104.753L51.3185 117.169C51.2119 117.212 51.1027 117.232 50.9948 117.232Z" fill="#1D243A"/>
<path d="M119.067 90.1782C118.717 90.1782 118.388 89.9675 118.251 89.6238C118.071 89.1735 118.292 88.663 118.743 88.4836L148.863 76.5126C149.314 76.3332 149.824 76.554 150.004 77.0043C150.183 77.4546 149.962 77.9651 149.512 78.1444L119.391 90.1155C119.284 90.1582 119.175 90.1782 119.067 90.1782Z" fill="#1D243A"/>
<path d="M48.2918 43.784C47.6007 43.784 47.0375 44.3471 47.0375 45.0383C47.0375 45.7294 47.6007 46.2926 48.2918 46.2926C48.9829 46.2926 49.5461 45.7294 49.5461 45.0383C49.5461 44.3471 48.9829 43.784 48.2918 43.784ZM48.2918 48.0486C46.6324 48.0486 45.2815 46.6977 45.2815 45.0383C45.2815 43.3788 46.6324 42.0279 48.2918 42.0279C49.9513 42.0279 51.3022 43.3788 51.3022 45.0383C51.3022 46.6977 49.9513 48.0486 48.2918 48.0486Z" fill="#1D243A"/>
<path d="M58.3389 43.784C57.6478 43.784 57.0846 44.3471 57.0846 45.0383C57.0846 45.7294 57.6478 46.2926 58.3389 46.2926C59.0301 46.2926 59.5932 45.7294 59.5932 45.0383C59.5932 44.3471 59.0301 43.784 58.3389 43.784ZM58.3389 48.0486C56.6795 48.0486 55.3286 46.6977 55.3286 45.0383C55.3286 43.3788 56.6795 42.0279 58.3389 42.0279C59.9984 42.0279 61.3493 43.3788 61.3493 45.0383C61.3493 46.6977 59.9984 48.0486 58.3389 48.0486Z" fill="#1D243A"/>
<path d="M194.308 108.161H162.056C161.571 108.161 161.178 107.767 161.178 107.283C161.178 106.798 161.571 106.405 162.056 106.405H194.308C196.478 106.405 198.244 104.639 198.244 102.469V5.66947C198.244 3.51081 196.488 1.75604 194.329 1.75604H122.471C120.313 1.75604 118.558 3.51081 118.558 5.66947V37.7194C118.558 38.2048 118.164 38.5974 117.68 38.5974C117.195 38.5974 116.802 38.2048 116.802 37.7194V5.66947C116.802 2.54374 119.344 1.33196e-05 122.471 1.33196e-05H194.329C197.456 1.33196e-05 200 2.54374 200 5.66947V102.469C200 105.607 197.446 108.161 194.308 108.161Z" fill="#1D243A"/>
<path d="M186.541 13.9941H117.68C117.196 13.9941 116.802 13.6015 116.802 13.1161C116.802 12.6307 117.196 12.2381 117.68 12.2381H186.541C187.027 12.2381 187.419 12.6307 187.419 13.1161C187.419 13.6015 187.027 13.9941 186.541 13.9941Z" fill="#1D243A"/>
<path d="M139.881 12.8655C139.397 12.8655 139.003 12.4729 139.003 11.9875V1.45131C139.003 0.965899 139.397 0.573302 139.881 0.573302C140.367 0.573302 140.759 0.965899 140.759 1.45131V11.9875C140.759 12.4729 140.367 12.8655 139.881 12.8655Z" fill="#1D243A"/>
<path d="M124.438 5.51516C123.74 5.51516 123.17 6.08463 123.17 6.78328C123.17 7.48318 123.74 8.05135 124.438 8.05135C125.138 8.05135 125.706 7.48318 125.706 6.78328C125.706 6.08463 125.138 5.51516 124.438 5.51516ZM124.438 9.80737C122.771 9.80737 121.414 8.4515 121.414 6.78328C121.414 5.11631 122.771 3.75913 124.438 3.75913C126.106 3.75913 127.462 5.11631 127.462 6.78328C127.462 8.4515 126.106 9.80737 124.438 9.80737Z" fill="#1D243A"/>
<path d="M133.07 5.51516C132.371 5.51516 131.802 6.08463 131.802 6.78328C131.802 7.48318 132.371 8.05135 133.07 8.05135C133.769 8.05135 134.339 7.48318 134.339 6.78328C134.339 6.08463 133.769 5.51516 133.07 5.51516ZM133.07 9.80737C131.402 9.80737 130.046 8.4515 130.046 6.78328C130.046 5.11631 131.402 3.75913 133.07 3.75913C134.737 3.75913 136.095 5.11631 136.095 6.78328C136.095 8.4515 134.737 9.80737 133.07 9.80737Z" fill="#1D243A"/>
<path d="M182.904 5.71582H144.648C144.163 5.71582 143.77 5.32322 143.77 4.83781C143.77 4.35239 144.163 3.9598 144.648 3.9598H182.904C183.389 3.9598 183.782 4.35239 183.782 4.83781C183.782 5.32322 183.389 5.71582 182.904 5.71582Z" fill="#1D243A"/>
<path d="M158.319 9.85498H144.648C144.163 9.85498 143.77 9.46238 143.77 8.97697C143.77 8.49155 144.163 8.09896 144.648 8.09896H158.319C158.805 8.09896 159.197 8.49155 159.197 8.97697C159.197 9.46238 158.805 9.85498 158.319 9.85498Z" fill="#1D243A"/>
<path d="M199.084 13.9941H194.82C194.336 13.9941 193.942 13.6015 193.942 13.1161C193.942 12.6307 194.336 12.2381 194.82 12.2381H199.084C199.57 12.2381 199.962 12.6307 199.962 13.1161C199.962 13.6015 199.57 13.9941 199.084 13.9941Z" fill="#1D243A"/>
<path d="M194.145 44.7273H161.868C161.383 44.7273 160.99 44.3347 160.99 43.8493C160.99 43.3651 161.383 42.9713 161.868 42.9713H193.267V21.4913H123.534V37.9077C123.534 38.3931 123.141 38.7857 122.656 38.7857C122.172 38.7857 121.778 38.3931 121.778 37.9077V20.6133C121.778 20.1279 122.172 19.7353 122.656 19.7353H194.145C194.63 19.7353 195.023 20.1279 195.023 20.6133V43.8493C195.023 44.3347 194.63 44.7273 194.145 44.7273Z" fill="#1D243A"/>
<path d="M194.193 55.1355H167.35C166.866 55.1355 166.472 54.7429 166.472 54.2575C166.472 53.7721 166.866 53.3795 167.35 53.3795H194.193C194.678 53.3795 195.071 53.7721 195.071 54.2575C195.071 54.7429 194.678 55.1355 194.193 55.1355Z" fill="#1D243A"/>
<path d="M194.193 63.2883H167.35C166.866 63.2883 166.472 62.8957 166.472 62.4103C166.472 61.9249 166.866 61.5323 167.35 61.5323H194.193C194.678 61.5323 195.071 61.9249 195.071 62.4103C195.071 62.8957 194.678 63.2883 194.193 63.2883Z" fill="#1D243A"/>
<path d="M194.193 71.3159H167.35C166.866 71.3159 166.472 70.9233 166.472 70.4379C166.472 69.9525 166.866 69.5599 167.35 69.5599H194.193C194.678 69.5599 195.071 69.9525 195.071 70.4379C195.071 70.9233 194.678 71.3159 194.193 71.3159Z" fill="#1D243A"/>
<path d="M194.193 79.5942H167.35C166.866 79.5942 166.472 79.2016 166.472 78.7162C166.472 78.2308 166.866 77.8382 167.35 77.8382H194.193C194.678 77.8382 195.071 78.2308 195.071 78.7162C195.071 79.2016 194.678 79.5942 194.193 79.5942Z" fill="#1D243A"/>
<path d="M194.193 87.6218H167.35C166.866 87.6218 166.472 87.2292 166.472 86.7438C166.472 86.2584 166.866 85.8658 167.35 85.8658H194.193C194.678 85.8658 195.071 86.2584 195.071 86.7438C195.071 87.2292 194.678 87.6218 194.193 87.6218Z" fill="#1D243A"/>
<path d="M194.193 99.4124H161.706C161.222 99.4124 160.828 99.0198 160.828 98.5343C160.828 98.0489 161.222 97.6563 161.706 97.6563H194.193C194.678 97.6563 195.071 98.0489 195.071 98.5343C195.071 99.0198 194.678 99.4124 194.193 99.4124Z" fill="#1D243A"/>
<path d="M3.53714 39.9094C2.55502 39.9094 1.75603 40.7083 1.75603 41.6905V160.986C1.75603 161.968 2.55502 162.767 3.53714 162.767H17.6931C18.6753 162.767 19.4742 161.968 19.4742 160.986V41.6905C19.4742 40.7083 18.6753 39.9094 17.6931 39.9094H3.53714ZM17.6931 164.523H3.53714C1.58669 164.523 0 162.936 0 160.986V41.6905C0 39.74 1.58669 38.1533 3.53714 38.1533H17.6931C19.6436 38.1533 21.2303 39.74 21.2303 41.6905V160.986C21.2303 162.936 19.6436 164.523 17.6931 164.523Z" fill="#1D243A"/>
<path d="M19.9698 47.4841H10.4371C9.95293 47.4841 9.55908 47.0915 9.55908 46.6061C9.55908 46.1207 9.95293 45.7281 10.4371 45.7281H19.9698C20.4552 45.7281 20.8478 46.1207 20.8478 46.6061C20.8478 47.0915 20.4552 47.4841 19.9698 47.4841Z" fill="#1D243A"/>
<path d="M19.9697 54.6338H15.5797C15.0955 54.6338 14.7017 54.2412 14.7017 53.7558C14.7017 53.2704 15.0955 52.8778 15.5797 52.8778H19.9697C20.4552 52.8778 20.8477 53.2704 20.8477 53.7558C20.8477 54.2412 20.4552 54.6338 19.9697 54.6338Z" fill="#1D243A"/>
<path d="M19.9698 62.0342H10.4371C9.95293 62.0342 9.55908 61.6416 9.55908 61.1562C9.55908 60.6708 9.95293 60.2782 10.4371 60.2782H19.9698C20.4552 60.2782 20.8478 60.6708 20.8478 61.1562C20.8478 61.6416 20.4552 62.0342 19.9698 62.0342Z" fill="#1D243A"/>
<path d="M19.9697 69.5598H15.5797C15.0955 69.5598 14.7017 69.1672 14.7017 68.6818C14.7017 68.1964 15.0955 67.8038 15.5797 67.8038H19.9697C20.4552 67.8038 20.8477 68.1964 20.8477 68.6818C20.8477 69.1672 20.4552 69.5598 19.9697 69.5598Z" fill="#1D243A"/>
<path d="M19.9698 76.7095H10.4371C9.95293 76.7095 9.55908 76.3169 9.55908 75.8315C9.55908 75.346 9.95293 74.9534 10.4371 74.9534H19.9698C20.4552 74.9534 20.8478 75.346 20.8478 75.8315C20.8478 76.3169 20.4552 76.7095 19.9698 76.7095Z" fill="#1D243A"/>
<path d="M19.9697 84.1099H15.5797C15.0955 84.1099 14.7017 83.7173 14.7017 83.2319C14.7017 82.7464 15.0955 82.3538 15.5797 82.3538H19.9697C20.4552 82.3538 20.8477 82.7464 20.8477 83.2319C20.8477 83.7173 20.4552 84.1099 19.9697 84.1099Z" fill="#1D243A"/>
<path d="M19.9698 91.5103H10.4371C9.95293 91.5103 9.55908 91.1177 9.55908 90.6322C9.55908 90.1468 9.95293 89.7542 10.4371 89.7542H19.9698C20.4552 89.7542 20.8478 90.1468 20.8478 90.6322C20.8478 91.1177 20.4552 91.5103 19.9698 91.5103Z" fill="#1D243A"/>
<path d="M19.9697 98.6597H15.5797C15.0955 98.6597 14.7017 98.2671 14.7017 97.7817C14.7017 97.2962 15.0955 96.9036 15.5797 96.9036H19.9697C20.4552 96.9036 20.8477 97.2962 20.8477 97.7817C20.8477 98.2671 20.4552 98.6597 19.9697 98.6597Z" fill="#1D243A"/>
<path d="M19.9698 106.06H10.4371C9.95293 106.06 9.55908 105.667 9.55908 105.182C9.55908 104.697 9.95293 104.304 10.4371 104.304H19.9698C20.4552 104.304 20.8478 104.697 20.8478 105.182C20.8478 105.667 20.4552 106.06 19.9698 106.06Z" fill="#1D243A"/>
<path d="M19.9697 113.21H15.5797C15.0955 113.21 14.7017 112.817 14.7017 112.332C14.7017 111.846 15.0955 111.454 15.5797 111.454H19.9697C20.4552 111.454 20.8477 111.846 20.8477 112.332C20.8477 112.817 20.4552 113.21 19.9697 113.21Z" fill="#1D243A"/>
<path d="M19.9698 120.61H10.4371C9.95293 120.61 9.55908 120.218 9.55908 119.732C9.55908 119.247 9.95293 118.854 10.4371 118.854H19.9698C20.4552 118.854 20.8478 119.247 20.8478 119.732C20.8478 120.218 20.4552 120.61 19.9698 120.61Z" fill="#1D243A"/>
<path d="M19.9697 128.136H15.5797C15.0955 128.136 14.7017 127.743 14.7017 127.258C14.7017 126.773 15.0955 126.38 15.5797 126.38H19.9697C20.4552 126.38 20.8477 126.773 20.8477 127.258C20.8477 127.743 20.4552 128.136 19.9697 128.136Z" fill="#1D243A"/>
<path d="M19.9698 135.411H10.4371C9.95293 135.411 9.55908 135.018 9.55908 134.533C9.55908 134.047 9.95293 133.655 10.4371 133.655H19.9698C20.4552 133.655 20.8478 134.047 20.8478 134.533C20.8478 135.018 20.4552 135.411 19.9698 135.411Z" fill="#1D243A"/>
<path d="M19.9697 142.686H15.5797C15.0955 142.686 14.7017 142.293 14.7017 141.808C14.7017 141.322 15.0955 140.93 15.5797 140.93H19.9697C20.4552 140.93 20.8477 141.322 20.8477 141.808C20.8477 142.293 20.4552 142.686 19.9697 142.686Z" fill="#1D243A"/>
<path d="M19.9698 150.212H10.4371C9.95293 150.212 9.55908 149.819 9.55908 149.334C9.55908 148.848 9.95293 148.456 10.4371 148.456H19.9698C20.4552 148.456 20.8478 148.848 20.8478 149.334C20.8478 149.819 20.4552 150.212 19.9698 150.212Z" fill="#1D243A"/>
<path d="M19.9697 157.487H15.5797C15.0955 157.487 14.7017 157.094 14.7017 156.609C14.7017 156.123 15.0955 155.731 15.5797 155.731H19.9697C20.4552 155.731 20.8477 156.123 20.8477 156.609C20.8477 157.094 20.4552 157.487 19.9697 157.487Z" fill="#1D243A"/>
<path d="M6.32681 157.336C5.72349 157.336 5.2343 157.827 5.2343 158.429C5.2343 159.031 5.72349 159.521 6.32681 159.521C6.92888 159.521 7.41933 159.031 7.41933 158.429C7.41933 157.827 6.92888 157.336 6.32681 157.336ZM6.32681 161.277C4.75517 161.277 3.47827 159.999 3.47827 158.429C3.47827 156.858 4.75517 155.58 6.32681 155.58C7.8972 155.58 9.17536 156.858 9.17536 158.429C9.17536 159.999 7.8972 161.277 6.32681 161.277Z" fill="#1D243A"/>
<path d="M10.5626 35.1919C10.0784 35.1919 9.68457 34.7993 9.68457 34.3139V32.8087C9.68457 32.3233 10.0784 31.9307 10.5626 31.9307C11.048 31.9307 11.4406 32.3233 11.4406 32.8087V34.3139C11.4406 34.7993 11.048 35.1919 10.5626 35.1919Z" fill="#1D243A"/>
<path d="M10.5626 26.5374C10.0784 26.5374 9.68457 26.1448 9.68457 25.6593V21.771C9.68457 21.2856 10.0784 20.893 10.5626 20.893C11.048 20.893 11.4406 21.2856 11.4406 21.771V25.6593C11.4406 26.1448 11.048 26.5374 10.5626 26.5374Z" fill="#1D243A"/>
<path d="M10.5626 15.6248C10.0784 15.6248 9.68457 15.2322 9.68457 14.7467V13.1161C9.68457 12.6307 10.0784 12.2381 10.5626 12.2381H12.0677C12.5532 12.2381 12.9458 12.6307 12.9458 13.1161C12.9458 13.6016 12.5532 13.9942 12.0677 13.9942H11.4406V14.7467C11.4406 15.2322 11.048 15.6248 10.5626 15.6248Z" fill="#1D243A"/>
<path d="M20.9732 13.9941H17.8375C17.3533 13.9941 16.9595 13.6015 16.9595 13.1161C16.9595 12.6307 17.3533 12.2381 17.8375 12.2381H20.9732C21.4587 12.2381 21.8513 12.6307 21.8513 13.1161C21.8513 13.6015 21.4587 13.9941 20.9732 13.9941ZM29.7534 13.9941H26.6176C26.1335 13.9941 25.7396 13.6015 25.7396 13.1161C25.7396 12.6307 26.1335 12.2381 26.6176 12.2381H29.7534C30.2388 12.2381 30.6314 12.6307 30.6314 13.1161C30.6314 13.6015 30.2388 13.9941 29.7534 13.9941ZM38.5335 13.9941H35.3977C34.9136 13.9941 34.5197 13.6015 34.5197 13.1161C34.5197 12.6307 34.9136 12.2381 35.3977 12.2381H38.5335C39.0189 12.2381 39.4115 12.6307 39.4115 13.1161C39.4115 13.6015 39.0189 13.9941 38.5335 13.9941ZM47.3136 13.9941H44.1779C43.6937 13.9941 43.2999 13.6015 43.2999 13.1161C43.2999 12.6307 43.6937 12.2381 44.1779 12.2381H47.3136C47.799 12.2381 48.1916 12.6307 48.1916 13.1161C48.1916 13.6015 47.799 13.9941 47.3136 13.9941ZM56.0938 13.9941H52.958C52.4738 13.9941 52.08 13.6015 52.08 13.1161C52.08 12.6307 52.4738 12.2381 52.958 12.2381H56.0938C56.5792 12.2381 56.9718 12.6307 56.9718 13.1161C56.9718 13.6015 56.5792 13.9941 56.0938 13.9941ZM64.8739 13.9941H61.7381C61.254 13.9941 60.8601 13.6015 60.8601 13.1161C60.8601 12.6307 61.254 12.2381 61.7381 12.2381H64.8739C65.3593 12.2381 65.7519 12.6307 65.7519 13.1161C65.7519 13.6015 65.3593 13.9941 64.8739 13.9941ZM73.654 13.9941H70.5182C70.0341 13.9941 69.6402 13.6015 69.6402 13.1161C69.6402 12.6307 70.0341 12.2381 70.5182 12.2381H73.654C74.1394 12.2381 74.532 12.6307 74.532 13.1161C74.532 13.6015 74.1394 13.9941 73.654 13.9941ZM82.4341 13.9941H79.2984C78.8142 13.9941 78.4204 13.6015 78.4204 13.1161C78.4204 12.6307 78.8142 12.2381 79.2984 12.2381H82.4341C82.9195 12.2381 83.3121 12.6307 83.3121 13.1161C83.3121 13.6015 82.9195 13.9941 82.4341 13.9941ZM91.2143 13.9941H88.0785C87.5943 13.9941 87.2005 13.6015 87.2005 13.1161C87.2005 12.6307 87.5943 12.2381 88.0785 12.2381H91.2143C91.6997 12.2381 92.0923 12.6307 92.0923 13.1161C92.0923 13.6015 91.6997 13.9941 91.2143 13.9941ZM99.9944 13.9941H96.8586C96.3745 13.9941 95.9806 13.6015 95.9806 13.1161C95.9806 12.6307 96.3745 12.2381 96.8586 12.2381H99.9944C100.48 12.2381 100.872 12.6307 100.872 13.1161C100.872 13.6015 100.48 13.9941 99.9944 13.9941Z" fill="#1D243A"/>
<path d="M107.52 13.9941H105.889C105.405 13.9941 105.011 13.6015 105.011 13.1161C105.011 12.6307 105.405 12.2381 105.889 12.2381H107.52C108.005 12.2381 108.398 12.6307 108.398 13.1161C108.398 13.6015 108.005 13.9941 107.52 13.9941Z" fill="#1D243A"/>
<path d="M186.541 115.217C186.057 115.217 185.663 114.824 185.663 114.339V112.708C185.663 112.223 186.057 111.83 186.541 111.83C187.027 111.83 187.419 112.223 187.419 112.708V114.339C187.419 114.824 187.027 115.217 186.541 115.217Z" fill="#1D243A"/>
<path d="M186.541 123.62C186.057 123.62 185.663 123.228 185.663 122.742V119.732C185.663 119.247 186.057 118.854 186.541 118.854C187.027 118.854 187.419 119.247 187.419 119.732V122.742C187.419 123.228 187.027 123.62 186.541 123.62ZM186.541 132.024C186.057 132.024 185.663 131.632 185.663 131.146V128.136C185.663 127.651 186.057 127.258 186.541 127.258C187.027 127.258 187.419 127.651 187.419 128.136V131.146C187.419 131.632 187.027 132.024 186.541 132.024ZM186.541 140.428C186.057 140.428 185.663 140.036 185.663 139.55V136.54C185.663 136.054 186.057 135.662 186.541 135.662C187.027 135.662 187.419 136.054 187.419 136.54V139.55C187.419 140.036 187.027 140.428 186.541 140.428ZM186.541 148.832C186.057 148.832 185.663 148.439 185.663 147.954V144.944C185.663 144.458 186.057 144.066 186.541 144.066C187.027 144.066 187.419 144.458 187.419 144.944V147.954C187.419 148.439 187.027 148.832 186.541 148.832ZM186.541 157.236C186.057 157.236 185.663 156.843 185.663 156.358V153.347C185.663 152.862 186.057 152.469 186.541 152.469C187.027 152.469 187.419 152.862 187.419 153.347V156.358C187.419 156.843 187.027 157.236 186.541 157.236Z" fill="#1D243A"/>
<path d="M186.541 164.511H184.911C184.427 164.511 184.033 164.118 184.033 163.633C184.033 163.147 184.427 162.755 184.911 162.755H185.663V162.128C185.663 161.642 186.057 161.25 186.541 161.25C187.027 161.25 187.419 161.642 187.419 162.128V163.633C187.419 164.118 187.027 164.511 186.541 164.511Z" fill="#1D243A"/>
<path d="M110.154 164.511H107.018C106.534 164.511 106.14 164.118 106.14 163.633C106.14 163.147 106.534 162.755 107.018 162.755H110.154C110.64 162.755 111.032 163.147 111.032 163.633C111.032 164.118 110.64 164.511 110.154 164.511ZM118.809 164.511H115.673C115.189 164.511 114.795 164.118 114.795 163.633C114.795 163.147 115.189 162.755 115.673 162.755H118.809C119.294 162.755 119.687 163.147 119.687 163.633C119.687 164.118 119.294 164.511 118.809 164.511ZM127.464 164.511H124.328C123.844 164.511 123.45 164.118 123.45 163.633C123.45 163.147 123.844 162.755 124.328 162.755H127.464C127.949 162.755 128.342 163.147 128.342 163.633C128.342 164.118 127.949 164.511 127.464 164.511ZM136.118 164.511H132.982C132.498 164.511 132.104 164.118 132.104 163.633C132.104 163.147 132.498 162.755 132.982 162.755H136.118C136.604 162.755 136.996 163.147 136.996 163.633C136.996 164.118 136.604 164.511 136.118 164.511ZM144.773 164.511H141.637C141.153 164.511 140.759 164.118 140.759 163.633C140.759 163.147 141.153 162.755 141.637 162.755H144.773C145.258 162.755 145.651 163.147 145.651 163.633C145.651 164.118 145.258 164.511 144.773 164.511ZM153.428 164.511H150.292C149.808 164.511 149.414 164.118 149.414 163.633C149.414 163.147 149.808 162.755 150.292 162.755H153.428C153.913 162.755 154.306 163.147 154.306 163.633C154.306 164.118 153.913 164.511 153.428 164.511ZM162.082 164.511H158.947C158.462 164.511 158.069 164.118 158.069 163.633C158.069 163.147 158.462 162.755 158.947 162.755H162.082C162.568 162.755 162.96 163.147 162.96 163.633C162.96 164.118 162.568 164.511 162.082 164.511ZM170.737 164.511H167.601C167.117 164.511 166.723 164.118 166.723 163.633C166.723 163.147 167.117 162.755 167.601 162.755H170.737C171.222 162.755 171.615 163.147 171.615 163.633C171.615 164.118 171.222 164.511 170.737 164.511ZM179.392 164.511H176.256C175.772 164.511 175.378 164.118 175.378 163.633C175.378 163.147 175.772 162.755 176.256 162.755H179.392C179.877 162.755 180.27 163.147 180.27 163.633C180.27 164.118 179.877 164.511 179.392 164.511Z" fill="#1D243A"/>
<path d="M101.625 164.511H100.12C99.6356 164.511 99.2417 164.118 99.2417 163.633V162.128C99.2417 161.642 99.6356 161.25 100.12 161.25C100.605 161.25 100.998 161.642 100.998 162.128V162.755H101.625C102.11 162.755 102.503 163.147 102.503 163.633C102.503 164.118 102.11 164.511 101.625 164.511Z" fill="#1D243A"/>
<path d="M100.12 158.615C99.6356 158.615 99.2417 158.223 99.2417 157.737V155.354C99.2417 154.869 99.6356 154.476 100.12 154.476C100.605 154.476 100.998 154.869 100.998 155.354V157.737C100.998 158.223 100.605 158.615 100.12 158.615Z" fill="#1D243A"/>
<path d="M100.12 151.842C99.6356 151.842 99.2417 151.45 99.2417 150.964V149.334C99.2417 148.848 99.6356 148.456 100.12 148.456C100.605 148.456 100.998 148.848 100.998 149.334V150.964C100.998 151.45 100.605 151.842 100.12 151.842Z" fill="#1D243A"/>
<path d="M30.7567 115.969C30.2725 115.969 29.8787 115.577 29.8787 115.091V109.447C29.8787 108.961 30.2725 108.569 30.7567 108.569C31.2421 108.569 31.6347 108.961 31.6347 109.447V115.091C31.6347 115.577 31.2421 115.969 30.7567 115.969Z" fill="#1D243A"/>
<path d="M33.6418 113.21H27.9974C27.5132 113.21 27.1194 112.817 27.1194 112.332C27.1194 111.846 27.5132 111.454 27.9974 111.454H33.6418C34.1272 111.454 34.5198 111.846 34.5198 112.332C34.5198 112.817 34.1272 113.21 33.6418 113.21Z" fill="#1D243A"/>
<path d="M63.2432 30.1748C62.7591 30.1748 62.3652 29.7822 62.3652 29.2968V23.6524C62.3652 23.167 62.7591 22.7744 63.2432 22.7744C63.7287 22.7744 64.1213 23.167 64.1213 23.6524V29.2968C64.1213 29.7822 63.7287 30.1748 63.2432 30.1748Z" fill="#1D243A"/>
<path d="M66.1281 27.4153H60.4837C59.9996 27.4153 59.6057 27.0227 59.6057 26.5373C59.6057 26.0519 59.9996 25.6593 60.4837 25.6593H66.1281C66.6135 25.6593 67.0061 26.0519 67.0061 26.5373C67.0061 27.0227 66.6135 27.4153 66.1281 27.4153Z" fill="#1D243A"/>
<path d="M172.618 154.602C172.134 154.602 171.74 154.209 171.74 153.724V148.079C171.74 147.594 172.134 147.201 172.618 147.201C173.104 147.201 173.497 147.594 173.497 148.079V153.724C173.497 154.209 173.104 154.602 172.618 154.602Z" fill="#1D243A"/>
<path d="M175.503 151.842H169.859C169.375 151.842 168.981 151.45 168.981 150.964C168.981 150.479 169.375 150.086 169.859 150.086H175.503C175.989 150.086 176.381 150.479 176.381 150.964C176.381 151.45 175.989 151.842 175.503 151.842Z" fill="#1D243A"/>
<path d="M42.7843 150.907C42.7843 150.214 43.2998 149.652 44.0523 149.652V149.654C44.6795 149.654 45.2929 150.214 45.2929 150.907C45.2929 151.6 44.731 152.161 44.0386 152.161C43.345 152.161 42.7843 151.6 42.7843 150.907ZM47.0276 153.329C46.5171 152.861 46.4832 152.068 46.951 151.556C47.4189 151.046 48.2117 151.012 48.7234 151.48C49.2339 151.948 49.2677 152.74 48.7999 153.251C48.5528 153.522 48.2142 153.659 47.8755 153.659C47.572 153.659 47.2684 153.549 47.0276 153.329ZM39.0866 153.494C38.5936 153.008 38.5886 152.214 39.0753 151.721C39.562 151.228 40.3559 151.223 40.8489 151.709C41.3418 152.196 41.3468 152.991 40.8601 153.484C40.6143 153.733 40.2907 153.857 39.9671 153.857C39.6485 153.857 39.3299 153.736 39.0866 153.494ZM48.4688 156.422C48.4424 155.729 48.9831 155.157 49.6754 155.132C50.3678 155.107 50.9498 155.633 50.9749 156.325C51.0013 157.018 50.4606 157.612 49.7682 157.612C49.7519 157.612 49.7369 157.612 49.7206 157.612C49.0496 157.612 48.4938 157.1 48.4688 156.422ZM37.0697 156.723C37.0609 156.03 37.6152 155.448 38.3076 155.44C39 155.431 39.5682 156.007 39.577 156.699C39.5858 157.391 39.0314 157.988 38.339 157.988C38.334 157.988 38.3277 157.988 38.3227 157.988C37.6379 157.988 37.0772 157.41 37.0697 156.723ZM47.3211 161.426C46.8168 160.952 46.7918 160.158 47.2659 159.653C47.74 159.149 48.534 159.124 49.0395 159.598C49.5437 160.072 49.5688 160.866 49.0946 161.371C48.8475 161.633 48.5139 161.766 48.1803 161.766C47.8717 161.766 47.5631 161.653 47.3211 161.426ZM39.1982 161.626H39.1995C38.7002 161.124 38.6852 160.348 39.1656 159.849C39.646 159.351 40.44 159.333 40.9392 159.815C41.4384 160.294 41.4535 161.088 40.9718 161.587C40.726 161.843 40.3974 161.973 40.0687 161.973C39.7564 161.973 39.4415 161.877 39.1982 161.626ZM42.9135 162.312C42.8959 161.62 43.444 161.058 44.1364 161.041C44.8288 161.024 45.4045 161.551 45.4208 162.243C45.4384 162.935 44.8902 163.507 44.1979 163.507C44.1878 163.507 44.1765 163.507 44.1665 163.507C43.4879 163.507 42.9298 162.993 42.9135 162.312Z" fill="#1D243A"/>
<path d="M32.3599 20.8353C32.3599 20.1429 32.9205 19.581 33.6142 19.581C34.3066 19.581 34.8685 20.1429 34.8685 20.8353C34.8685 21.5289 34.3066 22.0896 33.6142 22.0896C32.9205 22.0896 32.3599 21.5289 32.3599 20.8353ZM36.617 23.2574C36.1065 22.7895 36.0713 21.9955 36.5404 21.485C37.0083 20.9745 37.8011 20.9407 38.3128 21.4085C38.8221 21.8764 38.8571 22.6691 38.3893 23.1808C38.1422 23.4505 37.8036 23.5873 37.4649 23.5873C37.1614 23.5873 36.8578 23.4781 36.617 23.2574ZM28.6759 23.4229C28.183 22.9362 28.178 22.1423 28.6647 21.6494C29.1513 21.1564 29.9453 21.1514 30.4382 21.638C30.9312 22.1247 30.9362 22.9199 30.4495 23.4129C30.2037 23.6612 29.8801 23.7854 29.5565 23.7854C29.2379 23.7854 28.9193 23.665 28.6759 23.4229ZM38.0581 26.3505C38.0318 25.6581 38.5724 25.0861 39.2648 25.0611C39.9572 25.036 40.5392 25.5615 40.5643 26.2539C40.5906 26.9462 40.05 27.5408 39.3576 27.5408C39.3426 27.5408 39.3262 27.5408 39.3112 27.5408C38.6389 27.5408 38.0832 27.0278 38.0581 26.3505ZM26.6578 26.6515C26.6503 25.9591 27.2046 25.3771 27.897 25.3684C28.5894 25.3596 29.1576 25.934 29.1664 26.6277C29.1752 27.32 28.6207 27.9171 27.9284 27.9171C27.9233 27.9171 27.9171 27.9171 27.9121 27.9171C27.2272 27.9171 26.6666 27.3389 26.6578 26.6515ZM36.9105 31.3552C36.4062 30.8798 36.3812 30.087 36.8553 29.5815C37.3294 29.0773 38.1234 29.0523 38.6288 29.5264C39.1331 30.0018 39.1581 30.7945 38.684 31.2999C38.4369 31.5621 38.1033 31.6951 37.7696 31.6951C37.4611 31.6951 37.1525 31.5822 36.9105 31.3552ZM28.7876 31.547C28.2896 31.0666 28.2746 30.2727 28.755 29.7735C29.2354 29.2755 30.0294 29.2604 30.5286 29.7408C31.0278 30.2212 31.0416 31.0152 30.5612 31.5145C30.3154 31.7703 29.9868 31.8982 29.6581 31.8982C29.3445 31.8982 29.0309 31.7816 28.7876 31.547ZM32.5028 32.2407C32.4853 31.5483 33.0334 30.9864 33.7258 30.9688C34.4182 30.9525 34.9926 31.4806 35.0102 32.1717C35.0277 32.8641 34.4796 33.436 33.7872 33.436C33.7772 33.436 33.7659 33.436 33.7559 33.436C33.0773 33.436 32.5192 32.9218 32.5028 32.2407Z" fill="#1D243A"/>
</svg>
