<svg width="200" height="166" viewBox="0 0 200 166" fill="none" xmlns="http://www.w3.org/2000/svg">
<path d="M191.505 60.6233V25.1932C195.955 23.5937 199.085 19.4652 199.085 14.6234C199.085 9.88583 195.955 5.83102 192.268 4.16028V14.3347C192.268 14.9667 191.569 15.3786 190.938 15.3786H184.792C184.16 15.3786 183.749 14.9667 183.749 14.3347V4.16028C179.299 5.83102 176.606 9.88583 176.606 14.6234C176.606 19.4703 179.299 23.6039 183.876 25.1983V60.6551C179.299 62.2648 176.634 66.3844 176.634 71.2122C176.634 75.9498 179.299 80.0046 183.749 81.6753V71.5009C183.749 70.8689 184.187 70.0526 184.819 70.0526H190.964C191.596 70.0526 192.268 70.8689 192.268 71.5009V81.6753C196.337 80.0046 199.11 75.9498 199.11 71.2122C199.11 66.3513 195.955 62.2088 191.505 60.6233Z" fill="#CCCCCC"/>
<path d="M101.153 24.6289C98.4614 27.3206 94.0977 27.3206 91.4059 24.6289C88.7142 21.9371 88.7142 17.5733 91.4059 14.8816C94.0977 12.1911 98.4614 12.1911 101.153 14.8816C103.844 17.5733 103.844 21.9371 101.153 24.6289ZM111.446 22.7496L111.445 17.5556L107.45 17.5581C107.219 16.4074 106.832 15.3037 106.23 14.2395L108.945 11.5249L105.283 7.86299L102.736 10.4085C101.68 9.68888 100.489 9.13702 99.2714 8.81025L99.2739 5.38617H94.0799L94.0837 8.64371C92.7779 8.90691 91.5077 9.40403 90.343 10.1262L88.0785 7.86299L84.3606 11.5808L86.6251 13.8453C85.9589 14.9541 85.4236 16.2663 85.1604 17.5746L81.9028 17.5657L81.9066 22.7559L85.3333 22.7509C85.6575 23.9702 86.2081 25.1616 86.9265 26.2195L84.3606 28.7841L88.0238 32.4472L90.7562 29.7148C91.8192 30.3162 92.9266 30.7117 94.071 30.9393L94.0761 34.9165L99.2726 34.9177L99.265 30.7892C100.318 30.5082 101.318 30.0924 102.276 29.4961L105.227 32.4472L108.945 28.7294L105.994 25.7783C106.59 24.8196 107.013 23.8062 107.293 22.747L111.446 22.7496Z" fill="#E8C81D"/>
<path d="M26.7887 26.7789C23.1676 30.4001 17.2969 30.4001 13.6758 26.7789C10.0549 23.1577 10.0549 17.2872 13.6758 13.666C17.2969 10.0448 23.1676 10.0448 26.7887 13.666C30.4098 17.2872 30.4098 23.1577 26.7887 26.7789ZM40.6372 24.2499L40.6358 17.2631L35.2601 17.2656C34.9511 15.7182 34.4286 14.2331 33.6204 12.8014L37.2726 9.14972L32.345 4.2227L28.9193 7.64807C27.4982 6.6792 25.8971 5.93793 24.2583 5.49672L24.2605 0.890111L17.2727 0.891402L17.2786 5.27292C15.5224 5.62639 13.8124 6.2965 12.2462 7.26791L9.19995 4.2227L4.19766 9.22472L7.24427 12.2712C6.34736 13.7639 5.62706 15.5275 5.27333 17.2872L0.890137 17.2758L0.896112 24.2588L5.50526 24.2512C5.9429 25.8939 6.68227 27.496 7.64873 28.9188L4.19766 32.3696L9.12531 37.2966L12.8009 33.622C14.2317 34.4307 15.7213 34.9622 17.2622 35.2699L17.268 40.619L24.2598 40.6216L24.25 35.0664C25.6653 34.6875 27.0122 34.1294 28.3004 33.3271L32.2703 37.2966L37.2726 32.2946L33.3027 28.325C34.1041 27.0357 34.6735 25.6727 35.0506 24.2473L40.6372 24.2499Z" fill="#E8C81D"/>
<path d="M159.464 131.72H41.9784C41.4869 131.72 41.0884 131.322 41.0884 130.83C41.0884 130.338 41.4869 129.94 41.9784 129.94H159.464C159.956 129.94 160.354 130.338 160.354 130.83C160.354 131.322 159.956 131.72 159.464 131.72Z" fill="#1D243A"/>
<path d="M87.1161 165.033C86.6253 165.033 86.2261 164.635 86.2261 164.143V142.019C86.2261 141.527 86.6253 141.129 87.1161 141.129C87.6082 141.129 88.0062 141.527 88.0062 142.019V164.143C88.0062 164.635 87.6082 165.033 87.1161 165.033Z" fill="#1D243A"/>
<path d="M114.326 165.033C113.835 165.033 113.436 164.635 113.436 164.143V142.019C113.436 141.527 113.835 141.129 114.326 141.129C114.818 141.129 115.216 141.527 115.216 142.019V164.143C115.216 164.635 114.818 165.033 114.326 165.033Z" fill="#1D243A"/>
<path d="M126.278 165.541H75.2914C74.7999 165.541 74.4014 165.143 74.4014 164.651C74.4014 164.159 74.7999 163.761 75.2914 163.761H126.278C126.77 163.761 127.168 164.159 127.168 164.651C127.168 165.143 126.77 165.541 126.278 165.541Z" fill="#1D243A"/>
<path d="M100.621 135.253C100.106 135.253 99.6873 135.672 99.6873 136.187C99.6873 136.702 100.106 137.12 100.621 137.12C101.134 137.12 101.554 136.702 101.554 136.187C101.554 135.672 101.134 135.253 100.621 135.253ZM100.621 138.9C99.124 138.9 97.9072 137.683 97.9072 136.187C97.9072 134.69 99.124 133.473 100.621 133.473C102.116 133.473 103.334 134.69 103.334 136.187C103.334 137.683 102.116 138.9 100.621 138.9Z" fill="#1D243A"/>
<path d="M46.5247 61.601C44.4633 61.601 42.7862 63.2781 42.7862 65.3392V137.032C42.7862 139.093 44.4633 140.77 46.5247 140.77H154.786C156.847 140.77 158.524 139.093 158.524 137.032V65.3392C158.524 63.2781 156.847 61.601 154.786 61.601H46.5247ZM154.786 142.55H46.5247C43.4817 142.55 41.0061 140.075 41.0061 137.032V65.3392C41.0061 62.2965 43.4817 59.8209 46.5247 59.8209H154.786C157.829 59.8209 160.304 62.2965 160.304 65.3392V137.032C160.304 140.075 157.829 142.55 154.786 142.55Z" fill="#1D243A"/>
<path d="M16.9301 124.854C16.4385 124.854 16.04 124.456 16.04 123.964V118.242C16.04 117.75 16.4385 117.352 16.9301 117.352C17.4216 117.352 17.8201 117.75 17.8201 118.242V123.964C17.8201 124.456 17.4216 124.854 16.9301 124.854Z" fill="#1D243A"/>
<path d="M19.8547 122.057H14.133C13.6414 122.057 13.2429 121.659 13.2429 121.167C13.2429 120.675 13.6414 120.277 14.133 120.277H19.8547C20.3462 120.277 20.7447 120.675 20.7447 121.167C20.7447 121.659 20.3462 122.057 19.8547 122.057Z" fill="#1D243A"/>
<path d="M64.1024 46.6572C63.6109 46.6572 63.2124 46.2593 63.2124 45.7672V40.0455C63.2124 39.5534 63.6109 39.1554 64.1024 39.1554C64.594 39.1554 64.9925 39.5534 64.9925 40.0455V45.7672C64.9925 46.2593 64.594 46.6572 64.1024 46.6572Z" fill="#1D243A"/>
<path d="M67.0268 43.8601H61.3051C60.8135 43.8601 60.415 43.4621 60.415 42.9701C60.415 42.478 60.8135 42.08 61.3051 42.08H67.0268C67.5183 42.08 67.9168 42.478 67.9168 42.9701C67.9168 43.4621 67.5183 43.8601 67.0268 43.8601Z" fill="#1D243A"/>
<path d="M179.68 124.854C179.19 124.854 178.79 124.456 178.79 123.964V118.242C178.79 117.75 179.19 117.352 179.68 117.352C180.172 117.352 180.57 117.75 180.57 118.242V123.964C180.57 124.456 180.172 124.854 179.68 124.854Z" fill="#1D243A"/>
<path d="M182.605 122.057H176.883C176.392 122.057 175.993 121.659 175.993 121.167C175.993 120.675 176.392 120.277 176.883 120.277H182.605C183.097 120.277 183.495 120.675 183.495 121.167C183.495 121.659 183.097 122.057 182.605 122.057Z" fill="#1D243A"/>
<path d="M48.463 162.49C47.9715 162.49 47.573 162.092 47.573 161.6V155.878C47.573 155.386 47.9715 154.988 48.463 154.988C48.9546 154.988 49.3531 155.386 49.3531 155.878V161.6C49.3531 162.092 48.9546 162.49 48.463 162.49Z" fill="#1D243A"/>
<path d="M51.3874 159.693H45.6657C45.1741 159.693 44.7756 159.295 44.7756 158.803C44.7756 158.311 45.1741 157.913 45.6657 157.913H51.3874C51.8789 157.913 52.2774 158.311 52.2774 158.803C52.2774 159.295 51.8789 159.693 51.3874 159.693Z" fill="#1D243A"/>
<path d="M7.11129 153.022C7.11129 152.32 7.67965 151.751 8.38278 151.751C9.08464 151.751 9.65427 152.32 9.65427 153.022C9.65427 153.725 9.08464 154.294 8.38278 154.294C7.67965 154.294 7.11129 153.725 7.11129 153.022ZM11.4267 155.478C10.9092 155.003 10.8736 154.2 11.3492 153.681C11.8234 153.163 12.627 153.129 13.1458 153.603C13.6633 154.078 13.6976 154.881 13.2233 155.4C12.9729 155.673 12.6295 155.812 12.2862 155.812C11.9785 155.812 11.6709 155.701 11.4267 155.478ZM3.37693 155.645C2.87724 155.152 2.87215 154.347 3.36549 153.847C3.85883 153.348 4.66368 153.343 5.16337 153.836C5.66307 154.331 5.66815 155.136 5.17482 155.635C4.9256 155.887 4.59756 156.013 4.26951 156.013C3.94656 156.013 3.62487 155.891 3.37693 155.645ZM12.8877 158.613C12.861 157.911 13.409 157.336 14.1108 157.311C14.8127 157.284 15.4027 157.785 15.4281 158.548H15.4294C15.4548 159.184 14.9068 159.82 14.2049 159.82C14.1884 159.82 14.1731 159.82 14.1566 159.82C13.4764 159.82 12.9131 159.298 12.8877 158.613ZM1.33238 158.918C1.32348 158.216 1.88548 157.626 2.58734 157.617C3.2892 157.609 3.86519 158.191 3.87409 158.894C3.88299 159.596 3.32099 160.201 2.61913 160.201C2.61277 160.201 2.60768 160.201 2.6026 160.201C1.90836 160.201 1.34001 159.615 1.33238 158.918ZM11.7243 163.686C11.2131 163.206 11.1877 162.401 11.6683 161.888C12.1489 161.377 12.9538 161.352 13.4662 161.832C13.9773 162.313 14.0028 163.118 13.5221 163.63C13.2717 163.896 12.9334 164.031 12.5952 164.031C12.2824 164.031 11.9696 163.916 11.7243 163.686ZM3.49136 163.888H3.49009C2.98531 163.38 2.97005 162.593 3.45703 162.087C3.94401 161.581 4.74887 161.564 5.25492 162.052C5.76097 162.538 5.77623 163.343 5.28925 163.849C5.03877 164.107 4.70564 164.241 4.37251 164.241C4.05463 164.241 3.73676 164.143 3.49136 163.888ZM7.25624 164.584C7.23844 163.882 7.79408 163.312 8.49595 163.295C9.19781 163.278 9.78015 163.811 9.79795 164.514C9.81575 165.216 9.26011 165.796 8.55825 165.796C8.54808 165.796 8.53663 165.796 8.52646 165.796C7.83858 165.796 7.27277 165.276 7.25624 164.584Z" fill="#1D243A"/>
<path d="M142.779 22.8218C142.779 22.12 143.348 21.5503 144.051 21.5503C144.753 21.5503 145.322 22.12 145.322 22.8218C145.322 23.525 144.753 24.0933 144.051 24.0933C143.348 24.0933 142.779 23.525 142.779 22.8218ZM147.095 25.2771C146.577 24.8028 146.543 23.9992 147.017 23.4805C147.491 22.963 148.295 22.9287 148.814 23.4029C149.331 23.8772 149.366 24.6807 148.891 25.1995C148.641 25.4729 148.298 25.6115 147.954 25.6115C147.647 25.6115 147.339 25.5009 147.095 25.2771ZM139.045 25.4449C138.545 24.9516 138.54 24.1467 139.033 23.647C139.527 23.1474 140.332 23.1422 140.831 23.6356C141.331 24.1289 141.336 24.935 140.843 25.4347C140.594 25.6865 140.266 25.8124 139.938 25.8124C139.615 25.8124 139.293 25.6903 139.045 25.4449ZM148.556 28.4126C148.529 27.7107 149.077 27.1309 149.779 27.1055C150.481 27.0788 151.071 27.6128 151.096 28.3147C151.123 29.0165 150.575 29.6192 149.873 29.6192C149.856 29.6192 149.841 29.6192 149.825 29.6192C149.144 29.6192 148.581 29.0992 148.556 28.4126ZM136.999 28.7178C136.991 28.0159 137.553 27.4259 138.255 27.417C138.957 27.4081 139.534 27.9904 139.542 28.6936C139.551 29.3954 138.989 30.0007 138.287 30.0007C138.281 30.0007 138.276 30.0007 138.271 30.0007C137.576 30.0007 137.008 29.4145 136.999 28.7178ZM147.392 33.4858C146.881 33.0052 146.856 32.2003 147.336 31.6879C147.817 31.1768 148.622 31.1514 149.134 31.632C149.645 32.1139 149.671 32.9175 149.19 33.4299C148.94 33.6956 148.601 33.8304 148.263 33.8304C147.95 33.8304 147.638 33.716 147.392 33.4858ZM139.158 33.6803C138.653 33.1934 138.638 32.3885 139.125 31.8825C139.612 31.3764 140.417 31.3624 140.923 31.8494C141.429 32.3364 141.444 33.1413 140.956 33.6473C140.707 33.9067 140.374 34.0364 140.041 34.0364C139.724 34.0364 139.406 33.9181 139.158 33.6803ZM142.924 34.3835C142.906 33.6816 143.462 33.112 144.164 33.0954C144.866 33.0776 145.449 33.613 145.466 34.3135C145.484 35.0154 144.928 35.5952 144.226 35.5952C144.216 35.5952 144.205 35.5952 144.194 35.5952C143.507 35.5952 142.941 35.0752 142.924 34.3835Z" fill="#1D243A"/>
<path d="M190.206 153.022C190.206 152.32 190.774 151.751 191.477 151.751C192.179 151.751 192.749 152.32 192.749 153.022C192.749 153.725 192.179 154.294 191.477 154.294C190.774 154.294 190.206 153.725 190.206 153.022ZM194.521 155.478C194.004 155.003 193.968 154.2 194.444 153.681C194.918 153.163 195.721 153.129 196.24 153.603C196.758 154.078 196.792 154.881 196.318 155.4C196.067 155.673 195.724 155.812 195.381 155.812C195.073 155.812 194.765 155.701 194.521 155.478ZM186.471 155.645C185.972 155.152 185.967 154.347 186.46 153.847C186.953 153.348 187.758 153.343 188.258 153.836C188.758 154.331 188.763 155.136 188.269 155.635C188.02 155.887 187.692 156.013 187.364 156.013C187.041 156.013 186.719 155.891 186.471 155.645ZM195.982 158.613C195.955 157.911 196.503 157.336 197.205 157.311C197.907 157.284 198.497 157.785 198.523 158.548H198.524C198.549 159.184 198.001 159.82 197.299 159.82C197.283 159.82 197.268 159.82 197.251 159.82C196.571 159.82 196.008 159.298 195.982 158.613ZM184.427 158.918C184.418 158.216 184.98 157.626 185.682 157.617C186.384 157.609 186.961 158.191 186.969 158.894C186.977 159.596 186.415 160.201 185.714 160.201C185.707 160.201 185.702 160.201 185.697 160.201C185.003 160.201 184.434 159.615 184.427 158.918ZM194.819 163.686C194.308 163.206 194.282 162.401 194.763 161.888C195.243 161.377 196.048 161.352 196.561 161.832C197.072 162.313 197.097 163.118 196.617 163.63C196.366 163.896 196.028 164.031 195.69 164.031C195.377 164.031 195.064 163.916 194.819 163.686ZM186.586 163.888H186.585C186.08 163.38 186.065 162.593 186.552 162.087C187.038 161.581 187.843 161.564 188.349 162.052C188.855 162.538 188.871 163.343 188.384 163.849C188.133 164.107 187.8 164.241 187.467 164.241C187.149 164.241 186.833 164.143 186.586 163.888ZM190.351 164.584C190.333 163.882 190.889 163.312 191.59 163.295C192.292 163.278 192.875 163.811 192.892 164.514C192.91 165.216 192.355 165.796 191.653 165.796C191.643 165.796 191.631 165.796 191.621 165.796C190.933 165.796 190.367 165.276 190.351 164.584Z" fill="#1D243A"/>
<path d="M90.5618 106.537C90.3011 106.537 90.0405 106.443 89.8332 106.253L79.2621 96.5987C79.0383 96.394 78.9111 96.1041 78.9111 95.8002C78.9111 95.4963 79.0383 95.2064 79.2621 95.0017L89.8332 85.3473C90.2732 84.9442 90.9572 84.976 91.3603 85.4159C91.7621 85.8571 91.7315 86.5399 91.2903 86.943L81.594 95.8002L91.2903 104.657C91.7315 105.06 91.7621 105.743 91.3603 106.184C91.1467 106.418 90.8542 106.537 90.5618 106.537Z" fill="#1D243A"/>
<path d="M110.799 106.537C110.505 106.537 110.214 106.418 110 106.184C109.597 105.743 109.629 105.06 110.069 104.657L119.767 95.8002L110.069 86.943C109.629 86.5399 109.597 85.8571 110 85.4159C110.403 84.9747 111.086 84.9442 111.527 85.3473L122.097 95.0017C122.321 95.2064 122.449 95.4963 122.449 95.8002C122.449 96.1041 122.321 96.394 122.097 96.5987L111.527 106.253C111.32 106.443 111.058 106.537 110.799 106.537Z" fill="#1D243A"/>
<path d="M98.0723 106.537C97.9795 106.537 97.8854 106.524 97.79 106.498C97.2141 106.343 96.8733 105.75 97.0284 105.174L102.244 85.8635C102.399 85.2862 102.993 84.9455 103.569 85.1019C104.145 85.257 104.487 85.8508 104.331 86.4268L99.1162 105.737C98.9852 106.219 98.5491 106.537 98.0723 106.537Z" fill="#1D243A"/>
<path d="M182.859 5.53105C179.519 7.28316 177.496 10.6603 177.496 14.6235C177.496 19.1932 180.053 22.9237 184.17 24.358C184.527 24.4826 184.766 24.8208 184.766 25.1984V60.6552C184.766 61.0341 184.529 61.3697 184.171 61.4956C180.071 62.9375 177.524 66.6604 177.524 71.2123C177.524 75.1793 179.537 78.5552 182.859 80.3034V71.5009C182.859 70.3719 183.646 69.1627 184.818 69.1627H190.963C192.146 69.1627 193.158 70.4482 193.158 71.5009V80.2462C196.272 78.4318 198.22 75.0204 198.22 71.2123C198.22 66.874 195.401 62.9553 191.206 61.4613C190.852 61.3354 190.615 60.9985 190.615 60.6234V25.1933C190.615 24.8182 190.852 24.4826 191.205 24.3567C195.384 22.8538 198.194 18.9427 198.194 14.6235C198.194 10.5954 195.768 7.35943 193.158 5.66326V14.3348C193.158 15.53 192.006 16.2688 190.938 16.2688H184.792C183.672 16.2688 182.859 15.455 182.859 14.3348V5.53105ZM183.749 82.5654C183.644 82.5654 183.538 82.5464 183.436 82.5082C178.691 80.7269 175.744 76.3987 175.744 71.2123C175.744 66.1047 178.502 61.8809 182.986 60.0423V25.8138C178.484 23.9816 175.716 19.7501 175.716 14.6235C175.716 9.44344 178.673 5.11529 183.436 3.32631C183.71 3.22459 184.016 3.26273 184.256 3.42803C184.497 3.59459 184.639 3.86793 184.639 4.16037V14.3348C184.639 14.4213 184.658 14.4595 184.663 14.4645C184.67 14.4696 184.707 14.4887 184.792 14.4887H190.938C191.143 14.4887 191.334 14.3819 191.378 14.3196V4.16037C191.378 3.85776 191.532 3.57551 191.786 3.41149C192.04 3.24874 192.361 3.22455 192.636 3.34915C194.647 4.26081 196.479 5.8197 197.793 7.73837C199.219 9.82107 199.975 12.2026 199.975 14.6235C199.975 17.1614 199.181 19.5912 197.683 21.6485C196.339 23.4921 194.521 24.92 192.395 25.8036V60.0118C196.969 61.9063 200 66.3311 200 71.2123C200 76.2245 197.097 80.6544 192.606 82.4993C192.332 82.6112 192.019 82.5794 191.772 82.4154C191.527 82.2501 191.378 81.9716 191.378 81.6754V71.5009C191.378 71.3344 191.11 70.986 190.951 70.9428H184.862C184.776 71.014 184.639 71.2683 184.639 71.5009V81.6754C184.639 81.9678 184.497 82.2412 184.256 82.4078C184.105 82.512 183.928 82.5654 183.749 82.5654Z" fill="#1D243A"/>
<path d="M183.876 26.0591C183.386 26.0591 182.986 25.6611 182.986 25.169V22.2446C182.986 21.7526 183.386 21.3546 183.876 21.3546C184.368 21.3546 184.766 21.7526 184.766 22.2446V25.169C184.766 25.6611 184.368 26.0591 183.876 26.0591Z" fill="#1D243A"/>
<path d="M191.505 26.0591C191.014 26.0591 190.615 25.6611 190.615 25.169V22.2446C190.615 21.7526 191.014 21.3546 191.505 21.3546C191.997 21.3546 192.395 21.7526 192.395 22.2446V25.169C192.395 25.6611 191.997 26.0591 191.505 26.0591Z" fill="#1D243A"/>
<path d="M183.876 64.7124C183.386 64.7124 182.986 64.3144 182.986 63.8224V60.6436C182.986 60.1516 183.386 59.7536 183.876 59.7536C184.368 59.7536 184.766 60.1516 184.766 60.6436V63.8224C184.766 64.3144 184.368 64.7124 183.876 64.7124Z" fill="#1D243A"/>
<path d="M191.505 64.7124C191.014 64.7124 190.615 64.3144 190.615 63.8224V60.6436C190.615 60.1516 191.014 59.7536 191.505 59.7536C191.997 59.7536 192.395 60.1516 192.395 60.6436V63.8224C192.395 64.3144 191.997 64.7124 191.505 64.7124Z" fill="#1D243A"/>
<path d="M14.3051 14.2953C11.0369 17.5643 11.0369 22.8817 14.3051 26.1494C15.939 27.7833 18.0859 28.6008 20.2322 28.6008C22.379 28.6008 24.525 27.7833 26.1592 26.1494C29.4275 22.8817 29.4275 17.5643 26.1592 14.2953C22.891 11.0276 17.5734 11.0276 14.3051 14.2953ZM20.2322 30.3796C17.6298 30.3796 15.0275 29.3892 13.0464 27.4082C9.08415 23.4462 9.08415 16.9985 13.0464 13.0365C17.0086 9.07458 23.4558 9.07458 27.418 13.0365C31.3802 16.9985 31.3802 23.4462 27.418 27.4082C25.4369 29.3892 22.8345 30.3796 20.2322 30.3796Z" fill="#1D243A"/>
<path d="M18.157 39.7289L23.3682 39.7315L23.3599 35.0676C23.3591 34.6646 23.6301 34.3111 24.0199 34.2068C25.4172 33.833 26.6634 33.2977 27.8297 32.5717C28.181 32.353 28.637 32.4052 28.9297 32.6976L32.2702 36.0378L36.0139 32.2945L32.6732 28.9543C32.3807 28.6619 32.3283 28.2067 32.5467 27.8545C33.2726 26.6872 33.8255 25.4132 34.1901 24.0362C34.2934 23.6446 34.6468 23.389 35.0505 23.389C35.0506 23.389 35.0507 23.389 35.0509 23.389L39.7468 23.375L39.746 18.1708L35.2605 18.1759C35.2604 18.1759 35.2601 18.1759 35.26 18.1759C34.8357 18.1759 34.4703 17.8656 34.3873 17.4499C34.0817 15.9203 33.5773 14.542 32.8452 13.2438C32.6489 12.8967 32.7084 12.458 32.991 12.1758L36.0139 9.15087L32.3449 5.48139L29.5485 8.27737C29.2461 8.57998 28.7715 8.6245 28.4181 8.38291C27.0755 7.46871 25.557 6.76809 24.0271 6.35613C23.6382 6.25187 23.3679 5.8997 23.3682 5.49663L23.3699 1.78006L18.1638 1.78136L18.1686 5.27159C18.1691 5.695 17.8703 6.06118 17.4544 6.14509C15.7724 6.48458 14.1781 7.11652 12.7156 8.02436C12.3642 8.24306 11.9091 8.18966 11.6168 7.89721L9.19985 5.48139L5.45621 9.22463L7.87356 11.6417C8.16245 11.9304 8.21763 12.3792 8.00707 12.7301C7.12567 14.1961 6.46463 15.877 6.14587 17.4626C6.06208 17.8796 5.69893 18.1823 5.27082 18.1772L1.78085 18.1683L1.7853 23.3814L5.50376 23.389C5.50427 23.389 5.50478 23.389 5.50516 23.389C5.90848 23.389 6.26132 23.6458 6.3652 24.0362C6.77335 25.5683 7.47177 27.0814 8.38495 28.4254C8.62488 28.7789 8.58 29.2493 8.27802 29.5507L5.45621 32.3708L9.12522 36.039L12.1716 32.9926C12.4542 32.7103 12.8909 32.6505 13.239 32.8463C14.55 33.5876 15.9228 34.0949 17.436 34.3963C17.8519 34.4789 18.1516 34.8439 18.1521 35.2685L18.157 39.7289ZM24.2597 41.5713C24.2596 41.5713 24.2595 41.5713 24.2594 41.5713L17.2676 41.5382C16.7765 41.5382 16.3784 41.1263 16.3779 40.6355L16.3728 35.9907C15.1814 35.697 14.0393 35.2698 12.9627 34.7218L9.75448 37.9285C9.40698 38.2756 8.84333 38.2743 8.49583 37.9272L3.56818 32.9989C3.22055 32.6518 3.22055 32.0873 3.56818 31.7402L6.51091 28.7979C5.80536 27.6497 5.23637 26.4164 4.83775 25.1526L0.897414 25.1691C0.896906 25.1691 0.896399 25.1691 0.896017 25.1691C0.660284 25.1691 0.434214 25.0661 0.267394 24.8995C0.100194 24.7317 0.0061029 24.5003 0.00597575 24.265L1.28873e-07 17.2795C-0.00012702 17.043 0.0938366 16.8142 0.261292 16.6476C0.428747 16.4798 0.65507 16.3869 0.892457 16.3869L4.56375 16.3958C4.90438 15.0531 5.44655 13.6799 6.13378 12.4199L3.56818 9.85401C3.22055 9.50563 3.22055 8.94236 3.56818 8.59524L8.57047 3.59323C8.91809 3.24484 9.48161 3.24484 9.82924 3.59323L12.3875 6.15145C13.6476 5.44323 14.988 4.90919 16.3874 4.5608L16.3826 0.892556C16.3822 0.656059 16.4758 0.429764 16.6428 0.261928C16.8097 0.0953626 17.0362 0.00127247 17.2724 0.00127247L24.2602 -1.8883e-05C24.4965 -1.8883e-05 24.7229 0.0940712 24.8899 0.260636C25.0568 0.427201 25.1505 0.654798 25.1504 0.890023L25.1485 4.83035C26.411 5.23086 27.6523 5.80303 28.7989 6.50871L31.7155 3.59323C31.8824 3.42539 32.1088 3.33257 32.3449 3.33257C32.5809 3.33257 32.8073 3.42539 32.9743 3.59323L37.9019 8.52024C38.0687 8.68681 38.1626 8.91313 38.1626 9.14963C38.1626 9.38613 38.0687 9.61245 37.9019 9.77902L34.717 12.9641C35.2647 14.041 35.6797 15.1777 35.9743 16.3869L40.6354 16.3958C40.6355 16.3958 40.6356 16.3958 40.6357 16.3958C40.8717 16.3958 41.0979 16.4785 41.2649 16.6451C41.432 16.8116 41.5258 17.0329 41.5258 17.2681L41.5272 24.2536C41.5272 24.4888 41.4333 24.7292 41.2664 24.8957C41.0995 25.0623 40.8731 25.1691 40.637 25.1691C40.6369 25.1691 40.6369 25.1691 40.6368 25.1691L35.7207 25.1526C35.3893 26.2219 34.9536 27.234 34.4193 28.1902L37.9019 31.6689C38.0687 31.8355 38.1626 32.0606 38.1626 32.2971C38.1626 32.5323 38.0687 32.7586 37.9019 32.9252L32.8995 37.9272C32.552 38.2743 31.9884 38.2743 31.6409 37.9272L28.159 34.4446C27.211 34.9761 26.2145 35.402 25.1411 35.7352L25.1498 40.6202C25.1502 40.8567 25.0566 41.1135 24.8895 41.2801C24.7226 41.4479 24.496 41.5713 24.2597 41.5713Z" fill="#1D243A"/>
<path d="M92.0353 15.5108C89.6945 17.8516 89.6945 21.6597 92.0353 23.9993C93.1682 25.1334 94.6762 25.7578 96.2795 25.7578C97.8829 25.7578 99.3896 25.1334 100.524 23.9993C102.863 21.6597 102.863 17.8516 100.524 15.5108C98.183 13.1713 94.3749 13.1713 92.0353 15.5108ZM96.2795 27.5378C94.2007 27.5378 92.2464 26.7279 90.7765 25.2581C87.7428 22.2243 87.7428 17.2871 90.7765 14.2533C93.8103 11.2183 98.7475 11.2183 101.781 14.2533C104.816 17.2871 104.816 22.2243 101.781 25.2581C100.311 26.7279 98.3584 27.5378 96.2795 27.5378Z" fill="#1D243A"/>
<path d="M94.965 34.0263L98.3815 34.0276L98.3751 30.7904C98.3751 30.3873 98.6459 30.0338 99.0363 29.9295C100.052 29.6574 100.959 29.2684 101.806 28.7407C102.157 28.522 102.613 28.5742 102.905 28.8666L105.227 31.1883L107.686 28.7293L105.366 26.4075C105.072 26.1151 105.02 25.6599 105.239 25.3077C105.766 24.4596 106.168 23.5238 106.434 22.5231C106.537 22.1315 106.89 21.8632 107.293 21.8632H107.295L110.556 21.8619L110.555 18.4391L107.45 18.4302C107.025 18.4302 106.66 18.139 106.576 17.7233C106.355 16.6107 105.988 15.6151 105.456 14.673C105.259 14.3246 105.319 13.891 105.601 13.6087L107.686 11.5247L105.283 9.1204L103.366 11.0378C103.063 11.3404 102.589 11.3849 102.235 11.1446C101.259 10.4783 100.154 9.96847 99.0401 9.66967C98.6523 9.56541 98.3815 9.21191 98.3815 8.81012L98.3828 6.27609H94.9713L94.9739 8.6423C94.9739 9.06697 94.6751 9.43188 94.2593 9.5158C93.0361 9.76247 91.8765 10.2227 90.8123 10.8826C90.4614 11.1013 90.0062 11.0479 89.7137 10.7555L88.0786 9.12164L85.6196 11.5807L87.2547 13.2158C87.5433 13.5045 87.5993 13.9533 87.3882 14.3042C86.7461 15.3723 86.2655 16.579 86.0328 17.7322C85.9489 18.148 85.584 18.4302 85.1605 18.4302C85.1593 18.4302 85.1593 18.4302 85.158 18.4302L82.793 18.4404L82.7968 21.8569L85.3309 21.8632C85.3322 21.8632 85.3322 21.8632 85.3335 21.8632C85.7365 21.8632 86.0887 22.1328 86.193 22.5231C86.4893 23.6369 86.9978 24.7419 87.6628 25.7197C87.9019 26.0731 87.8574 26.5474 87.556 26.8488L85.6196 28.784L88.0239 31.1883L90.127 29.0853C90.4092 28.803 90.8454 28.7433 91.1938 28.9404C92.1474 29.4795 93.1455 29.8469 94.2453 30.0669C94.6611 30.1495 94.9612 30.5145 94.9612 30.9391L94.965 34.0263ZM99.2728 35.8496L94.0762 35.8267C93.5842 35.8267 93.1862 35.4186 93.1862 34.9278L93.1824 31.6524C92.3966 31.4477 91.64 31.1642 90.9217 30.8107L88.6533 33.0778C88.3049 33.4249 87.7417 33.4249 87.3946 33.0765L83.7314 29.4133C83.3843 29.0662 83.3843 28.503 83.7314 28.1546L85.7925 26.0948C85.3309 25.3179 84.9508 24.485 84.671 23.6395L81.9081 23.6433H81.9068C81.6716 23.6433 81.4453 23.5505 81.2787 23.3852C81.1109 23.2174 81.0168 22.9923 81.0168 22.7558L81.013 17.5656C81.0117 17.3291 81.1058 17.1028 81.2736 16.9349C81.4414 16.7684 81.6703 16.6768 81.9055 16.6756L84.4574 16.6819C84.7015 15.7741 85.0665 14.8535 85.5191 13.9966L83.7314 12.2101C83.5648 12.0435 83.4707 11.8172 83.4707 11.5807C83.4707 11.3442 83.5648 11.1179 83.7314 10.9513L87.4492 7.23348C87.6171 7.06564 87.8434 6.97282 88.0786 6.97282C88.3151 6.97282 88.5414 7.06564 88.708 7.23348L90.4881 9.01356C91.3463 8.54692 92.2516 8.18712 93.1925 7.93791L93.19 5.38729C93.1887 5.15206 93.2828 4.92446 93.4494 4.7579C93.6172 4.59006 93.8435 4.496 94.0788 4.496H99.2728C99.5093 4.496 99.7356 4.59009 99.9035 4.75666C100.07 4.92322 100.164 5.14955 100.164 5.38604L100.163 8.14895C101.007 8.42995 101.836 8.81139 102.612 9.27422L104.654 7.23348C104.82 7.06564 105.047 6.97282 105.283 6.97282C105.518 6.97282 105.745 7.06564 105.913 7.23348L109.574 10.8954C109.923 11.2438 109.923 11.807 109.574 12.1541L107.324 14.406C107.677 15.1244 107.953 15.8643 108.158 16.659L111.445 16.6501C111.681 16.6501 111.908 16.7519 112.074 16.9184C112.242 17.085 112.335 17.3151 112.335 17.5516L112.336 22.7469C112.336 22.9834 112.242 23.2123 112.075 23.3801C111.909 23.5467 111.683 23.6433 111.446 23.6433L107.96 23.6395C107.733 24.335 107.448 25.0013 107.108 25.6332L109.574 28.0999C109.742 28.2665 109.835 28.4928 109.835 28.7293C109.835 28.9645 109.742 29.1908 109.574 29.3587L105.857 33.0765C105.509 33.4236 104.945 33.4236 104.598 33.0765L102.131 30.6098C101.506 30.948 100.852 31.2277 100.156 31.4528L100.163 34.9164C100.163 35.1529 100.07 35.4008 99.9022 35.5673C99.7356 35.7352 99.5093 35.8496 99.2728 35.8496Z" fill="#1D243A"/>
<path d="M20.236 50.3445C19.7444 50.3445 19.3459 49.9465 19.3459 49.4544V47.8015C19.3459 47.3094 19.7444 46.9115 20.236 46.9115C20.7275 46.9115 21.126 47.3094 21.126 47.8015V49.4544C21.126 49.9465 20.7275 50.3445 20.236 50.3445Z" fill="#1D243A"/>
<path d="M20.236 59.8807C19.7444 59.8807 19.3459 59.4827 19.3459 58.9906V55.5576C19.3459 55.0655 19.7444 54.6676 20.236 54.6676C20.7275 54.6676 21.126 55.0655 21.126 55.5576V58.9906C21.126 59.4827 20.7275 59.8807 20.236 59.8807ZM20.236 69.544C19.7444 69.544 19.3459 69.146 19.3459 68.6539V65.2209C19.3459 64.7289 19.7444 64.3309 20.236 64.3309C20.7275 64.3309 21.126 64.7289 21.126 65.2209V68.6539C21.126 69.146 20.7275 69.544 20.236 69.544ZM20.236 79.2073C19.7444 79.2073 19.3459 78.8093 19.3459 78.3173V74.8842C19.3459 74.3922 19.7444 73.9942 20.236 73.9942C20.7275 73.9942 21.126 74.3922 21.126 74.8842V78.3173C21.126 78.8093 20.7275 79.2073 20.236 79.2073ZM20.236 88.8706C19.7444 88.8706 19.3459 88.4726 19.3459 87.9806V84.5475C19.3459 84.0555 19.7444 83.6575 20.236 83.6575C20.7275 83.6575 21.126 84.0555 21.126 84.5475V87.9806C21.126 88.4726 20.7275 88.8706 20.236 88.8706Z" fill="#1D243A"/>
<path d="M21.7618 96.7539H20.236C19.7444 96.7539 19.3459 96.3559 19.3459 95.8639V94.3381C19.3459 93.846 19.7444 93.448 20.236 93.448C20.7275 93.448 21.126 93.846 21.126 94.3381V94.9738H21.7618C22.2533 94.9738 22.6518 95.3718 22.6518 95.8639C22.6518 96.3559 22.2533 96.7539 21.7618 96.7539Z" fill="#1D243A"/>
<path d="M29.8992 96.7539H26.9748C26.4832 96.7539 26.0847 96.3559 26.0847 95.8639C26.0847 95.3718 26.4832 94.9738 26.9748 94.9738H29.8992C30.3907 94.9738 30.7892 95.3718 30.7892 95.8639C30.7892 96.3559 30.3907 96.7539 29.8992 96.7539Z" fill="#1D243A"/>
<path d="M36.6382 96.7539H34.9853C34.4937 96.7539 34.0952 96.3559 34.0952 95.8639C34.0952 95.3718 34.4937 94.9738 34.9853 94.9738H36.6382C37.1297 94.9738 37.5282 95.3718 37.5282 95.8639C37.5282 96.3559 37.1297 96.7539 36.6382 96.7539Z" fill="#1D243A"/>
<path d="M187.818 88.7437C187.327 88.7437 186.928 88.3457 186.928 87.8536V86.2007C186.928 85.7086 187.327 85.3106 187.818 85.3106C188.31 85.3106 188.708 85.7086 188.708 86.2007V87.8536C188.708 88.3457 188.31 88.7437 187.818 88.7437Z" fill="#1D243A"/>
<path d="M187.818 96.7539H186.165C185.674 96.7539 185.275 96.3559 185.275 95.8639C185.275 95.3718 185.674 94.9738 186.165 94.9738H186.928V94.3381C186.928 93.846 187.327 93.448 187.818 93.448C188.31 93.448 188.708 93.846 188.708 94.3381V95.8639C188.708 96.3559 188.31 96.7539 187.818 96.7539Z" fill="#1D243A"/>
<path d="M174.594 96.7539H172.051C171.561 96.7539 171.161 96.3559 171.161 95.8639C171.161 95.3718 171.561 94.9738 172.051 94.9738H174.594C175.086 94.9738 175.484 95.3718 175.484 95.8639C175.484 96.3559 175.086 96.7539 174.594 96.7539ZM181.715 96.7539H179.172C178.681 96.7539 178.282 96.3559 178.282 95.8639C178.282 95.3718 178.681 94.9738 179.172 94.9738H181.715C182.207 94.9738 182.605 95.3718 182.605 95.8639C182.605 96.3559 182.207 96.7539 181.715 96.7539Z" fill="#1D243A"/>
<path d="M167.474 96.7539H165.948C165.458 96.7539 165.058 96.3559 165.058 95.8639C165.058 95.3718 165.458 94.9738 165.948 94.9738H167.474C167.966 94.9738 168.364 95.3718 168.364 95.8639C168.364 96.3559 167.966 96.7539 167.474 96.7539Z" fill="#1D243A"/>
</svg>
