<svg width="458" height="569" viewBox="0 0 458 569" fill="none" xmlns="http://www.w3.org/2000/svg">
<path d="M103.19 41.9999C221.07 17.1848 300.83 25.5648 342.5 67.1389C405 129.5 399.11 185.499 356 208.999C312.89 232.499 151.35 145.499 107.2 178.999C63.0499 212.499 53.8919 348.499 180.444 333.499C264.812 323.499 326.664 323.666 365.994 333.999C341.224 253.999 356.558 266.832 411.994 372.499C495.149 530.999 341.252 571.459 234.624 524.299" stroke="#979797" stroke-width="2" stroke-dasharray="6 8"/>
<path d="M177.788 273H5.212C2.335 272.997 0.003 270.648 0 267.75V157.25C0.003 154.352 2.335 152.003 5.212 152H177.788C180.665 152.003 182.997 154.352 183 157.25V267.75C182.997 270.648 180.665 272.997 177.788 273V273ZM5.212 153.167C2.974 153.169 1.161 154.997 1.158 157.25V267.75C1.161 270.004 2.974 271.83 5.212 271.833H177.788C180.026 271.831 181.839 270.003 181.842 267.75V157.25C181.839 154.996 180.026 153.17 177.788 153.167H5.212V153.167Z" fill="#3F3D56"/>
<path fill-rule="evenodd" clip-rule="evenodd" d="M5.21196 153.167C2.97396 153.169 1.16096 154.997 1.15796 157.25V267.75C1.16096 270.004 2.97396 271.83 5.21196 271.833H177.788C180.026 271.831 181.839 270.003 181.842 267.75V157.25C181.839 154.996 180.026 153.17 177.788 153.167H5.21196V153.167Z" fill="white"/>
<path d="M106 255C123.673 255 138 240.449 138 222.5C138 204.551 123.673 190 106 190C88.3269 190 74 204.551 74 222.5C74 240.449 88.3269 255 106 255Z" fill="#CCCCCC"/>
<path d="M96 260C78.327 260 64 245.45 64 227.5C64 209.55 78.327 195 96 195C113.673 195 128 209.55 128 227.5C127.98 245.44 113.665 259.98 96 260ZM96 195.97C83.443 195.97 72.123 203.652 67.318 215.434C62.513 227.216 65.169 240.778 74.048 249.795C82.927 258.812 96.28 261.51 107.88 256.63C119.481 251.75 127.045 240.252 127.045 227.5C127.025 210.095 113.137 195.99 96 195.97V195.97Z" fill="#3F3D56"/>
<path d="M75.5 170L46 222H105L75.5 170L46 222H105L75.5 170Z" fill="#E8C81D"/>
<path d="M269 273H458V394H269V273Z" fill="#E6E6E6"/>
<path d="M274 288H452V334H274V288Z" fill="white"/>
<path d="M319 295H356V297H319V295Z" fill="#E6E6E6"/>
<path d="M318 303H376V305H318V303Z" fill="#E8C81D"/>
<path d="M319 311H366V313H319V311ZM318 318H346V320H318V318ZM319 325H360V327H319V325ZM302 294H307V299H302V294Z" fill="#E6E6E6"/>
<path d="M302 302H307V307H302V302Z" fill="#E8C81D"/>
<path d="M302 309H307V314H302V309ZM302 316H307V321H302V316ZM302 324H307V329H302V324ZM412 305H427V320H412V305Z" fill="#E6E6E6"/>
<path d="M274 341H452V387H274V341Z" fill="white"/>
<path d="M310 345H315V350H310V345Z" fill="#E6E6E6"/>
<path d="M302 345H307V350H302V345Z" fill="#E8C81D"/>
<path d="M412 355H427V370H412V355ZM301 365H316V380H301V365Z" fill="#E6E6E6"/>
<path d="M269 273H458V281H269V273Z" fill="#89A2B8"/>
<path d="M274.5 278C275.328 278 276 277.328 276 276.5C276 275.672 275.328 275 274.5 275C273.672 275 273 275.672 273 276.5C273 277.328 273.672 278 274.5 278Z" fill="white"/>
<path d="M280.5 278C281.328 278 282 277.328 282 276.5C282 275.672 281.328 275 280.5 275C279.672 275 279 275.672 279 276.5C279 277.328 279.672 278 280.5 278Z" fill="white"/>
<path d="M286.5 278C287.328 278 288 277.328 288 276.5C288 275.672 287.328 275 286.5 275C285.672 275 285 275.672 285 276.5C285 277.328 285.672 278 286.5 278Z" fill="white"/>
<path d="M405 95.239L362.38 41.977C360.445 43.747 358.061 44.951 355.488 45.457C347.464 47.038 339.628 41.559 337.986 33.219C336.826 27.324 339.073 21.581 343.323 18.161L328.79 0L246 70.761L322.21 166L405 95.239Z" fill="#F2F2F2"/>
<path d="M352.5 42C359.404 42 365 36.6274 365 30C365 23.3726 359.404 18 352.5 18C345.596 18 340 23.3726 340 30C340 36.6274 345.596 42 352.5 42Z" fill="#F2F2F2"/>
<path d="M280.995 23.9998H334.002C339.27 23.9998 343.835 27.6668 344.994 32.8278L371.777 152.138C372.368 154.772 371.77 157.534 370.143 159.684C368.516 161.834 366.027 163.152 363.341 163.284L308.85 165.981C302.814 166.28 297.494 162.035 296.419 156.063L281.226 71.7068L280.096 72.0318L277.188 56.0418L278.352 55.7508L274.111 32.2038C273.743 30.1618 274.301 28.0618 275.631 26.4738C276.963 24.8878 278.929 23.9788 280.995 23.9958V23.9998Z" fill="#89A2B8"/>
<path d="M327.663 27H333.963C337.691 27 340.916 29.562 341.71 33.156L367.887 151.539C368.192 152.919 367.873 154.36 367.012 155.488C366.152 156.616 364.836 157.318 363.408 157.41L308.103 160.986C304.873 161.196 301.999 158.978 301.425 155.834L279.088 33.474C278.796 31.871 279.238 30.222 280.298 28.972C281.355 27.722 282.921 27 284.572 27H290.549C291.739 27 292.779 27.787 293.089 28.92C293.362 29.921 294.281 30.616 295.331 30.616H323.705C325.779 30.616 327.503 29.04 327.662 27H327.663Z" fill="white"/>
<path d="M287 56.861H344V57.861H287V56.861ZM290 66.861H348V67.861H290V66.861ZM290.89 56L292 54.682L291.808 54.554L290.848 55.693L287.152 53L287 53.166L290.89 56ZM297.89 97L299 95.682L298.808 95.554L297.848 96.693L294.152 94L294 94.166L297.89 97Z" fill="#2F2E41"/>
<path d="M293.714 98.4487L352.81 97.1984L352.816 97.4764L293.72 98.7267L293.714 98.4487Z" fill="#2F2E41"/>
<path d="M294.409 106.785L354.618 105.396L354.624 105.674L294.415 107.063L294.409 106.785Z" fill="#2F2E41"/>
<path opacity="0.997" d="M317 129.5C317 136.956 323.044 143 330.5 143C337.956 143 344 136.956 344 129.5C344 129.33 343.997 129.163 343.99 128.996C343.715 121.643 337.604 115.865 330.247 116.002C322.891 116.14 317 122.142 317 129.5Z" fill="#E8C81D"/>
<path opacity="0.237" d="M319 134.039C319 134.202 319.003 134.364 319.01 134.526C321.631 140.044 327.754 143.018 333.747 141.683C339.739 140.349 343.999 135.063 344 128.961C344 128.798 343.997 128.636 343.99 128.474C341.369 122.956 335.246 119.982 329.253 121.317C323.261 122.651 319.001 127.937 319 134.039Z" fill="#3F3D56"/>
<path d="M292.033 555.152H271.78C272.246 554.214 272.488 553.18 272.486 552.133V459.845C272.486 456.098 269.45 453.06 265.706 453.06H108.948C105.204 453.06 102.168 456.098 102.168 459.845V552.136C102.167 553.184 102.408 554.217 102.874 555.155H81.9071C81.4301 555.155 80.9721 555.345 80.6361 555.684C80.2991 556.023 80.111 556.482 80.114 556.959V558.407C80.114 563.951 84.6041 568.445 90.1441 568.445H283.796C286.456 568.445 289.007 567.387 290.888 565.505C292.769 563.622 293.826 561.069 293.826 558.407V556.959C293.829 556.481 293.642 556.021 293.306 555.682C292.968 555.342 292.51 555.152 292.033 555.152ZM167.248 560.893L165.502 558.921H208.615L206.692 560.896L167.248 560.893V560.893Z" fill="#89A2B8"/>
<path d="M246.491 454.064H126.451C113.605 454.064 103.191 464.478 103.191 477.324V534.144C103.191 546.99 113.605 557.404 126.451 557.404H246.491C259.337 557.404 269.751 546.99 269.751 534.144V477.324C269.751 464.478 259.337 454.064 246.491 454.064Z" fill="#89A2B8"/>
<path d="M107.204 469.114H266.734V553.395H107.204V469.114Z" fill="white"/>
<path d="M186.97 463.094C187.801 463.094 188.475 462.42 188.475 461.589C188.475 460.758 187.801 460.084 186.97 460.084C186.139 460.084 185.465 460.758 185.465 461.589C185.465 462.42 186.139 463.094 186.97 463.094Z" fill="white"/>
<path d="M211.19 553.4L205.729 559.04H167.224L162.289 553.4H83.873C82.906 553.4 82.123 554.189 82.123 555.162V556.582C82.123 562.029 86.508 566.443 91.917 566.443H281.027C283.624 566.443 286.115 565.404 287.952 563.555C289.789 561.706 290.822 559.198 290.822 556.583V555.163C290.822 554.189 290.037 553.4 289.07 553.4H211.193H211.19Z" fill="#89A2B8"/>
<path d="M127.271 474.13V546.371H245.671" stroke="#535461" stroke-width="2"/>
<path opacity="0.5" d="M138.308 524.298H150.348V543.362H138.308V524.298Z" fill="#E8C81D"/>
<path opacity="0.7" d="M159.38 507.241H171.42V543.361H159.38V507.241Z" fill="#E8C81D"/>
<path opacity="0.5" d="M180.45 517.274H192.49V543.361H180.45V517.274Z" fill="#E8C81D"/>
<path opacity="0.8" d="M201.52 502.224H213.56V543.361H201.52V502.224Z" fill="#E8C81D"/>
<path d="M222.59 487.174H234.63V543.361H222.59V487.174Z" fill="#E8C81D"/>
<path d="M144.328 513.261L165.749 493.856L186.819 512.201L207.538 489.976L228.609 481.154" stroke="#535461" stroke-width="2"/>
<path d="M143.826 515.267C145.211 515.267 146.334 514.144 146.334 512.759C146.334 511.374 145.211 510.251 143.826 510.251C142.441 510.251 141.318 511.374 141.318 512.759C141.318 514.144 142.441 515.267 143.826 515.267Z" fill="#E8C81D"/>
<path d="M185.97 514.264C187.355 514.264 188.478 513.141 188.478 511.756C188.478 510.371 187.355 509.248 185.97 509.248C184.585 509.248 183.462 510.371 183.462 511.756C183.462 513.141 184.585 514.264 185.97 514.264Z" fill="#E8C81D"/>
<path d="M207.04 492.19C208.425 492.19 209.548 491.067 209.548 489.682C209.548 488.297 208.425 487.174 207.04 487.174C205.655 487.174 204.532 488.297 204.532 489.682C204.532 491.067 205.655 492.19 207.04 492.19Z" fill="#E8C81D"/>
<path d="M165.9 495.2C167.285 495.2 168.408 494.077 168.408 492.692C168.408 491.307 167.285 490.184 165.9 490.184C164.515 490.184 163.392 491.307 163.392 492.692C163.392 494.077 164.515 495.2 165.9 495.2Z" fill="#E8C81D"/>
<path d="M228.11 483.16C229.495 483.16 230.618 482.037 230.618 480.652C230.618 479.267 229.495 478.144 228.11 478.144C226.725 478.144 225.602 479.267 225.602 480.652C225.602 482.037 226.725 483.16 228.11 483.16Z" fill="#E8C81D"/>
<path opacity="0.1" d="M282.79 478.144C282.79 478.144 284.796 477.57 284.796 476.137Z" fill="black"/>
<path d="M88 58C94.0751 58 99 53.0751 99 47C99 40.9249 94.0751 36 88 36C81.9249 36 77 40.9249 77 47C77 53.0751 81.9249 58 88 58Z" fill="#E8C81D" stroke="#979797" stroke-width="2"/>
</svg>
