<svg width="200" height="164" viewBox="0 0 200 164" fill="none" xmlns="http://www.w3.org/2000/svg">
<path d="M21.7342 21.3228L56.6519 0.886772L0.879883 13.1144L21.7342 21.3228Z" fill="#E8C81D"/>
<path d="M46.4508 47.4482L56.6204 0.879579L31.2076 25.1728L46.4508 47.4482Z" fill="#E8C81D"/>
<path d="M23.5726 34.8042L33.3176 28.5082L31.2394 25.1799L23.5726 34.8042Z" fill="#E8C81D"/>
<path d="M104.487 96.5662C102.018 96.8439 99.5542 96.8477 97.0954 96.58C91.2567 95.9418 86.775 101.659 88.7074 107.204C92.7355 118.761 94.6013 132.454 94.7408 146.534L106.951 146.547C107.09 132.455 108.96 118.745 112.996 107.177C114.947 101.581 110.376 95.9041 104.487 96.5662Z" fill="#E8C81D"/>
<path d="M100.846 163.183C91.91 163.183 84.6403 155.913 84.6403 146.978V146.441C84.6403 145.956 85.0335 145.562 85.5198 145.562C86.0048 145.562 86.3993 145.956 86.3993 146.441V146.978C86.3993 154.943 92.88 161.424 100.846 161.424C108.812 161.424 115.292 154.943 115.292 146.978V146.441C115.292 145.956 115.687 145.562 116.172 145.562C116.658 145.562 117.051 145.956 117.051 146.441V146.978C117.051 155.913 109.782 163.183 100.846 163.183Z" fill="#1D243A"/>
<path d="M188.126 141.631L183.359 131.973L178.593 141.631L167.934 143.181L175.647 150.699L173.826 161.315L183.359 156.303L192.893 161.315L191.072 150.699L198.785 143.181L188.126 141.631Z" fill="#E8C81D"/>
<path d="M100.835 49.4382C79.2628 49.4382 61.7117 66.9932 61.7117 88.57C61.7117 99.0525 65.8102 108.903 73.252 116.307C75.7348 118.777 77.6722 121.687 79.0116 124.955C80.3409 128.198 81.0156 131.631 81.0156 135.156V137.983C81.0156 142.285 84.5148 145.784 88.8155 145.784H112.912C117.214 145.784 120.713 142.285 120.713 137.983V135.152C120.713 131.629 121.385 128.199 122.712 124.959C124.05 121.692 125.985 118.784 128.464 116.315C135.891 108.919 139.98 99.0663 139.98 88.57C139.98 66.9932 122.419 49.4382 100.835 49.4382ZM112.912 147.543H88.8155C83.5448 147.543 79.2566 143.255 79.2566 137.983V135.156C79.2566 128.551 76.6155 122.136 72.0107 117.555C68.2326 113.796 65.2661 109.414 63.1917 104.533C61.0432 99.4771 59.9526 94.1059 59.9526 88.57C59.9526 77.6478 64.2044 67.3789 71.9253 59.6555C79.6461 51.9322 89.9137 47.6792 100.835 47.6792C111.758 47.6792 122.03 51.9322 129.755 59.6555C137.484 67.3801 141.739 77.649 141.739 88.57C141.739 94.1096 140.652 99.4822 138.51 104.537C136.441 109.422 133.478 113.803 129.705 117.561C125.108 122.14 122.472 128.551 122.472 135.152V137.983C122.472 143.255 118.182 147.543 112.912 147.543Z" fill="#1D243A"/>
<path d="M106.951 147.426C106.947 147.426 106.945 147.426 106.942 147.426C106.456 147.421 106.067 147.023 106.072 146.538C106.22 131.601 108.327 117.89 112.165 106.886C112.978 104.557 112.546 102.017 111.009 100.092C109.462 98.1525 107.06 97.1612 104.585 97.4388C102.064 97.7228 99.5118 97.7278 97.0001 97.4527C94.5777 97.1888 92.2244 98.1738 90.7016 100.087C89.1587 102.026 88.724 104.578 89.5382 106.915C93.3703 117.909 95.4736 131.605 95.6206 146.524C95.6256 147.009 95.2361 147.407 94.7499 147.412C94.2636 147.416 93.8666 147.027 93.8628 146.542C93.7158 131.811 91.6465 118.31 87.8771 107.493C86.8632 104.584 87.4047 101.405 89.3246 98.993C91.2255 96.6033 94.1669 95.3733 97.1911 95.705C99.5746 95.965 101.996 95.96 104.389 95.6911C107.468 95.3456 110.457 96.5794 112.384 98.9943C114.3 101.395 114.839 104.562 113.826 107.465C110.05 118.291 107.976 131.807 107.831 146.556C107.826 147.038 107.432 147.426 106.951 147.426Z" fill="#1D243A"/>
<path d="M100.846 163.183C91.91 163.183 84.6403 155.913 84.6403 146.978V146.441C84.6403 145.956 85.0335 145.562 85.5198 145.562C86.0048 145.562 86.3993 145.956 86.3993 146.441V146.978C86.3993 154.943 92.88 161.424 100.846 161.424C108.812 161.424 115.292 154.943 115.292 146.978V146.441C115.292 145.956 115.687 145.562 116.172 145.562C116.658 145.562 117.051 145.956 117.051 146.441V146.978C117.051 155.913 109.782 163.183 100.846 163.183Z" fill="#1D243A"/>
<path d="M97.4498 153.132H87.147C86.662 153.132 86.2675 152.739 86.2675 152.252C86.2675 151.766 86.662 151.373 87.147 151.373H97.4498C97.936 151.373 98.3293 151.766 98.3293 152.252C98.3293 152.739 97.936 153.132 97.4498 153.132Z" fill="#1D243A"/>
<path d="M3.89158 13.3548L21.6589 20.3481L51.4076 2.93764L3.89158 13.3548ZM21.7343 22.2026C21.625 22.2026 21.5157 22.1825 21.4126 22.141L0.556987 13.934C0.197645 13.792 -0.0285091 13.4314 0.00290185 13.0457C0.0330564 12.66 0.313252 12.3396 0.69144 12.2566L56.4648 0.0277121C56.8869 -0.0652644 57.3141 0.163437 57.4712 0.566754C57.6295 0.970071 57.4699 1.4274 57.0967 1.64602L22.1791 22.082C22.0421 22.1624 21.8888 22.2026 21.7343 22.2026Z" fill="#1D243A"/>
<path d="M32.3548 25.2916L46.0262 45.2702L55.1466 3.50494L32.3548 25.2916ZM46.4508 48.3271C46.1644 48.3271 45.8905 48.1864 45.7246 47.9439L30.4815 25.6685C30.2377 25.3129 30.288 24.8343 30.5996 24.5365L56.0123 0.244476C56.2925 -0.0231455 56.7134 -0.0771724 57.0514 0.11255C57.3881 0.302272 57.5628 0.689255 57.4798 1.06744L47.3102 47.6349C47.2348 47.9779 46.9634 48.2442 46.6192 48.3108C46.5626 48.3221 46.5061 48.3271 46.4508 48.3271Z" fill="#1D243A"/>
<path d="M23.5725 35.6841C23.4959 35.6841 23.4167 35.674 23.3401 35.6527C23.0008 35.5597 22.7495 35.272 22.7018 34.9239L20.8624 21.4411C20.797 20.9599 21.1338 20.5176 21.615 20.451C22.0974 20.3869 22.5397 20.7224 22.6063 21.2036L24.1668 32.6473L30.552 24.6312C30.8536 24.2518 31.4076 24.1889 31.7871 24.4917C32.1678 24.7945 32.2294 25.3473 31.9278 25.728L24.261 35.3524C24.0914 35.5647 23.8364 35.6841 23.5725 35.6841Z" fill="#1D243A"/>
<path d="M23.5738 35.6841C23.2848 35.6841 23.0021 35.5421 22.835 35.282C22.5711 34.8737 22.688 34.3296 23.0963 34.0658L32.84 27.7697C33.2483 27.5059 33.7924 27.6227 34.0562 28.0311C34.3201 28.4394 34.2032 28.9835 33.7949 29.2473L24.0499 35.5433C23.9029 35.6388 23.7371 35.6841 23.5738 35.6841Z" fill="#1D243A"/>
<path d="M169.823 143.794L176.26 150.068C176.467 150.27 176.563 150.561 176.514 150.847L174.994 159.706L182.951 155.523C183.207 155.389 183.512 155.389 183.768 155.523L191.726 159.706L190.205 150.847C190.156 150.561 190.252 150.27 190.459 150.068L196.896 143.794L188 142.501C187.714 142.46 187.466 142.28 187.338 142.02L183.36 133.96L179.381 142.02C179.253 142.28 179.005 142.46 178.719 142.501L169.823 143.794ZM173.826 162.194C173.644 162.194 173.462 162.137 173.309 162.025C173.038 161.829 172.903 161.495 172.959 161.166L174.702 151.005L167.32 143.809C167.08 143.576 166.994 143.226 167.097 142.909C167.201 142.589 167.476 142.358 167.807 142.309L178.009 140.827L182.571 131.583C182.719 131.283 183.025 131.093 183.36 131.093C183.694 131.093 184 131.283 184.148 131.583L188.71 140.827L198.911 142.309C199.243 142.358 199.518 142.589 199.622 142.909C199.725 143.226 199.639 143.576 199.399 143.809L192.017 151.005L193.76 161.166C193.816 161.495 193.681 161.829 193.41 162.025C193.139 162.223 192.78 162.248 192.484 162.092L183.36 157.296L174.235 162.092C174.106 162.16 173.966 162.194 173.826 162.194Z" fill="#1D243A"/>
<path d="M23.5712 40.0525C23.0862 40.0525 22.6917 39.6592 22.6917 39.173V37.5396C22.6917 37.0534 23.0862 36.6601 23.5712 36.6601C24.0574 36.6601 24.4507 37.0534 24.4507 37.5396V39.173C24.4507 39.6592 24.0574 40.0525 23.5712 40.0525Z" fill="#1D243A"/>
<path d="M23.5712 48.8475C23.0862 48.8475 22.6917 48.4543 22.6917 47.968V44.8269C22.6917 44.3407 23.0862 43.9474 23.5712 43.9474C24.0574 43.9474 24.4507 44.3407 24.4507 44.8269V47.968C24.4507 48.4543 24.0574 48.8475 23.5712 48.8475ZM23.5712 57.6426C23.0862 57.6426 22.6917 57.2493 22.6917 56.7631V53.622C22.6917 53.1358 23.0862 52.7425 23.5712 52.7425C24.0574 52.7425 24.4507 53.1358 24.4507 53.622V56.7631C24.4507 57.2493 24.0574 57.6426 23.5712 57.6426ZM23.5712 66.4377C23.0862 66.4377 22.6917 66.0444 22.6917 65.5582V62.4171C22.6917 61.9308 23.0862 61.5376 23.5712 61.5376C24.0574 61.5376 24.4507 61.9308 24.4507 62.4171V65.5582C24.4507 66.0444 24.0574 66.4377 23.5712 66.4377ZM23.5712 75.2328C23.0862 75.2328 22.6917 74.8395 22.6917 74.3533V71.2122C22.6917 70.7259 23.0862 70.3326 23.5712 70.3326C24.0574 70.3326 24.4507 70.7259 24.4507 71.2122V74.3533C24.4507 74.8395 24.0574 75.2328 23.5712 75.2328ZM23.5712 84.0278C23.0862 84.0278 22.6917 83.6346 22.6917 83.1483V80.0072C22.6917 79.521 23.0862 79.1277 23.5712 79.1277C24.0574 79.1277 24.4507 79.521 24.4507 80.0072V83.1483C24.4507 83.6346 24.0574 84.0278 23.5712 84.0278Z" fill="#1D243A"/>
<path d="M25.0789 91.4409H23.5712C23.0862 91.4409 22.6917 91.0477 22.6917 90.5614V89.0537C22.6917 88.5674 23.0862 88.1742 23.5712 88.1742C24.0574 88.1742 24.4507 88.5674 24.4507 89.0537V89.6819H25.0789C25.5651 89.6819 25.9584 90.0752 25.9584 90.5614C25.9584 91.0477 25.5651 91.4409 25.0789 91.4409Z" fill="#1D243A"/>
<path d="M35.3817 91.4409H31.738C31.253 91.4409 30.8585 91.0477 30.8585 90.5614C30.8585 90.0752 31.253 89.6819 31.738 89.6819H35.3817C35.8679 89.6819 36.2612 90.0752 36.2612 90.5614C36.2612 91.0477 35.8679 91.4409 35.3817 91.4409ZM45.6845 91.4409H42.0408C41.5558 91.4409 41.1613 91.0477 41.1613 90.5614C41.1613 90.0752 41.5558 89.6819 42.0408 89.6819H45.6845C46.1707 89.6819 46.564 90.0752 46.564 90.5614C46.564 91.0477 46.1707 91.4409 45.6845 91.4409Z" fill="#1D243A"/>
<path d="M53.8514 91.4409H52.218C51.733 91.4409 51.3385 91.0477 51.3385 90.5614C51.3385 90.0752 51.733 89.6819 52.218 89.6819H53.8514C54.3376 89.6819 54.7309 90.0752 54.7309 90.5614C54.7309 91.0477 54.3376 91.4409 53.8514 91.4409Z" fill="#1D243A"/>
<path d="M183.39 125.365C182.905 125.365 182.511 124.972 182.511 124.485V122.978C182.511 122.492 182.905 122.098 183.39 122.098C183.876 122.098 184.27 122.492 184.27 122.978V124.485C184.27 124.972 183.876 125.365 183.39 125.365Z" fill="#1D243A"/>
<path d="M183.39 101.493C182.905 101.493 182.511 101.099 182.511 100.613V97.5976C182.511 97.1114 182.905 96.7181 183.39 96.7181C183.876 96.7181 184.27 97.1114 184.27 97.5976V100.613C184.27 101.099 183.876 101.493 183.39 101.493ZM183.39 109.911C182.905 109.911 182.511 109.517 182.511 109.031V106.016C182.511 105.53 182.905 105.136 183.39 105.136C183.876 105.136 184.27 105.53 184.27 106.016V109.031C184.27 109.517 183.876 109.911 183.39 109.911ZM183.39 118.329C182.905 118.329 182.511 117.936 182.511 117.449V114.434C182.511 113.948 182.905 113.554 183.39 113.554C183.876 113.554 184.27 113.948 184.27 114.434V117.449C184.27 117.936 183.876 118.329 183.39 118.329Z" fill="#1D243A"/>
<path d="M183.39 93.075C182.905 93.075 182.511 92.6817 182.511 92.1954V91.4416H181.757C181.272 91.4416 180.877 91.0483 180.877 90.5621C180.877 90.0758 181.272 89.6826 181.757 89.6826H183.39C183.876 89.6826 184.27 90.0758 184.27 90.5621V92.1954C184.27 92.6817 183.876 93.075 183.39 93.075Z" fill="#1D243A"/>
<path d="M157.884 91.4409H154.618C154.133 91.4409 153.738 91.0477 153.738 90.5614C153.738 90.0752 154.133 89.6819 154.618 89.6819H157.884C158.371 89.6819 158.764 90.0752 158.764 90.5614C158.764 91.0477 158.371 91.4409 157.884 91.4409ZM166.931 91.4409H163.664C163.179 91.4409 162.785 91.0477 162.785 90.5614C162.785 90.0752 163.179 89.6819 163.664 89.6819H166.931C167.417 89.6819 167.81 90.0752 167.81 90.5614C167.81 91.0477 167.417 91.4409 166.931 91.4409ZM175.977 91.4409H172.71C172.225 91.4409 171.831 91.0477 171.831 90.5614C171.831 90.0752 172.225 89.6819 172.71 89.6819H175.977C176.463 89.6819 176.857 90.0752 176.857 90.5614C176.857 91.0477 176.463 91.4409 175.977 91.4409Z" fill="#1D243A"/>
<path d="M148.838 91.4409H147.331C146.846 91.4409 146.451 91.0477 146.451 90.5614C146.451 90.0752 146.846 89.6819 147.331 89.6819H148.838C149.325 89.6819 149.718 90.0752 149.718 90.5614C149.718 91.0477 149.325 91.4409 148.838 91.4409Z" fill="#1D243A"/>
<path d="M163.79 51.1096C163.305 51.1096 162.91 50.7164 162.91 50.2301V44.5761C162.91 44.0899 163.305 43.6966 163.79 43.6966C164.276 43.6966 164.669 44.0899 164.669 44.5761V50.2301C164.669 50.7164 164.276 51.1096 163.79 51.1096Z" fill="#1D243A"/>
<path d="M166.68 48.3452H161.026C160.541 48.3452 160.146 47.9519 160.146 47.4657C160.146 46.9795 160.541 46.5862 161.026 46.5862H166.68C167.166 46.5862 167.559 46.9795 167.559 47.4657C167.559 47.9519 167.166 48.3452 166.68 48.3452Z" fill="#1D243A"/>
<path d="M30.3561 114.057C29.8711 114.057 29.4766 113.664 29.4766 113.178V107.524C29.4766 107.037 29.8711 106.644 30.3561 106.644C30.8423 106.644 31.2356 107.037 31.2356 107.524V113.178C31.2356 113.664 30.8423 114.057 30.3561 114.057Z" fill="#1D243A"/>
<path d="M33.2458 111.293H27.5918C27.1068 111.293 26.7123 110.899 26.7123 110.413C26.7123 109.927 27.1068 109.534 27.5918 109.534H33.2458C33.732 109.534 34.1253 109.927 34.1253 110.413C34.1253 110.899 33.732 111.293 33.2458 111.293Z" fill="#1D243A"/>
<path d="M64.4055 42.6917C63.9205 42.6917 63.526 42.2984 63.526 41.8121V36.1582C63.526 35.6719 63.9205 35.2787 64.4055 35.2787C64.8918 35.2787 65.285 35.6719 65.285 36.1582V41.8121C65.285 42.2984 64.8918 42.6917 64.4055 42.6917Z" fill="#1D243A"/>
<path d="M67.2954 39.9272H61.6415C61.1565 39.9272 60.762 39.534 60.762 39.0477C60.762 38.5615 61.1565 38.1682 61.6415 38.1682H67.2954C67.7817 38.1682 68.175 38.5615 68.175 39.0477C68.175 39.534 67.7817 39.9272 67.2954 39.9272Z" fill="#1D243A"/>
<path d="M144.441 159.415C143.956 159.415 143.561 159.021 143.561 158.535V152.881C143.561 152.395 143.956 152.002 144.441 152.002C144.927 152.002 145.32 152.395 145.32 152.881V158.535C145.32 159.021 144.927 159.415 144.441 159.415Z" fill="#1D243A"/>
<path d="M147.33 156.65H141.676C141.191 156.65 140.797 156.257 140.797 155.77C140.797 155.284 141.191 154.891 141.676 154.891H147.33C147.817 154.891 148.21 155.284 148.21 155.77C148.21 156.257 147.817 156.65 147.33 156.65Z" fill="#1D243A"/>
<path d="M191.795 5.44298C191.795 4.74942 192.311 4.18654 193.065 4.18654V4.18781C193.693 4.18781 194.308 4.74942 194.308 5.44298C194.308 6.13779 193.745 6.69942 193.051 6.69942C192.356 6.69942 191.795 6.13779 191.795 5.44298ZM196.045 7.86918C195.534 7.40053 195.5 6.60519 195.969 6.09382C196.437 5.58245 197.231 5.5473 197.744 6.01721C198.255 6.48586 198.289 7.27989 197.821 7.79252C197.573 8.06265 197.234 8.19963 196.895 8.19963C196.59 8.19963 196.286 8.09031 196.045 7.86918ZM188.091 8.03502C187.597 7.54752 187.592 6.75222 188.079 6.25844C188.567 5.76466 189.362 5.7596 189.856 6.2471C190.35 6.73585 190.355 7.53118 189.867 8.02496C189.621 8.27374 189.297 8.39816 188.973 8.39816C188.654 8.39816 188.336 8.27751 188.091 8.03502ZM197.489 10.9864C197.462 10.2929 198.004 9.70986 198.698 9.68474C199.391 9.65835 199.974 10.1999 199.999 10.8934C200.026 11.587 199.484 12.17 198.79 12.1951C198.774 12.1964 198.759 12.1963 198.743 12.1963C198.071 12.1963 197.514 11.6636 197.489 10.9864ZM186.069 11.2691C186.062 10.5756 186.617 9.99257 187.31 9.98378C188.004 9.97498 188.573 10.5504 188.582 11.2452C188.591 11.9388 188.035 12.5369 187.342 12.5369C187.336 12.5369 187.331 12.5369 187.325 12.5369C186.639 12.5369 186.078 11.9577 186.069 11.2691ZM196.339 15.9808C195.834 15.5058 195.809 14.7105 196.284 14.2041C196.759 13.699 197.554 13.6739 198.06 14.1489C198.566 14.6238 198.591 15.4191 198.116 15.9255C197.868 16.1881 197.534 16.3212 197.2 16.3212C196.891 16.3212 196.582 16.2082 196.339 15.9808ZM188.202 16.173C187.704 15.6918 187.689 14.8964 188.17 14.3964C188.651 13.8963 189.446 13.8825 189.946 14.3637C190.446 14.8449 190.462 15.6403 189.979 16.1403C189.733 16.3966 189.404 16.5248 189.074 16.5248C188.76 16.5248 188.446 16.4079 188.202 16.173ZM191.924 16.8678C191.906 16.1742 192.456 15.6113 193.149 15.595C193.843 15.5774 194.419 16.1064 194.436 16.7987C194.453 17.4922 193.904 18.0652 193.211 18.0652C193.201 18.0652 193.189 18.0652 193.179 18.0652C192.499 18.0652 191.94 17.5513 191.924 16.8678Z" fill="#1D243A"/>
<path d="M112.248 15.1175C112.248 14.424 112.81 13.8611 113.505 13.8611C114.198 13.8611 114.761 14.424 114.761 15.1175C114.761 15.8123 114.198 16.374 113.505 16.374C112.81 16.374 112.248 15.8123 112.248 15.1175ZM116.512 17.5437C116.001 17.0751 115.966 16.2798 116.436 15.7684C116.904 15.257 117.699 15.2231 118.211 15.6918C118.723 16.1604 118.756 16.9545 118.288 17.4671C118.04 17.7372 117.701 17.8742 117.362 17.8742C117.058 17.8742 116.754 17.7649 116.512 17.5437ZM108.558 17.7096C108.064 17.2221 108.059 16.4268 108.547 15.933C109.034 15.4392 109.829 15.4342 110.323 15.9217C110.817 16.4104 110.822 17.2057 110.335 17.6995C110.088 17.9483 109.764 18.0727 109.44 18.0727C109.121 18.0727 108.802 17.9521 108.558 17.7096ZM117.956 20.6421C117.93 19.9486 118.471 19.3756 119.165 19.3505C119.858 19.3254 120.441 19.8518 120.466 20.5454C120.493 21.2389 119.951 21.8345 119.258 21.8345C119.243 21.8345 119.226 21.8345 119.211 21.8345C118.538 21.8345 117.981 21.3206 117.956 20.6421ZM106.536 20.9437C106.529 20.2501 107.084 19.6671 107.778 19.6583C108.471 19.6495 109.042 20.225 109.049 20.9198C109.058 21.6133 108.503 22.2114 107.809 22.2114C107.803 22.2114 107.798 22.2114 107.793 22.2114C107.107 22.2114 106.545 21.6322 106.536 20.9437ZM116.806 25.6553C116.301 25.1791 116.276 24.385 116.751 23.8787C117.226 23.3736 118.021 23.3485 118.528 23.8234C119.033 24.2996 119.058 25.0937 118.583 25.6C118.336 25.8626 118.001 25.9958 117.667 25.9958C117.358 25.9958 117.049 25.8827 116.806 25.6553ZM108.671 25.8475C108.171 25.3663 108.156 24.571 108.637 24.0709C109.118 23.5709 109.914 23.557 110.414 24.0383C110.914 24.5195 110.929 25.3148 110.446 25.8149C110.2 26.0712 109.871 26.1993 109.542 26.1993C109.229 26.1993 108.913 26.0825 108.671 25.8475ZM112.391 26.5423C112.374 25.8488 112.923 25.2859 113.616 25.2696C114.31 25.252 114.887 25.7809 114.903 26.4732C114.921 27.1668 114.371 27.7397 113.678 27.7397C113.668 27.7397 113.657 27.7397 113.646 27.7397C112.967 27.7397 112.408 27.2246 112.391 26.5423Z" fill="#1D243A"/>
<path d="M54.2006 133.097C54.2006 132.403 54.7622 131.84 55.4571 131.84C56.1506 131.84 56.7135 132.403 56.7135 133.097C56.7135 133.792 56.1506 134.353 55.4571 134.353C54.7622 134.353 54.2006 133.792 54.2006 133.097ZM58.465 135.523C57.9536 135.054 57.9197 134.259 58.3883 133.748C58.857 133.236 59.651 133.202 60.1624 133.671C60.675 134.14 60.709 134.934 60.2403 135.446C59.9928 135.716 59.6536 135.853 59.3143 135.853C59.0103 135.853 58.7062 135.744 58.465 135.523ZM50.5105 135.689C50.0167 135.201 50.0116 134.406 50.4991 133.912C50.9866 133.418 51.782 133.413 52.2758 133.901C52.7695 134.39 52.7746 135.185 52.2871 135.679C52.0408 135.928 51.7166 136.052 51.3925 136.052C51.0733 136.052 50.7542 135.931 50.5105 135.689ZM59.9086 138.621C59.8822 137.928 60.4238 137.355 61.1173 137.33C61.8109 137.303 62.3938 137.831 62.419 138.525C62.4454 139.218 61.9038 139.814 61.2103 139.814C61.194 139.814 61.1789 139.814 61.1625 139.814C60.4903 139.814 59.9338 139.299 59.9086 138.621ZM48.4888 138.923C48.4813 138.229 49.0367 137.646 49.7302 137.638C50.4238 137.629 50.9942 138.204 51.0017 138.899C51.0105 139.593 50.4552 140.191 49.7616 140.191C49.7553 140.191 49.7503 140.191 49.7453 140.191C49.058 140.191 48.4976 139.611 48.4888 138.923ZM58.759 143.635C58.2539 143.16 58.2288 142.364 58.7037 141.858C59.1786 141.353 59.974 141.328 60.4803 141.803C60.9854 142.278 61.0105 143.073 60.5356 143.579C60.2881 143.842 59.9539 143.975 59.6196 143.975C59.3106 143.975 59.0015 143.862 58.759 143.635ZM50.6235 143.827C50.1235 143.346 50.1084 142.55 50.5896 142.05C51.0708 141.55 51.8661 141.536 52.3662 142.018C52.8663 142.499 52.8801 143.294 52.4002 143.794C52.1526 144.05 51.8234 144.179 51.4942 144.179C51.1814 144.179 50.8673 144.062 50.6235 143.827ZM54.3439 144.522C54.3263 143.828 54.8753 143.265 55.5689 143.249C56.2624 143.231 56.8391 143.758 56.8555 144.452C56.8731 145.146 56.324 145.719 55.6305 145.719C55.6204 145.719 55.6103 145.719 55.599 145.719C54.9193 145.719 54.3602 145.204 54.3439 144.522Z" fill="#1D243A"/>
<path d="M9.84844 147.169C9.84844 146.476 10.4101 145.913 11.1049 145.913C11.7984 145.913 12.3613 146.476 12.3613 147.169C12.3613 147.864 11.7984 148.426 11.1049 148.426C10.4101 148.426 9.84844 147.864 9.84844 147.169ZM14.1128 149.595C13.6014 149.127 13.5663 148.331 14.0362 147.82C14.5048 147.309 15.2989 147.275 15.8102 147.743C16.3229 148.212 16.3568 149.006 15.8882 149.519C15.6406 149.789 15.3014 149.926 14.9621 149.926C14.6581 149.926 14.354 149.816 14.1128 149.595ZM6.15829 149.761C5.66451 149.274 5.65948 148.478 6.14698 147.985C6.63447 147.491 7.4298 147.486 7.92358 147.973C8.41737 148.462 8.4224 149.257 7.9349 149.751C7.68864 150 7.36446 150.124 7.0403 150.124C6.72116 150.124 6.40204 150.004 6.15829 149.761ZM15.5565 152.694C15.5301 152 16.0716 151.427 16.7651 151.402C17.4587 151.377 18.0417 151.903 18.0668 152.597C18.0932 153.29 17.5517 153.886 16.8581 153.886C16.8418 153.886 16.8267 153.886 16.8116 153.886C16.1382 153.886 15.5816 153.373 15.5565 152.694ZM4.13667 152.995C4.12913 152.302 4.68449 151.719 5.37804 151.71C6.0716 151.701 6.64076 152.276 6.64955 152.971C6.65835 153.665 6.10301 154.263 5.40946 154.263C5.40317 154.263 5.39814 154.263 5.39311 154.263C4.7071 154.263 4.14547 153.684 4.13667 152.995ZM14.4068 157.707C13.9017 157.232 13.8766 156.437 14.3515 155.93C14.8265 155.425 15.6218 155.4 16.1281 155.875C16.6332 156.35 16.6584 157.145 16.1834 157.652C15.9359 157.914 15.6017 158.047 15.2675 158.047C14.9584 158.047 14.6493 157.934 14.4068 157.707ZM6.27137 157.899C5.7713 157.418 5.75621 156.623 6.23743 156.122C6.71865 155.624 7.51398 155.609 8.01404 156.09C8.5141 156.571 8.52917 157.366 8.0467 157.866C7.80044 158.121 7.47125 158.251 7.14207 158.251C6.82921 158.251 6.51512 158.134 6.27137 157.899ZM9.99168 158.594C9.97409 157.9 10.5232 157.337 11.2167 157.321C11.9103 157.304 12.487 157.831 12.5033 158.525C12.5209 159.218 11.9718 159.791 11.2783 159.791C11.2682 159.791 11.2569 159.791 11.2469 159.791C10.5671 159.791 10.008 159.277 9.99168 158.594Z" fill="#1D243A"/>
<path d="M145.795 118.774C145.795 118.08 146.357 117.517 147.052 117.517C147.745 117.517 148.308 118.08 148.308 118.774C148.308 119.469 147.745 120.03 147.052 120.03C146.357 120.03 145.795 119.469 145.795 118.774ZM150.059 121.2C149.548 120.731 149.514 119.936 149.983 119.425C150.451 118.913 151.246 118.879 151.758 119.348C152.27 119.817 152.303 120.611 151.835 121.123C151.587 121.393 151.248 121.53 150.909 121.53C150.605 121.53 150.301 121.421 150.059 121.2ZM142.105 121.366C141.611 120.878 141.606 120.083 142.094 119.589C142.581 119.095 143.376 119.09 143.87 119.578C144.364 120.067 144.369 120.862 143.882 121.356C143.635 121.605 143.311 121.729 142.987 121.729C142.668 121.729 142.35 121.608 142.105 121.366ZM151.503 124.298C151.477 123.605 152.018 123.032 152.712 123.007C153.405 122.982 153.988 123.508 154.013 124.202C154.04 124.895 153.498 125.491 152.805 125.491C152.79 125.491 152.773 125.491 152.758 125.491C152.085 125.491 151.528 124.978 151.503 124.298ZM140.083 124.6C140.076 123.906 140.631 123.323 141.325 123.315C142.018 123.306 142.589 123.881 142.596 124.576C142.605 125.27 142.05 125.868 141.356 125.868C141.35 125.868 141.345 125.868 141.34 125.868C140.654 125.868 140.092 125.288 140.083 124.6ZM150.353 129.312C149.848 128.837 149.823 128.041 150.298 127.535C150.773 127.03 151.568 127.005 152.075 127.48C152.58 127.956 152.605 128.75 152.13 129.256C151.883 129.519 151.548 129.652 151.214 129.652C150.905 129.652 150.596 129.539 150.353 129.312ZM142.218 129.511H142.217C141.718 129.009 141.703 128.231 142.184 127.731C142.665 127.231 143.461 127.215 143.961 127.697C144.461 128.177 144.476 128.972 143.993 129.472C143.747 129.729 143.418 129.859 143.089 129.859C142.775 129.859 142.462 129.763 142.218 129.511ZM145.938 130.199C145.921 129.505 146.47 128.942 147.163 128.925C147.857 128.908 148.434 129.435 148.45 130.129C148.468 130.823 147.918 131.396 147.225 131.396C147.215 131.396 147.204 131.396 147.193 131.396C146.514 131.396 145.955 130.882 145.938 130.199Z" fill="#1D243A"/>
</svg>
