<svg width="200" height="166" viewBox="0 0 200 166" fill="none" xmlns="http://www.w3.org/2000/svg">
<path d="M179.751 78.4343H156.577C155.966 78.4343 155.47 78.9292 155.47 79.5397V82.8394C155.47 83.45 155.966 83.9448 156.577 83.9448H166.993H173.762H179.751C180.361 83.9448 180.856 83.45 180.856 82.8394V79.5397C180.856 78.9292 180.361 78.4343 179.751 78.4343Z" fill="#CCCCCC"/>
<path d="M29.8102 34.3923C27.5543 34.3923 25.7259 32.5644 25.7259 30.309C25.7259 28.0537 27.5543 26.2245 29.8102 26.2245C32.0661 26.2245 33.8945 28.0537 33.8945 30.309C33.8945 32.5644 32.0661 34.3923 29.8102 34.3923ZM29.8102 21.9364C25.1877 21.9364 21.4419 25.6826 21.4419 30.3039C21.4419 34.924 25.1877 38.6702 29.8102 38.6702C34.4314 38.6702 38.1786 34.924 38.1786 30.3039C38.1786 25.6826 34.4314 21.9364 29.8102 21.9364Z" fill="#CCCCCC"/>
<path d="M168.189 59.7823C153.468 59.7823 141.533 47.8506 141.533 33.133C141.533 18.4141 153.468 6.48234 168.189 6.48234C182.911 6.48234 194.846 18.4141 194.846 33.133C194.846 47.8506 182.911 59.7823 168.189 59.7823ZM168.189 2.55301C151.297 2.55301 137.602 16.244 137.602 33.133C137.602 50.0207 151.297 63.7117 168.189 63.7117C185.082 63.7117 198.776 50.0207 198.776 33.133C198.776 16.244 185.082 2.55301 168.189 2.55301Z" fill="#E8C81D"/>
<path d="M42.8329 123.247H136.988V104.548H42.8329V123.247Z" fill="#E8C81D"/>
<path d="M144.882 134.215H34.9494C34.4582 134.215 34.0587 133.817 34.0587 133.324C34.0587 132.832 34.4582 132.434 34.9494 132.434H144.882C145.374 132.434 145.772 132.832 145.772 133.324C145.772 133.817 145.374 134.215 144.882 134.215Z" fill="#1D243A"/>
<path d="M77.1918 165.38C76.7007 165.38 76.3011 164.982 76.3011 164.489V143.882C76.3011 143.39 76.7007 142.992 77.1918 142.992C77.6842 142.992 78.0825 143.39 78.0825 143.882V164.489C78.0825 164.982 77.6842 165.38 77.1918 165.38Z" fill="#1D243A"/>
<path d="M102.639 165.38C102.148 165.38 101.748 164.982 101.748 164.489V143.882C101.748 143.39 102.148 142.992 102.639 142.992C103.131 142.992 103.53 143.39 103.53 143.882V164.489C103.53 164.982 103.131 165.38 102.639 165.38Z" fill="#1D243A"/>
<path d="M113.836 165.889H66.1222C65.6311 165.889 65.2316 165.491 65.2316 164.998C65.2316 164.506 65.6311 164.108 66.1222 164.108H113.836C114.328 164.108 114.727 164.506 114.727 164.998C114.727 165.491 114.328 165.889 113.836 165.889Z" fill="#1D243A"/>
<path d="M89.8595 137.569C89.4104 137.569 89.044 137.934 89.044 138.383C89.044 138.832 89.4104 139.197 89.8595 139.197C90.3074 139.197 90.6739 138.832 90.6739 138.383C90.6739 137.934 90.3074 137.569 89.8595 137.569ZM89.8595 140.978C88.4281 140.978 87.2627 139.814 87.2627 138.383C87.2627 136.952 88.4281 135.788 89.8595 135.788C91.2897 135.788 92.4552 136.952 92.4552 138.383C92.4552 139.814 91.2897 140.978 89.8595 140.978Z" fill="#1D243A"/>
<path d="M39.2665 68.7043C37.3707 68.7043 35.8285 70.2461 35.8285 72.1414V139.174C35.8285 141.07 37.3707 142.611 39.2665 142.611H140.517C142.413 142.611 143.955 141.07 143.955 139.174V72.1414C143.955 70.2461 142.413 68.7043 140.517 68.7043H39.2665ZM140.517 144.392H39.2665C36.3897 144.392 34.0472 142.051 34.0472 139.174V72.1414C34.0472 69.264 36.3897 66.9235 39.2665 66.9235H140.517C143.394 66.9235 145.737 69.264 145.737 72.1414V139.174C145.737 142.051 143.394 144.392 140.517 144.392Z" fill="#1D243A"/>
<path d="M43.7236 122.357H136.097V105.439H43.7236V122.357ZM136.988 124.138H42.8329C42.3405 124.138 41.9423 123.74 41.9423 123.247V104.548C41.9423 104.056 42.3405 103.658 42.8329 103.658H136.988C137.479 103.658 137.878 104.056 137.878 104.548V123.247C137.878 123.74 137.479 124.138 136.988 124.138Z" fill="#1D243A"/>
<path d="M52.2534 124.166C51.7623 124.166 51.3628 123.767 51.3628 123.275V112.59C51.3628 112.098 51.7623 111.699 52.2534 111.699C52.7459 111.699 53.1441 112.098 53.1441 112.59V123.275C53.1441 123.767 52.7459 124.166 52.2534 124.166Z" fill="#1D243A"/>
<path d="M61.669 124.166C61.1778 124.166 60.7783 123.767 60.7783 123.275V110.3C60.7783 109.808 61.1778 109.41 61.669 109.41C62.1614 109.41 62.5596 109.808 62.5596 110.3V123.275C62.5596 123.767 62.1614 124.166 61.669 124.166Z" fill="#1D243A"/>
<path d="M71.0845 124.166C70.5934 124.166 70.1938 123.767 70.1938 123.275V108.647C70.1938 108.154 70.5934 107.756 71.0845 107.756C71.5769 107.756 71.9752 108.154 71.9752 108.647V123.275C71.9752 123.767 71.5769 124.166 71.0845 124.166Z" fill="#1D243A"/>
<path d="M80.5 123.911C80.0089 123.911 79.6094 123.513 79.6094 123.021V119.841C79.6094 119.348 80.0089 118.95 80.5 118.95C80.9924 118.95 81.3907 119.348 81.3907 119.841V123.021C81.3907 123.513 80.9924 123.911 80.5 123.911Z" fill="#1D243A"/>
<path d="M89.9154 124.166C89.4243 124.166 89.0248 123.767 89.0248 123.275V114.752C89.0248 114.26 89.4243 113.862 89.9154 113.862C90.4078 113.862 90.8061 114.26 90.8061 114.752V123.275C90.8061 123.767 90.4078 124.166 89.9154 124.166Z" fill="#1D243A"/>
<path d="M99.331 124.166C98.8398 124.166 98.4403 123.767 98.4403 123.275V112.463C98.4403 111.97 98.8398 111.572 99.331 111.572C99.8234 111.572 100.222 111.97 100.222 112.463V123.275C100.222 123.767 99.8234 124.166 99.331 124.166Z" fill="#1D243A"/>
<path d="M108.746 124.166C108.255 124.166 107.856 123.767 107.856 123.275V116.406C107.856 115.914 108.255 115.516 108.746 115.516C109.239 115.516 109.637 115.914 109.637 116.406V123.275C109.637 123.767 109.239 124.166 108.746 124.166Z" fill="#1D243A"/>
<path d="M118.162 124.166C117.671 124.166 117.271 123.767 117.271 123.275V114.752C117.271 114.26 117.671 113.862 118.162 113.862C118.654 113.862 119.053 114.26 119.053 114.752V123.275C119.053 123.767 118.654 124.166 118.162 124.166Z" fill="#1D243A"/>
<path d="M127.577 124.166C127.086 124.166 126.687 123.767 126.687 123.275V109.41C126.687 108.918 127.086 108.519 127.577 108.519C128.07 108.519 128.468 108.918 128.468 109.41V123.275C128.468 123.767 128.07 124.166 127.577 124.166Z" fill="#1D243A"/>
<path d="M168.189 7.37288C153.982 7.37288 142.423 18.9281 142.423 33.1318C142.423 47.3367 153.982 58.892 168.189 58.892C182.397 58.892 193.955 47.3367 193.955 33.1318C193.955 18.9281 182.397 7.37288 168.189 7.37288ZM168.189 60.6729C160.831 60.6729 153.913 57.8082 148.71 52.6068C143.507 47.4054 140.642 40.4893 140.642 33.1318C140.642 25.7756 143.507 18.8595 148.71 13.6581C153.913 8.45668 160.831 5.59201 168.189 5.59201C175.547 5.59201 182.465 8.45668 187.669 13.6581C192.871 18.8595 195.737 25.7756 195.737 33.1318C195.737 40.4893 192.871 47.4054 187.669 52.6068C182.465 57.8082 175.547 60.6729 168.189 60.6729Z" fill="#1D243A"/>
<path d="M168.189 3.4434C151.815 3.4434 138.493 16.7617 138.493 33.1316C138.493 49.5029 151.815 62.8212 168.189 62.8212C184.564 62.8212 197.886 49.5029 197.886 33.1316C197.886 16.7617 184.564 3.4434 168.189 3.4434ZM168.189 64.6021C159.781 64.6021 151.877 61.3278 145.931 55.3848C139.985 49.4405 136.712 41.5386 136.712 33.1316C136.712 24.726 139.985 16.824 145.931 10.8797C151.877 4.93675 159.781 1.66254 168.189 1.66254C176.596 1.66254 184.502 4.93675 190.447 10.8797C196.392 16.824 199.667 24.726 199.667 33.1316C199.667 41.5386 196.392 49.4405 190.447 55.3848C184.502 61.3278 176.596 64.6021 168.189 64.6021Z" fill="#1D243A"/>
<path d="M168.039 79.2625C167.547 79.2625 167.148 78.8643 167.148 78.372V63.7435C167.148 63.2512 167.547 62.8531 168.039 62.8531C168.531 62.8531 168.929 63.2512 168.929 63.7435V78.372C168.929 78.8643 168.531 79.2625 168.039 79.2625Z" fill="#1D243A"/>
<path d="M179.751 84.8352H173.762C173.271 84.8352 172.871 84.4371 172.871 83.9448C172.871 83.4538 173.271 83.0543 173.762 83.0543H179.751C179.869 83.0543 179.966 82.9577 179.966 82.8394V79.5397C179.966 79.4214 179.869 79.3247 179.751 79.3247H156.577C156.457 79.3247 156.361 79.4214 156.361 79.5397V82.8394C156.361 82.9577 156.457 83.0543 156.577 83.0543H166.991C167.484 83.0543 167.882 83.4538 167.882 83.9448C167.882 84.4371 167.484 84.8352 166.991 84.8352H156.577C155.475 84.8352 154.579 83.9397 154.579 82.8394V79.5397C154.579 78.4394 155.475 77.5439 156.577 77.5439H179.751C180.851 77.5439 181.747 78.4394 181.747 79.5397V82.8394C181.747 83.9397 180.851 84.8352 179.751 84.8352Z" fill="#1D243A"/>
<path d="M168.163 129.61C163.629 129.61 159.94 125.921 159.94 121.389V83.9449C159.94 83.4539 160.338 83.0545 160.831 83.0545C161.322 83.0545 161.721 83.4539 161.721 83.9449V121.389C161.721 124.939 164.611 127.829 168.163 127.829C171.716 127.829 174.607 124.939 174.607 121.389V83.9449C174.607 83.4539 175.005 83.0545 175.497 83.0545C175.988 83.0545 176.388 83.4539 176.388 83.9449V121.389C176.388 125.921 172.698 129.61 168.163 129.61Z" fill="#1D243A"/>
<path d="M169.693 88.8027H160.913C160.422 88.8027 160.023 88.4046 160.023 87.9123C160.023 87.42 160.422 87.0219 160.913 87.0219H169.693C170.185 87.0219 170.583 87.42 170.583 87.9123C170.583 88.4046 170.185 88.8027 169.693 88.8027Z" fill="#1D243A"/>
<path d="M175.546 88.8027H174.782C174.291 88.8027 173.891 88.4046 173.891 87.9123C173.891 87.42 174.291 87.0219 174.782 87.0219H175.546C176.038 87.0219 176.436 87.42 176.436 87.9123C176.436 88.4046 176.038 88.8027 175.546 88.8027Z" fill="#1D243A"/>
<path d="M188.77 34.0222C188.278 34.0222 187.88 33.6241 187.88 33.1318C187.88 22.2774 179.047 13.4469 168.189 13.4469C167.698 13.4469 167.298 13.0475 167.298 12.5564C167.298 12.0642 167.698 11.666 168.189 11.666C180.029 11.666 189.661 21.2954 189.661 33.1318C189.661 33.6241 189.263 34.0222 188.77 34.0222Z" fill="#1D243A"/>
<path d="M8.40286 30.1157C9.29479 31.1143 11.323 33.2373 14.1718 35.3375C17.7217 37.9541 23.3162 41.0731 29.8104 41.0731C35.9559 41.0731 41.5721 37.949 45.2022 35.3286C48.135 33.2106 50.2814 31.0698 51.2204 30.0763C50.3336 29.1121 48.3283 27.0781 45.5024 25.0657C41.9653 22.547 36.3707 19.545 29.8104 19.545C23.6585 19.545 18.0385 22.5534 14.4072 25.0759C11.4884 27.1035 9.34823 29.154 8.40286 30.1157ZM29.8104 42.854C24.2718 42.854 18.4851 40.7398 13.0737 36.7405C9.0098 33.7372 6.60758 30.7683 6.50833 30.6436C6.23477 30.304 6.24875 29.8168 6.53885 29.4924C6.64573 29.3728 9.2121 26.5235 13.3536 23.6398C17.2025 20.9596 23.1826 17.7642 29.8104 17.7642C36.8605 17.7642 42.8203 20.9621 46.5789 23.6461C50.6301 26.5388 53.0068 29.3996 53.1061 29.5204C53.3809 29.855 53.3758 30.3383 53.0934 30.6665C52.9865 30.7912 50.4214 33.75 46.2811 36.7456C42.4297 39.5327 36.447 42.854 29.8104 42.854Z" fill="#1D243A"/>
<path d="M29.8102 22.8268C25.6865 22.8268 22.3326 26.1812 22.3326 30.3039C22.3326 34.4253 25.6865 37.7797 29.8102 37.7797C33.934 37.7797 37.2879 34.4253 37.2879 30.3039C37.2879 26.1812 33.934 22.8268 29.8102 22.8268ZM29.8102 39.5605C24.7042 39.5605 20.5513 35.4073 20.5513 30.3039C20.5513 25.1991 24.7042 21.0459 29.8102 21.0459C34.9162 21.0459 39.0693 25.1991 39.0693 30.3039C39.0693 35.4073 34.9162 39.5605 29.8102 39.5605Z" fill="#1D243A"/>
<path d="M29.8103 27.1149C28.0493 27.1149 26.6166 28.5472 26.6166 30.309C26.6166 32.0695 28.0493 33.5019 29.8103 33.5019C31.5712 33.5019 33.0039 32.0695 33.0039 30.309C33.0039 28.5472 31.5712 27.1149 29.8103 27.1149ZM29.8103 35.2827C27.0671 35.2827 24.8353 33.0515 24.8353 30.309C24.8353 27.5665 27.0671 25.334 29.8103 25.334C32.5535 25.334 34.7852 27.5665 34.7852 30.309C34.7852 33.0515 32.5535 35.2827 29.8103 35.2827Z" fill="#1D243A"/>
<path d="M3.87189 18.8186C3.75483 18.8186 3.63397 18.7957 3.51945 18.7448C3.06776 18.5502 2.86037 18.0261 3.05504 17.5745C4.58188 14.0459 6.7627 10.8938 9.53646 8.20721C9.89018 7.86503 10.4538 7.87393 10.7961 8.22629C11.1384 8.57992 11.1294 9.14344 10.7757 9.48562C8.17119 12.0094 6.12399 14.9681 4.69003 18.2818C4.54498 18.6176 4.2167 18.8186 3.87189 18.8186Z" fill="#1D243A"/>
<path d="M29.8103 58.2598C22.0273 58.2598 14.71 55.2297 9.207 49.7281C3.70403 44.2253 0.673218 36.911 0.673218 29.1299C0.673218 28.6376 1.07147 28.2395 1.56387 28.2395C2.055 28.2395 2.45453 28.6376 2.45453 29.1299C2.45453 44.21 14.7265 56.4789 29.8103 56.4789C44.8942 56.4789 57.1662 44.21 57.1662 29.1299C57.1662 14.0498 44.8942 1.78092 29.8103 1.78092C25.6077 1.78092 21.5756 2.70828 17.8273 4.53749C17.3845 4.75246 16.8513 4.56925 16.6363 4.12785C16.42 3.68517 16.6032 3.1522 17.046 2.93595C21.04 0.987176 25.3342 5.92426e-05 29.8103 5.92426e-05C37.5934 5.92426e-05 44.9108 3.03011 50.4137 8.53171C55.9167 14.0333 58.9475 21.3488 58.9475 29.1299C58.9475 36.911 55.9167 44.2253 50.4137 49.7281C44.9108 55.2297 37.5934 58.2598 29.8103 58.2598Z" fill="#1D243A"/>
<path d="M67.3947 30.0342H65.8678C65.3767 30.0342 64.9772 29.636 64.9772 29.1438C64.9772 28.6515 65.3767 28.2533 65.8678 28.2533H67.3947C67.8871 28.2533 68.2853 28.6515 68.2853 29.1438C68.2853 29.636 67.8871 30.0342 67.3947 30.0342Z" fill="#1D243A"/>
<path d="M76.6829 30.0342H73.3748C72.8837 30.0342 72.4841 29.636 72.4841 29.1438C72.4841 28.6515 72.8837 28.2533 73.3748 28.2533H76.6829C77.1753 28.2533 77.5736 28.6515 77.5736 29.1438C77.5736 29.636 77.1753 30.0342 76.6829 30.0342ZM85.8439 30.0342H82.5358C82.0447 30.0342 81.6451 29.636 81.6451 29.1438C81.6451 28.6515 82.0447 28.2533 82.5358 28.2533H85.8439C86.3364 28.2533 86.7346 28.6515 86.7346 29.1438C86.7346 29.636 86.3364 30.0342 85.8439 30.0342ZM95.005 30.0342H91.6968C91.2057 30.0342 90.8062 29.636 90.8062 29.1438C90.8062 28.6515 91.2057 28.2533 91.6968 28.2533H95.005C95.4974 28.2533 95.8956 28.6515 95.8956 29.1438C95.8956 29.636 95.4974 30.0342 95.005 30.0342ZM104.166 30.0342H100.858C100.367 30.0342 99.9672 29.636 99.9672 29.1438C99.9672 28.6515 100.367 28.2533 100.858 28.2533H104.166C104.658 28.2533 105.057 28.6515 105.057 29.1438C105.057 29.636 104.658 30.0342 104.166 30.0342ZM113.327 30.0342H110.019C109.528 30.0342 109.128 29.636 109.128 29.1438C109.128 28.6515 109.528 28.2533 110.019 28.2533H113.327C113.819 28.2533 114.218 28.6515 114.218 29.1438C114.218 29.636 113.819 30.0342 113.327 30.0342ZM122.488 30.0342H119.18C118.689 30.0342 118.289 29.636 118.289 29.1438C118.289 28.6515 118.689 28.2533 119.18 28.2533H122.488C122.98 28.2533 123.379 28.6515 123.379 29.1438C123.379 29.636 122.98 30.0342 122.488 30.0342Z" fill="#1D243A"/>
<path d="M129.74 30.0342H128.086C127.595 30.0342 127.196 29.636 127.196 29.1438C127.196 28.6515 127.595 28.2533 128.086 28.2533H129.74C130.233 28.2533 130.631 28.6515 130.631 29.1438C130.631 29.636 130.233 30.0342 129.74 30.0342Z" fill="#1D243A"/>
<path d="M77.1919 81.4248H42.838C42.3469 81.4248 41.9474 81.0267 41.9474 80.5344C41.9474 80.0421 42.3469 79.6439 42.838 79.6439H77.1919C77.6843 79.6439 78.0825 80.0421 78.0825 80.5344C78.0825 81.0267 77.6843 81.4248 77.1919 81.4248Z" fill="#1D243A"/>
<path d="M77.1919 88.9299H42.838C42.3469 88.9299 41.9474 88.5318 41.9474 88.0395C41.9474 87.5472 42.3469 87.1491 42.838 87.1491H77.1919C77.6843 87.1491 78.0825 87.5472 78.0825 88.0395C78.0825 88.5318 77.6843 88.9299 77.1919 88.9299Z" fill="#1D243A"/>
<path d="M77.1919 96.3079H42.838C42.3469 96.3079 41.9474 95.9097 41.9474 95.4174C41.9474 94.9252 42.3469 94.527 42.838 94.527H77.1919C77.6843 94.527 78.0825 94.9252 78.0825 95.4174C78.0825 95.9097 77.6843 96.3079 77.1919 96.3079Z" fill="#1D243A"/>
<path d="M13.8282 66.2876C13.337 66.2876 12.9375 65.8894 12.9375 65.3972V63.7435C12.9375 63.2512 13.337 62.8531 13.8282 62.8531C14.3206 62.8531 14.7188 63.2512 14.7188 63.7435V65.3972C14.7188 65.8894 14.3206 66.2876 13.8282 66.2876Z" fill="#1D243A"/>
<path d="M13.8282 74.3013C13.337 74.3013 12.9375 73.9032 12.9375 73.4109V70.4852C12.9375 69.9929 13.337 69.5948 13.8282 69.5948C14.3206 69.5948 14.7188 69.9929 14.7188 70.4852V73.4109C14.7188 73.9032 14.3206 74.3013 13.8282 74.3013ZM13.8282 82.4424C13.337 82.4424 12.9375 82.0443 12.9375 81.552V78.6263C12.9375 78.134 13.337 77.7359 13.8282 77.7359C14.3206 77.7359 14.7188 78.134 14.7188 78.6263V81.552C14.7188 82.0443 14.3206 82.4424 13.8282 82.4424ZM13.8282 90.5835C13.337 90.5835 12.9375 90.1854 12.9375 89.6931V86.7674C12.9375 86.2751 13.337 85.877 13.8282 85.877C14.3206 85.877 14.7188 86.2751 14.7188 86.7674V89.6931C14.7188 90.1854 14.3206 90.5835 13.8282 90.5835ZM13.8282 98.7246C13.337 98.7246 12.9375 98.3265 12.9375 97.8342V94.9085C12.9375 94.4162 13.337 94.018 13.8282 94.018C14.3206 94.018 14.7188 94.4162 14.7188 94.9085V97.8342C14.7188 98.3265 14.3206 98.7246 13.8282 98.7246Z" fill="#1D243A"/>
<path d="M15.355 105.467H13.8282C13.337 105.467 12.9375 105.068 12.9375 104.576V103.05C12.9375 102.557 13.337 102.159 13.8282 102.159C14.3206 102.159 14.7188 102.557 14.7188 103.05V103.686H15.355C15.8474 103.686 16.2456 104.084 16.2456 104.576C16.2456 105.068 15.8474 105.467 15.355 105.467Z" fill="#1D243A"/>
<path d="M22.2257 105.467H19.8083C19.3171 105.467 18.9176 105.068 18.9176 104.576C18.9176 104.084 19.3171 103.686 19.8083 103.686H22.2257C22.7182 103.686 23.1164 104.084 23.1164 104.576C23.1164 105.068 22.7182 105.467 22.2257 105.467Z" fill="#1D243A"/>
<path d="M28.3331 105.467H26.679C26.1879 105.467 25.7883 105.068 25.7883 104.576C25.7883 104.084 26.1879 103.686 26.679 103.686H28.3331C28.8255 103.686 29.2237 104.084 29.2237 104.576C29.2237 105.068 28.8255 105.467 28.3331 105.467Z" fill="#1D243A"/>
<path d="M18.5359 127.091C18.0448 127.091 17.6453 126.693 17.6453 126.201V120.477C17.6453 119.984 18.0448 119.586 18.5359 119.586C19.0283 119.586 19.4266 119.984 19.4266 120.477V126.201C19.4266 126.693 19.0283 127.091 18.5359 127.091Z" fill="#1D243A"/>
<path d="M21.4624 124.293H15.7367C15.2456 124.293 14.8461 123.895 14.8461 123.403C14.8461 122.91 15.2456 122.512 15.7367 122.512H21.4624C21.9548 122.512 22.353 122.91 22.353 123.403C22.353 123.895 21.9548 124.293 21.4624 124.293Z" fill="#1D243A"/>
<path d="M124.651 49.115C124.16 49.115 123.76 48.7168 123.76 48.2246V42.5004C123.76 42.0081 124.16 41.6099 124.651 41.6099C125.143 41.6099 125.542 42.0081 125.542 42.5004V48.2246C125.542 48.7168 125.143 49.115 124.651 49.115Z" fill="#1D243A"/>
<path d="M127.577 46.3164H121.852C121.361 46.3164 120.961 45.9183 120.961 45.426C120.961 44.9337 121.361 44.5355 121.852 44.5355H127.577C128.07 44.5355 128.468 44.9337 128.468 45.426C128.468 45.9183 128.07 46.3164 127.577 46.3164Z" fill="#1D243A"/>
<path d="M89.7882 12.6072C89.2971 12.6072 88.8976 12.209 88.8976 11.7167V5.99254C88.8976 5.50026 89.2971 5.10211 89.7882 5.10211C90.2806 5.10211 90.6789 5.50026 90.6789 5.99254V11.7167C90.6789 12.209 90.2806 12.6072 89.7882 12.6072Z" fill="#1D243A"/>
<path d="M92.7147 9.80884H86.989C86.4979 9.80884 86.0984 9.41069 86.0984 8.9184C86.0984 8.42612 86.4979 8.02797 86.989 8.02797H92.7147C93.2071 8.02797 93.6053 8.42612 93.6053 8.9184C93.6053 9.41069 93.2071 9.80884 92.7147 9.80884Z" fill="#1D243A"/>
<path d="M155.442 161.691C154.951 161.691 154.552 161.293 154.552 160.8V155.076C154.552 154.584 154.951 154.186 155.442 154.186C155.935 154.186 156.333 154.584 156.333 155.076V160.8C156.333 161.293 155.935 161.691 155.442 161.691Z" fill="#1D243A"/>
<path d="M158.369 158.893H152.643C152.152 158.893 151.752 158.494 151.752 158.002C151.752 157.51 152.152 157.112 152.643 157.112H158.369C158.861 157.112 159.259 157.51 159.259 158.002C159.259 158.494 158.861 158.893 158.369 158.893Z" fill="#1D243A"/>
<path d="M189.923 99.1064C189.432 99.1064 189.033 98.7083 189.033 98.216V92.4918C189.033 91.9995 189.432 91.6014 189.923 91.6014C190.416 91.6014 190.814 91.9995 190.814 92.4918V98.216C190.814 98.7083 190.416 99.1064 189.923 99.1064Z" fill="#1D243A"/>
<path d="M192.85 96.3079H187.124C186.633 96.3079 186.233 95.9097 186.233 95.4174C186.233 94.9252 186.633 94.527 187.124 94.527H192.85C193.342 94.527 193.74 94.9252 193.74 95.4174C193.74 95.9097 193.342 96.3079 192.85 96.3079Z" fill="#1D243A"/>
<path d="M5.79823 150.82C5.79823 150.118 6.32119 149.548 7.08461 149.548V149.549C7.72079 149.549 8.34296 150.118 8.34296 150.82C8.34296 151.524 7.77294 152.092 7.0706 152.092C6.36698 152.092 5.79823 151.524 5.79823 150.82ZM10.1026 153.276C9.5848 152.802 9.54915 151.997 10.025 151.479C10.4996 150.961 11.3037 150.926 11.8229 151.401C12.3407 151.876 12.3751 152.681 11.9005 153.199C11.6499 153.472 11.3063 153.611 10.9628 153.611C10.6549 153.611 10.3469 153.5 10.1026 153.276ZM2.04729 153.444C1.54725 152.951 1.54218 152.146 2.03586 151.646C2.52954 151.146 3.33492 151.141 3.83496 151.634C4.335 152.129 4.34012 152.934 3.84644 153.434C3.59706 153.686 3.2688 153.812 2.94053 153.812C2.61862 153.812 2.2954 153.69 2.04729 153.444ZM11.5646 156.413C11.5391 155.711 12.0863 155.131 12.7886 155.106C13.491 155.08 14.0813 155.613 14.1068 156.315C14.1335 157.018 13.5851 157.621 12.8828 157.621C12.8662 157.621 12.851 157.621 12.8357 157.621C12.1537 157.621 11.59 157.102 11.5646 156.413ZM7.96551e-05 156.719C-0.00755453 156.016 0.534462 155.426 1.23681 155.417C1.93915 155.408 2.5041 155.957 2.5041 156.66V156.659C2.5041 156.659 2.5041 156.66 2.5041 156.659C2.5041 157.362 1.99134 158.002 1.28899 158.002C1.28263 158.002 1.27753 158.002 1.27244 158.002C0.577733 158.002 0.0089862 157.416 7.96551e-05 156.719ZM10.4004 161.489C9.88887 161.008 9.86344 160.203 10.3444 159.69C10.8254 159.179 11.6307 159.153 12.1435 159.634C12.655 160.115 12.6805 160.92 12.1995 161.433C11.9489 161.699 11.6104 161.834 11.2719 161.834C10.9589 161.834 10.6459 161.719 10.4004 161.489ZM2.16181 161.683C1.6554 161.196 1.64015 160.391 2.12746 159.885C2.61478 159.378 3.42021 159.364 3.92661 159.852C4.43301 160.339 4.44825 161.144 3.95967 161.65C3.71028 161.91 3.37692 162.04 3.04356 162.04C2.72547 162.04 2.40737 161.921 2.16181 161.683ZM5.92929 162.387C5.91148 161.685 6.4675 161.115 7.16985 161.097C7.87219 161.08 8.45619 161.615 8.47273 162.317C8.49054 163.019 7.93452 163.599 7.23218 163.599C7.222 163.599 7.21055 163.599 7.20037 163.599C6.51202 163.599 5.94584 163.078 5.92929 162.387Z" fill="#1D243A"/>
<path d="M191.677 149.294C191.677 148.591 192.245 148.021 192.949 148.021C193.651 148.021 194.221 148.591 194.221 149.294C194.221 149.997 193.651 150.566 192.949 150.566C192.245 150.566 191.677 149.997 191.677 149.294ZM195.995 151.75C195.477 151.275 195.441 150.471 195.917 149.952C196.392 149.435 197.196 149.4 197.715 149.875C198.233 150.349 198.267 151.153 197.793 151.672C197.542 151.946 197.199 152.084 196.855 152.084C196.547 152.084 196.239 151.974 195.995 151.75ZM187.94 151.918C187.44 151.424 187.435 150.619 187.928 150.119C188.422 149.619 189.227 149.614 189.727 150.108C190.227 150.601 190.232 151.408 189.739 151.906C189.489 152.159 189.161 152.285 188.833 152.285C188.51 152.285 188.186 152.163 187.94 151.918ZM197.457 154.887C197.43 154.185 197.979 153.605 198.681 153.579C199.383 153.554 199.974 154.087 199.999 154.79C200.026 155.491 199.477 156.094 198.775 156.094C198.759 156.094 198.743 156.094 198.727 156.094C198.046 156.094 197.481 155.575 197.457 154.887ZM185.892 155.192C185.885 154.49 186.447 153.9 187.15 153.891C187.852 153.882 188.428 154.464 188.437 155.168C188.446 155.87 187.884 156.476 187.181 156.476C187.175 156.476 187.17 156.476 187.165 156.476C186.469 156.476 185.901 155.889 185.892 155.192ZM196.293 159.962C195.78 159.481 195.756 158.676 196.237 158.164C196.718 157.652 197.523 157.627 198.036 158.108C198.547 158.59 198.573 159.394 198.092 159.906C197.841 160.172 197.503 160.307 197.164 160.307C196.851 160.307 196.538 160.192 196.293 159.962ZM188.053 160.157C187.548 159.67 187.532 158.864 188.02 158.358C188.507 157.852 189.313 157.838 189.819 158.325C190.324 158.812 190.339 159.617 189.852 160.124C189.603 160.382 189.269 160.513 188.936 160.513C188.618 160.513 188.3 160.395 188.053 160.157ZM191.822 160.86C191.804 160.157 192.36 159.588 193.062 159.572C193.765 159.554 194.347 160.088 194.365 160.79C194.382 161.492 193.827 162.073 193.125 162.073C193.113 162.073 193.103 162.073 193.093 162.073C192.404 162.073 191.838 161.552 191.822 160.86Z" fill="#1D243A"/>
<path d="M77.6728 46.7667C77.6728 46.0645 78.2416 45.4946 78.9452 45.4946C79.6475 45.4946 80.2175 46.0645 80.2175 46.7667C80.2175 47.4701 79.6475 48.0387 78.9452 48.0387C78.2416 48.0387 77.6728 47.4701 77.6728 46.7667ZM81.9912 49.223C81.4733 48.7485 81.4377 47.9433 81.9136 47.4256C82.3882 46.9079 83.1936 46.8735 83.7114 47.348C84.2293 47.8225 84.2636 48.6264 83.7891 49.1454C83.5384 49.4189 83.1949 49.5576 82.8513 49.5576C82.5434 49.5576 82.2355 49.4469 81.9912 49.223ZM73.9358 49.3909C73.4358 48.8974 73.4307 48.0922 73.9244 47.5923C74.4181 47.0923 75.2235 47.0872 75.7235 47.5808C76.2236 48.0744 76.2287 48.8808 75.735 49.3807C75.4856 49.6326 75.1573 49.7585 74.8291 49.7585C74.5072 49.7585 74.1827 49.6364 73.9358 49.3909ZM83.4531 52.3599C83.4264 51.6577 83.9748 51.0777 84.6772 51.0522C85.3795 51.0255 85.9699 51.5598 85.9953 52.2619C86.022 52.9641 85.4737 53.567 84.7713 53.567C84.756 53.567 84.7395 53.567 84.7242 53.567C84.0423 53.567 83.4786 53.0468 83.4531 52.3599ZM71.8886 52.6652C71.881 51.9617 72.4434 51.3728 73.1457 51.3639C73.8481 51.355 74.4244 51.9375 74.4334 52.641C74.4423 53.3431 73.8799 53.9487 73.1775 53.9487C73.1712 53.9487 73.1661 53.9487 73.161 53.9487C72.4663 53.9487 71.8975 53.361 71.8886 52.6652ZM82.2889 57.4353C81.7774 56.9545 81.752 56.1493 82.2329 55.6366C82.7139 55.1253 83.5193 55.0999 84.032 55.5807C84.5435 56.0615 84.569 56.8667 84.0881 57.3794C83.8374 57.6452 83.4989 57.78 83.1605 57.78C82.8475 57.78 82.5345 57.6656 82.2889 57.4353ZM74.0504 57.63C73.544 57.1428 73.5287 56.3376 74.016 55.8313C74.5033 55.3263 75.3088 55.311 75.8152 55.7982C76.3216 56.2854 76.3368 57.0906 75.8482 57.5969C75.5988 57.8551 75.2655 57.9861 74.9321 57.9861C74.6153 57.9861 74.2972 57.8678 74.0504 57.63ZM77.8178 58.3334C77.8 57.6312 78.3561 57.0614 79.0584 57.0448C79.7607 57.027 80.3447 57.5625 80.3613 58.2634C80.3791 58.9656 79.8231 59.5457 79.1207 59.5457C79.1105 59.5457 79.0991 59.5457 79.0889 59.5457C78.4006 59.5457 77.8344 59.0254 77.8178 58.3334Z" fill="#1D243A"/>
</svg>
