<svg width="188" height="104" viewBox="0 0 188 104" fill="none" xmlns="http://www.w3.org/2000/svg">
<path d="M91.0754 2.0837C92.2154 -0.440338 95.7997 -0.440334 96.9397 2.08371L101.3 11.7379C101.622 12.4517 102.194 13.0234 102.908 13.3458L112.562 17.7061C115.086 18.846 115.086 22.4303 112.562 23.5703L102.908 27.9306C102.194 28.253 101.622 28.8247 101.3 29.5385L96.9397 39.1927C95.7997 41.7167 92.2154 41.7167 91.0754 39.1927L86.7151 29.5385C86.3928 28.8247 85.8211 28.253 85.1073 27.9306L75.4531 23.5703C72.929 22.4303 72.929 18.846 75.4531 17.7061L85.1073 13.3458C85.8211 13.0234 86.3928 12.4517 86.7151 11.7379L91.0754 2.0837Z" fill="#E8C81D"/>
<path d="M121.367 48.385L154.487 75.937L121.271 103.681L114.647 96.001L139.223 76.129L114.455 56.257L121.367 48.385Z" fill="#1C1B17"/>
<path fill-rule="evenodd" clip-rule="evenodd" d="M154.583 20.6382L187.703 48.1902L162.288 69.4186L154.468 62.9135L172.439 48.3822L147.671 28.5102L154.583 20.6382Z" fill="#1C1B17"/>
<path d="M66.6481 48.385L33.5281 75.937L66.7441 103.681L73.3681 96.001L48.7921 76.129L73.5601 56.257L66.6481 48.385Z" fill="#1C1B17"/>
<path fill-rule="evenodd" clip-rule="evenodd" d="M33.432 20.6382L0.312012 48.1902L25.7273 69.4186L33.547 62.9135L15.576 48.3822L40.344 28.5102L33.432 20.6382Z" fill="#1C1B17"/>
</svg>
