<svg width="200" height="164" viewBox="0 0 200 164" fill="none" xmlns="http://www.w3.org/2000/svg">
<path d="M21.7342 21.3228L56.6519 0.886774L0.879883 13.1144L21.7342 21.3228Z" fill="#E8C81D"/>
<path d="M46.4509 47.4478L56.6205 0.879094L31.2078 25.1723L46.4509 47.4478Z" fill="#E8C81D"/>
<path d="M23.5725 34.8042L33.3174 28.5082L31.2393 25.1799L23.5725 34.8042Z" fill="#E8C81D"/>
<path d="M104.487 96.5657C102.018 96.8434 99.5543 96.8472 97.0955 96.5795C91.2568 95.9413 86.7751 101.658 88.7075 107.204C92.7357 118.761 94.6015 132.453 94.7409 146.533L106.951 146.547C107.09 132.455 108.96 118.744 112.996 107.176C114.947 101.58 110.376 95.9036 104.487 96.5657Z" fill="#E8C81D"/>
<path d="M100.846 163.183C91.9101 163.183 84.6404 155.913 84.6404 146.978V146.441C84.6404 145.956 85.0336 145.562 85.5199 145.562C86.0049 145.562 86.3994 145.956 86.3994 146.441V146.978C86.3994 154.943 92.8801 161.424 100.846 161.424C108.812 161.424 115.292 154.943 115.292 146.978V146.441C115.292 145.956 115.687 145.562 116.172 145.562C116.658 145.562 117.051 145.956 117.051 146.441V146.978C117.051 155.913 109.782 163.183 100.846 163.183Z" fill="#1D243A"/>
<path d="M188.126 141.631L183.359 131.972L178.593 141.631L167.934 143.18L175.647 150.698L173.826 161.314L183.359 156.302L192.893 161.314L191.072 150.698L198.785 143.18L188.126 141.631Z" fill="#676767"/>
<path d="M100.835 49.4377C79.2628 49.4377 61.7117 66.9927 61.7117 88.5695C61.7117 99.052 65.8102 108.902 73.252 116.307C75.7348 118.777 77.6722 121.687 79.0116 124.955C80.3409 128.198 81.0156 131.63 81.0156 135.156V137.983C81.0156 142.285 84.5148 145.784 88.8155 145.784H112.912C117.214 145.784 120.713 142.285 120.713 137.983V135.152C120.713 131.629 121.385 128.199 122.712 124.958C124.05 121.692 125.985 118.783 128.464 116.314C135.891 108.919 139.98 99.0658 139.98 88.5695C139.98 66.9927 122.419 49.4377 100.835 49.4377ZM112.912 147.543H88.8155C83.5448 147.543 79.2566 143.255 79.2566 137.983V135.156C79.2566 128.551 76.6155 122.135 72.0107 117.554C68.2326 113.795 65.2661 109.414 63.1917 104.533C61.0432 99.4766 59.9526 94.1054 59.9526 88.5695C59.9526 77.6473 64.2044 67.3784 71.9252 59.6551C79.6461 51.9317 89.9137 47.6787 100.835 47.6787C111.758 47.6787 122.03 51.9317 129.755 59.6551C137.484 67.3796 141.739 77.6485 141.739 88.5695C141.739 94.1091 140.652 99.4817 138.51 104.536C136.441 109.421 133.478 113.803 129.705 117.561C125.108 122.139 122.472 128.551 122.472 135.152V137.983C122.472 143.255 118.182 147.543 112.912 147.543Z" fill="#1D243A"/>
<path d="M106.951 147.426C106.947 147.426 106.945 147.426 106.942 147.426C106.456 147.421 106.066 147.023 106.072 146.538C106.22 131.601 108.327 117.89 112.165 106.886C112.978 104.557 112.546 102.017 111.009 100.092C109.461 98.1525 107.06 97.1612 104.585 97.4388C102.063 97.7228 99.5116 97.7278 97 97.4527C94.5776 97.1888 92.2243 98.1738 90.7015 100.087C89.1586 102.026 88.7239 104.578 89.538 106.915C93.3702 117.909 95.4734 131.605 95.6204 146.524C95.6255 147.009 95.236 147.407 94.7497 147.412C94.2635 147.416 93.8665 147.027 93.8627 146.542C93.7157 131.811 91.6463 118.31 87.877 107.493C86.8631 104.584 87.4046 101.405 89.3244 98.993C91.2254 96.6033 94.1667 95.3733 97.191 95.705C99.5745 95.965 101.996 95.96 104.389 95.6911C107.467 95.3456 110.456 96.5794 112.384 98.9943C114.3 101.395 114.839 104.562 113.826 107.465C110.049 118.291 107.976 131.807 107.831 146.556C107.826 147.038 107.432 147.426 106.951 147.426Z" fill="#1D243A"/>
<path d="M100.846 163.183C91.9101 163.183 84.6404 155.913 84.6404 146.978V146.441C84.6404 145.956 85.0336 145.562 85.5199 145.562C86.0049 145.562 86.3994 145.956 86.3994 146.441V146.978C86.3994 154.943 92.8801 161.424 100.846 161.424C108.812 161.424 115.292 154.943 115.292 146.978V146.441C115.292 145.956 115.687 145.562 116.172 145.562C116.658 145.562 117.051 145.956 117.051 146.441V146.978C117.051 155.913 109.782 163.183 100.846 163.183Z" fill="#1D243A"/>
<path d="M97.4499 153.132H87.1471C86.6621 153.132 86.2676 152.739 86.2676 152.252C86.2676 151.766 86.6621 151.373 87.1471 151.373H97.4499C97.9361 151.373 98.3294 151.766 98.3294 152.252C98.3294 152.739 97.9361 153.132 97.4499 153.132Z" fill="#1D243A"/>
<path d="M3.89158 13.3543L21.6589 20.3476L51.4076 2.93716L3.89158 13.3543ZM21.7343 22.2021C21.625 22.2021 21.5157 22.182 21.4126 22.1406L0.556987 13.9335C0.197645 13.7915 -0.0285091 13.4309 0.00290185 13.0452C0.0330564 12.6595 0.313252 12.3391 0.69144 12.2562L56.4648 0.0272255C56.8869 -0.065751 57.3141 0.16295 57.4712 0.566267C57.6295 0.969584 57.4699 1.42691 57.0967 1.64553L22.1791 22.0815C22.0421 22.1619 21.8888 22.2021 21.7343 22.2021Z" fill="#1D243A"/>
<path d="M32.355 25.2916L46.0263 45.2702L55.1468 3.50494L32.355 25.2916ZM46.451 48.3271C46.1645 48.3271 45.8906 48.1864 45.7247 47.9439L30.4816 25.6685C30.2379 25.313 30.2881 24.8343 30.5997 24.5365L56.0125 0.24448C56.2926 -0.0231419 56.7135 -0.0771688 57.0515 0.112553C57.3882 0.302276 57.5629 0.689259 57.48 1.06745L47.3103 47.6349C47.235 47.9779 46.9636 48.2442 46.6193 48.3108C46.5628 48.3221 46.5062 48.3271 46.451 48.3271Z" fill="#1D243A"/>
<path d="M23.5725 35.6836C23.4959 35.6836 23.4167 35.6735 23.3401 35.6522C23.0008 35.5592 22.7495 35.2715 22.7018 34.9234L20.8624 21.4406C20.797 20.9594 21.1338 20.5171 21.615 20.4505C22.0974 20.3864 22.5397 20.7219 22.6063 21.2031L24.1668 32.6468L30.552 24.6307C30.8536 24.2513 31.4076 24.1884 31.7871 24.4912C32.1678 24.794 32.2294 25.3468 31.9278 25.7275L24.261 35.3519C24.0914 35.5642 23.8364 35.6836 23.5725 35.6836Z" fill="#1D243A"/>
<path d="M23.5738 35.6836C23.2848 35.6836 23.0021 35.5416 22.835 35.2815C22.5711 34.8732 22.688 34.3291 23.0963 34.0653L32.84 27.7693C33.2483 27.5054 33.7924 27.6223 34.0562 28.0306C34.3201 28.4389 34.2032 28.983 33.7949 29.2468L24.0499 35.5429C23.9029 35.6383 23.7371 35.6836 23.5738 35.6836Z" fill="#1D243A"/>
<path d="M169.823 143.794L176.26 150.067C176.467 150.27 176.563 150.561 176.514 150.846L174.994 159.706L182.951 155.523C183.207 155.389 183.512 155.389 183.768 155.523L191.726 159.706L190.205 150.846C190.156 150.561 190.252 150.27 190.459 150.067L196.896 143.794L188 142.501C187.714 142.46 187.466 142.28 187.338 142.02L183.36 133.96L179.381 142.02C179.253 142.28 179.005 142.46 178.719 142.501L169.823 143.794ZM173.826 162.193C173.644 162.193 173.462 162.137 173.309 162.025C173.038 161.829 172.903 161.495 172.959 161.166L174.702 151.005L167.32 143.809C167.08 143.575 166.994 143.226 167.097 142.908C167.201 142.589 167.476 142.358 167.807 142.309L178.009 140.826L182.571 131.583C182.719 131.282 183.025 131.093 183.36 131.093C183.694 131.093 184 131.282 184.148 131.583L188.71 140.826L198.911 142.309C199.243 142.358 199.518 142.589 199.622 142.908C199.725 143.226 199.639 143.575 199.399 143.809L192.017 151.005L193.76 161.166C193.816 161.495 193.681 161.829 193.41 162.025C193.139 162.222 192.78 162.247 192.484 162.092L183.36 157.296L174.235 162.092C174.106 162.159 173.966 162.193 173.826 162.193Z" fill="#1D243A"/>
<path d="M23.5712 40.0522C23.0862 40.0522 22.6917 39.659 22.6917 39.1727V37.5394C22.6917 37.0531 23.0862 36.6599 23.5712 36.6599C24.0574 36.6599 24.4507 37.0531 24.4507 37.5394V39.1727C24.4507 39.659 24.0574 40.0522 23.5712 40.0522Z" fill="#1D243A"/>
<path d="M23.5712 48.8475C23.0862 48.8475 22.6917 48.4543 22.6917 47.968V44.8269C22.6917 44.3407 23.0862 43.9474 23.5712 43.9474C24.0574 43.9474 24.4507 44.3407 24.4507 44.8269V47.968C24.4507 48.4543 24.0574 48.8475 23.5712 48.8475ZM23.5712 57.6426C23.0862 57.6426 22.6917 57.2493 22.6917 56.7631V53.622C22.6917 53.1358 23.0862 52.7425 23.5712 52.7425C24.0574 52.7425 24.4507 53.1358 24.4507 53.622V56.7631C24.4507 57.2493 24.0574 57.6426 23.5712 57.6426ZM23.5712 66.4377C23.0862 66.4377 22.6917 66.0444 22.6917 65.5582V62.4171C22.6917 61.9308 23.0862 61.5376 23.5712 61.5376C24.0574 61.5376 24.4507 61.9308 24.4507 62.4171V65.5582C24.4507 66.0444 24.0574 66.4377 23.5712 66.4377ZM23.5712 75.2328C23.0862 75.2328 22.6917 74.8395 22.6917 74.3533V71.2122C22.6917 70.7259 23.0862 70.3326 23.5712 70.3326C24.0574 70.3326 24.4507 70.7259 24.4507 71.2122V74.3533C24.4507 74.8395 24.0574 75.2328 23.5712 75.2328ZM23.5712 84.0278C23.0862 84.0278 22.6917 83.6346 22.6917 83.1483V80.0072C22.6917 79.521 23.0862 79.1277 23.5712 79.1277C24.0574 79.1277 24.4507 79.521 24.4507 80.0072V83.1483C24.4507 83.6346 24.0574 84.0278 23.5712 84.0278Z" fill="#1D243A"/>
<path d="M25.0789 91.4404H23.5712C23.0862 91.4404 22.6917 91.0472 22.6917 90.5609V89.0532C22.6917 88.567 23.0862 88.1737 23.5712 88.1737C24.0574 88.1737 24.4507 88.567 24.4507 89.0532V89.6814H25.0789C25.5651 89.6814 25.9584 90.0747 25.9584 90.5609C25.9584 91.0472 25.5651 91.4404 25.0789 91.4404Z" fill="#1D243A"/>
<path d="M35.3817 91.4404H31.738C31.253 91.4404 30.8585 91.0472 30.8585 90.5609C30.8585 90.0747 31.253 89.6814 31.738 89.6814H35.3817C35.8679 89.6814 36.2612 90.0747 36.2612 90.5609C36.2612 91.0472 35.8679 91.4404 35.3817 91.4404ZM45.6845 91.4404H42.0408C41.5558 91.4404 41.1613 91.0472 41.1613 90.5609C41.1613 90.0747 41.5558 89.6814 42.0408 89.6814H45.6845C46.1707 89.6814 46.564 90.0747 46.564 90.5609C46.564 91.0472 46.1707 91.4404 45.6845 91.4404Z" fill="#1D243A"/>
<path d="M53.8514 91.4404H52.218C51.733 91.4404 51.3385 91.0472 51.3385 90.5609C51.3385 90.0747 51.733 89.6814 52.218 89.6814H53.8514C54.3376 89.6814 54.7309 90.0747 54.7309 90.5609C54.7309 91.0472 54.3376 91.4404 53.8514 91.4404Z" fill="#1D243A"/>
<path d="M183.39 125.365C182.905 125.365 182.511 124.971 182.511 124.485V122.978C182.511 122.491 182.905 122.098 183.39 122.098C183.876 122.098 184.27 122.491 184.27 122.978V124.485C184.27 124.971 183.876 125.365 183.39 125.365Z" fill="#1D243A"/>
<path d="M183.39 101.492C182.905 101.492 182.511 101.099 182.511 100.613V97.5974C182.511 97.1111 182.905 96.7179 183.39 96.7179C183.876 96.7179 184.27 97.1111 184.27 97.5974V100.613C184.27 101.099 183.876 101.492 183.39 101.492ZM183.39 109.91C182.905 109.91 182.511 109.517 182.511 109.031V106.016C182.511 105.529 182.905 105.136 183.39 105.136C183.876 105.136 184.27 105.529 184.27 106.016V109.031C184.27 109.517 183.876 109.91 183.39 109.91ZM183.39 118.329C182.905 118.329 182.511 117.935 182.511 117.449V114.434C182.511 113.947 182.905 113.554 183.39 113.554C183.876 113.554 184.27 113.947 184.27 114.434V117.449C184.27 117.935 183.876 118.329 183.39 118.329Z" fill="#1D243A"/>
<path d="M183.39 93.0742C182.905 93.0742 182.511 92.681 182.511 92.1947V91.4408H181.757C181.272 91.4408 180.877 91.0476 180.877 90.5613C180.877 90.0751 181.272 89.6818 181.757 89.6818H183.39C183.876 89.6818 184.27 90.0751 184.27 90.5613V92.1947C184.27 92.681 183.876 93.0742 183.39 93.0742Z" fill="#1D243A"/>
<path d="M157.885 91.4404H154.618C154.133 91.4404 153.738 91.0472 153.738 90.5609C153.738 90.0747 154.133 89.6814 154.618 89.6814H157.885C158.371 89.6814 158.764 90.0747 158.764 90.5609C158.764 91.0472 158.371 91.4404 157.885 91.4404ZM166.931 91.4404H163.664C163.179 91.4404 162.785 91.0472 162.785 90.5609C162.785 90.0747 163.179 89.6814 163.664 89.6814H166.931C167.417 89.6814 167.81 90.0747 167.81 90.5609C167.81 91.0472 167.417 91.4404 166.931 91.4404ZM175.977 91.4404H172.711C172.226 91.4404 171.831 91.0472 171.831 90.5609C171.831 90.0747 172.226 89.6814 172.711 89.6814H175.977C176.463 89.6814 176.857 90.0747 176.857 90.5609C176.857 91.0472 176.463 91.4404 175.977 91.4404Z" fill="#1D243A"/>
<path d="M148.838 91.4404H147.33C146.845 91.4404 146.451 91.0472 146.451 90.5609C146.451 90.0747 146.845 89.6814 147.33 89.6814H148.838C149.324 89.6814 149.718 90.0747 149.718 90.5609C149.718 91.0472 149.324 91.4404 148.838 91.4404Z" fill="#1D243A"/>
<path d="M163.79 51.1089C163.305 51.1089 162.91 50.7156 162.91 50.2294V44.5754C162.91 44.0892 163.305 43.6959 163.79 43.6959C164.276 43.6959 164.669 44.0892 164.669 44.5754V50.2294C164.669 50.7156 164.276 51.1089 163.79 51.1089Z" fill="#1D243A"/>
<path d="M166.68 48.3447H161.026C160.541 48.3447 160.146 47.9515 160.146 47.4652C160.146 46.979 160.541 46.5857 161.026 46.5857H166.68C167.166 46.5857 167.559 46.979 167.559 47.4652C167.559 47.9515 167.166 48.3447 166.68 48.3447Z" fill="#1D243A"/>
<path d="M30.3559 114.057C29.871 114.057 29.4764 113.663 29.4764 113.177V107.523C29.4764 107.037 29.871 106.644 30.3559 106.644C30.8422 106.644 31.2355 107.037 31.2355 107.523V113.177C31.2355 113.663 30.8422 114.057 30.3559 114.057Z" fill="#1D243A"/>
<path d="M33.2458 111.292H27.5918C27.1068 111.292 26.7123 110.899 26.7123 110.413C26.7123 109.927 27.1068 109.533 27.5918 109.533H33.2458C33.732 109.533 34.1253 109.927 34.1253 110.413C34.1253 110.899 33.732 111.292 33.2458 111.292Z" fill="#1D243A"/>
<path d="M64.4055 42.6909C63.9205 42.6909 63.526 42.2977 63.526 41.8114V36.1574C63.526 35.6712 63.9205 35.2779 64.4055 35.2779C64.8918 35.2779 65.285 35.6712 65.285 36.1574V41.8114C65.285 42.2977 64.8918 42.6909 64.4055 42.6909Z" fill="#1D243A"/>
<path d="M67.2953 39.9268H61.6413C61.1564 39.9268 60.7618 39.5335 60.7618 39.0473C60.7618 38.561 61.1564 38.1677 61.6413 38.1677H67.2953C67.7816 38.1677 68.1748 38.561 68.1748 39.0473C68.1748 39.5335 67.7816 39.9268 67.2953 39.9268Z" fill="#1D243A"/>
<path d="M144.441 159.414C143.956 159.414 143.561 159.021 143.561 158.535V152.881C143.561 152.394 143.956 152.001 144.441 152.001C144.927 152.001 145.32 152.394 145.32 152.881V158.535C145.32 159.021 144.927 159.414 144.441 159.414Z" fill="#1D243A"/>
<path d="M147.33 156.65H141.677C141.192 156.65 140.797 156.257 140.797 155.77C140.797 155.284 141.192 154.891 141.677 154.891H147.33C147.817 154.891 148.21 155.284 148.21 155.77C148.21 156.257 147.817 156.65 147.33 156.65Z" fill="#1D243A"/>
<path d="M191.795 5.44225C191.795 4.74869 192.311 4.18581 193.065 4.18581V4.18708C193.693 4.18708 194.307 4.74869 194.307 5.44225C194.307 6.13706 193.745 6.69869 193.051 6.69869C192.356 6.69869 191.795 6.13706 191.795 5.44225ZM196.045 7.86845C195.534 7.3998 195.5 6.60446 195.968 6.09309C196.437 5.58172 197.231 5.54657 197.744 6.01648C198.255 6.48513 198.289 7.27916 197.82 7.79179C197.573 8.06192 197.234 8.1989 196.894 8.1989C196.59 8.1989 196.286 8.08958 196.045 7.86845ZM188.091 8.03429C187.597 7.54679 187.592 6.75149 188.079 6.2577C188.567 5.76392 189.362 5.75887 189.856 6.24637C190.35 6.73512 190.355 7.53045 189.867 8.02423C189.621 8.273 189.297 8.39743 188.973 8.39743C188.653 8.39743 188.336 8.27678 188.091 8.03429ZM197.489 10.9857C197.462 10.2921 198.004 9.70913 198.697 9.684C199.391 9.65762 199.974 10.1991 199.999 10.8927C200.025 11.5862 199.484 12.1693 198.79 12.1944C198.774 12.1956 198.759 12.1956 198.743 12.1956C198.07 12.1956 197.514 11.6629 197.489 10.9857ZM186.069 11.2684C186.061 10.5748 186.617 9.99184 187.31 9.98305C188.004 9.97425 188.573 10.5497 188.582 11.2445C188.591 11.938 188.035 12.5361 187.342 12.5361C187.335 12.5361 187.33 12.5361 187.325 12.5361C186.639 12.5361 186.078 11.9569 186.069 11.2684ZM196.339 15.98C195.834 15.5051 195.809 14.7098 196.284 14.2034C196.759 13.6983 197.554 13.6732 198.06 14.1481C198.565 14.6231 198.591 15.4184 198.116 15.9247C197.868 16.1873 197.534 16.3205 197.2 16.3205C196.891 16.3205 196.582 16.2075 196.339 15.98ZM188.202 16.1722C187.704 15.691 187.688 14.8957 188.17 14.3957C188.651 13.8956 189.446 13.8817 189.946 14.363C190.446 14.8442 190.461 15.6395 189.979 16.1396C189.733 16.3959 189.404 16.524 189.074 16.524C188.76 16.524 188.446 16.4072 188.202 16.1722ZM191.924 16.8671C191.906 16.1735 192.455 15.6106 193.149 15.5943C193.843 15.5767 194.419 16.1057 194.436 16.798C194.453 17.4915 193.904 18.0645 193.211 18.0645C193.2 18.0645 193.189 18.0645 193.179 18.0645C192.499 18.0645 191.94 17.5506 191.924 16.8671Z" fill="#1D243A"/>
<path d="M112.248 15.1171C112.248 14.4235 112.81 13.8606 113.505 13.8606C114.198 13.8606 114.761 14.4235 114.761 15.1171C114.761 15.8119 114.198 16.3735 113.505 16.3735C112.81 16.3735 112.248 15.8119 112.248 15.1171ZM116.512 17.5433C116.001 17.0746 115.966 16.2793 116.436 15.7679C116.904 15.2565 117.699 15.2226 118.211 15.6913C118.723 16.1599 118.756 16.954 118.288 17.4666C118.04 17.7367 117.701 17.8737 117.362 17.8737C117.058 17.8737 116.754 17.7644 116.512 17.5433ZM108.558 17.7091C108.064 17.2216 108.059 16.4263 108.547 15.9325C109.034 15.4387 109.829 15.4337 110.323 15.9212C110.817 16.4099 110.822 17.2053 110.335 17.699C110.088 17.9478 109.764 18.0722 109.44 18.0722C109.121 18.0722 108.802 17.9516 108.558 17.7091ZM117.956 20.6417C117.93 19.9481 118.471 19.3752 119.165 19.35C119.858 19.3249 120.441 19.8513 120.466 20.5449C120.493 21.2384 119.951 21.834 119.258 21.834C119.243 21.834 119.226 21.834 119.211 21.834C118.538 21.834 117.981 21.3201 117.956 20.6417ZM106.536 20.9432C106.529 20.2496 107.084 19.6666 107.778 19.6579C108.471 19.6491 109.042 20.2245 109.049 20.9193C109.058 21.6129 108.503 22.2109 107.809 22.2109C107.803 22.2109 107.798 22.2109 107.793 22.2109C107.107 22.2109 106.545 21.6317 106.536 20.9432ZM116.806 25.6548C116.301 25.1787 116.276 24.3846 116.751 23.8782C117.226 23.3731 118.021 23.348 118.528 23.8229C119.033 24.2991 119.058 25.0932 118.583 25.5995C118.336 25.8621 118.001 25.9953 117.667 25.9953C117.358 25.9953 117.049 25.8823 116.806 25.6548ZM108.671 25.847C108.171 25.3658 108.156 24.5705 108.637 24.0705C109.118 23.5704 109.914 23.5566 110.414 24.0378C110.914 24.519 110.929 25.3143 110.446 25.8144C110.2 26.0707 109.871 26.1988 109.542 26.1988C109.229 26.1988 108.913 26.082 108.671 25.847ZM112.391 26.5419C112.374 25.8483 112.923 25.2854 113.616 25.2691C114.31 25.2515 114.887 25.7805 114.903 26.4728C114.921 27.1663 114.371 27.7393 113.678 27.7393C113.668 27.7393 113.657 27.7393 113.646 27.7393C112.967 27.7393 112.408 27.2241 112.391 26.5419Z" fill="#1D243A"/>
<path d="M54.2006 133.097C54.2006 132.403 54.7622 131.84 55.4571 131.84C56.1506 131.84 56.7135 132.403 56.7135 133.097C56.7135 133.791 56.1506 134.353 55.4571 134.353C54.7622 134.353 54.2006 133.791 54.2006 133.097ZM58.465 135.523C57.9536 135.054 57.9197 134.259 58.3883 133.747C58.857 133.236 59.651 133.202 60.1624 133.671C60.675 134.139 60.709 134.933 60.2403 135.446C59.9928 135.716 59.6536 135.853 59.3143 135.853C59.0103 135.853 58.7062 135.744 58.465 135.523ZM50.5105 135.689C50.0167 135.201 50.0116 134.406 50.4991 133.912C50.9866 133.418 51.782 133.413 52.2758 133.901C52.7695 134.389 52.7746 135.185 52.2871 135.679C52.0408 135.927 51.7166 136.052 51.3925 136.052C51.0733 136.052 50.7542 135.931 50.5105 135.689ZM59.9086 138.621C59.8822 137.928 60.4238 137.355 61.1173 137.33C61.8109 137.303 62.3938 137.831 62.419 138.524C62.4454 139.218 61.9038 139.813 61.2103 139.813C61.194 139.813 61.1789 139.813 61.1625 139.813C60.4903 139.813 59.9338 139.298 59.9086 138.621ZM48.4888 138.923C48.4813 138.229 49.0367 137.646 49.7302 137.637C50.4238 137.629 50.9942 138.204 51.0017 138.899C51.0105 139.592 50.4552 140.19 49.7616 140.19C49.7553 140.19 49.7503 140.19 49.7453 140.19C49.058 140.19 48.4976 139.611 48.4888 138.923ZM58.759 143.634C58.2539 143.159 58.2288 142.364 58.7037 141.858C59.1786 141.353 59.974 141.328 60.4803 141.802C60.9854 142.277 61.0105 143.073 60.5356 143.579C60.2881 143.842 59.9539 143.975 59.6196 143.975C59.3106 143.975 59.0015 143.862 58.759 143.634ZM50.6235 143.827C50.1235 143.345 50.1084 142.55 50.5896 142.05C51.0708 141.55 51.8661 141.536 52.3662 142.017C52.8663 142.499 52.8801 143.294 52.4002 143.794C52.1526 144.05 51.8234 144.178 51.4942 144.178C51.1814 144.178 50.8673 144.062 50.6235 143.827ZM54.3439 144.521C54.3263 143.828 54.8753 143.265 55.5689 143.249C56.2624 143.231 56.8391 143.757 56.8555 144.452C56.8731 145.146 56.324 145.719 55.6305 145.719C55.6204 145.719 55.6103 145.719 55.599 145.719C54.9193 145.719 54.3602 145.204 54.3439 144.521Z" fill="#1D243A"/>
<path d="M9.84832 147.169C9.84832 146.475 10.4099 145.912 11.1048 145.912C11.7983 145.912 12.3612 146.475 12.3612 147.169C12.3612 147.864 11.7983 148.425 11.1048 148.425C10.4099 148.425 9.84832 147.864 9.84832 147.169ZM14.1127 149.595C13.6013 149.126 13.5661 148.331 14.036 147.82C14.5047 147.308 15.2988 147.274 15.8101 147.743C16.3227 148.212 16.3567 149.006 15.888 149.518C15.6405 149.789 15.3013 149.925 14.962 149.925C14.658 149.925 14.3539 149.816 14.1127 149.595ZM6.15817 149.761C5.66439 149.273 5.65935 148.478 6.14685 147.984C6.63435 147.49 7.42968 147.485 7.92346 147.973C8.41724 148.462 8.42227 149.257 7.93478 149.751C7.68851 150 7.36434 150.124 7.04018 150.124C6.72104 150.124 6.40192 150.003 6.15817 149.761ZM15.5563 152.693C15.5299 152 16.0715 151.427 16.765 151.402C17.4586 151.377 18.0416 151.903 18.0667 152.597C18.0931 153.29 17.5516 153.886 16.858 153.886C16.8417 153.886 16.8266 153.886 16.8115 153.886C16.1381 153.886 15.5815 153.373 15.5563 152.693ZM4.13655 152.995C4.12901 152.301 4.68437 151.718 5.37792 151.71C6.07148 151.701 6.64063 152.276 6.64943 152.971C6.65822 153.665 6.10289 154.263 5.40933 154.263C5.40305 154.263 5.39802 154.263 5.39299 154.263C4.70697 154.263 4.14535 153.683 4.13655 152.995ZM14.4067 157.707C13.9016 157.232 13.8765 156.436 14.3514 155.93C14.8263 155.425 15.6217 155.4 16.128 155.875C16.6331 156.35 16.6582 157.145 16.1833 157.651C15.9358 157.914 15.6016 158.047 15.2673 158.047C14.9583 158.047 14.6492 157.934 14.4067 157.707ZM6.27125 157.899C5.77118 157.418 5.75609 156.622 6.23731 156.122C6.71852 155.623 7.51385 155.608 8.01392 156.09C8.51398 156.571 8.52905 157.366 8.04658 157.866C7.80032 158.121 7.47113 158.251 7.14194 158.251C6.82909 158.251 6.51499 158.134 6.27125 157.899ZM9.99156 158.594C9.97397 157.9 10.523 157.337 11.2166 157.321C11.9101 157.303 12.4868 157.831 12.5032 158.525C12.5208 159.218 11.9717 159.791 11.2782 159.791C11.2681 159.791 11.2568 159.791 11.2467 159.791C10.567 159.791 10.0079 159.277 9.99156 158.594Z" fill="#1D243A"/>
<path d="M145.795 118.773C145.795 118.08 146.357 117.517 147.052 117.517C147.745 117.517 148.308 118.08 148.308 118.773C148.308 119.468 147.745 120.03 147.052 120.03C146.357 120.03 145.795 119.468 145.795 118.773ZM150.059 121.2C149.548 120.731 149.514 119.936 149.983 119.424C150.451 118.913 151.246 118.879 151.758 119.348C152.27 119.816 152.303 120.61 151.835 121.123C151.587 121.393 151.248 121.53 150.909 121.53C150.605 121.53 150.301 121.421 150.059 121.2ZM142.105 121.365C141.611 120.878 141.606 120.083 142.094 119.589C142.581 119.095 143.376 119.09 143.87 119.577C144.364 120.066 144.369 120.862 143.882 121.355C143.635 121.604 143.311 121.728 142.987 121.728C142.668 121.728 142.35 121.608 142.105 121.365ZM151.503 124.298C151.477 123.604 152.018 123.031 152.712 123.006C153.405 122.981 153.988 123.508 154.013 124.201C154.04 124.895 153.498 125.49 152.805 125.49C152.79 125.49 152.773 125.49 152.758 125.49C152.085 125.49 151.528 124.978 151.503 124.298ZM140.083 124.599C140.076 123.906 140.631 123.323 141.325 123.314C142.018 123.305 142.589 123.881 142.596 124.576C142.605 125.269 142.05 125.867 141.356 125.867C141.35 125.867 141.345 125.867 141.34 125.867C140.654 125.867 140.092 125.288 140.083 124.599ZM150.353 129.311C149.848 128.836 149.823 128.041 150.298 127.534C150.773 127.029 151.568 127.004 152.075 127.479C152.58 127.955 152.605 128.749 152.13 129.256C151.883 129.518 151.548 129.652 151.214 129.652C150.905 129.652 150.596 129.538 150.353 129.311ZM142.218 129.511H142.217C141.718 129.008 141.703 128.231 142.184 127.73C142.665 127.23 143.461 127.214 143.961 127.697C144.461 128.177 144.476 128.972 143.993 129.472C143.747 129.728 143.418 129.859 143.089 129.859C142.775 129.859 142.462 129.762 142.218 129.511ZM145.938 130.198C145.921 129.505 146.47 128.942 147.163 128.924C147.857 128.908 148.434 129.434 148.45 130.129C148.468 130.823 147.918 131.396 147.225 131.396C147.215 131.396 147.204 131.396 147.193 131.396C146.514 131.396 145.955 130.882 145.938 130.198Z" fill="#1D243A"/>
</svg>
